999
dxfrw 0.5.11
0
SECTION
2
HEADER
9
$ACADVER
1
AC1021
9
$HANDSEED
5
20000
9
$DWGCODEPAGE
3
ANSI_1252
9
$INSBASE
10
0
20
0
30
0
9
$EXTMIN
10
-3.77005200787
20
-0.41670023622
30
0
9
$EXTMAX
10
6.16622043307
20
18.3366122047
30
0
9
$LIMMIN
10
0
20
0
9
$LIMMAX
10
420
20
297
9
$ORTHOMODE
70
0
9
$LTSCALE
40
1
9
$TEXTSTYLE
7
STANDARD
9
$CLAYER
8
reference
9
$DIMASZ
40
2.5
9
$DIMLFAC
40
1
9
$DIMSCALE
40
1
9
$DIMEXO
40
0.625
9
$DIMEXE
40
1.25
9
$DIMTXT
40
2.5
9
$DIMTSZ
40
0
9
$DIMAUNIT
70
0
9
$DIMADEC
70
2
9
$DIMLUNIT
70
2
9
$DIMSTYLE
2
Standard
9
$DIMGAP
40
0.625
9
$DIMTIH
70
0
9
$LUNITS
70
2
9
$LUPREC
70
4
9
$AUNITS
70
0
9
$AUPREC
70
2
9
$SPLINESEGS
70
8
9
$GRIDMODE
70
1
9
$SNAPSTYLE
70
0
9
$GRIDUNIT
10
0
20
0
9
$PINSBASE
10
0
20
0
30
0
9
$PLIMMIN
10
0
20
0
9
$PLIMMAX
10
8.26771653543
20
11.6929133858
9
$INSUNITS
70
1
9
$PSVPSCALE
40
1
0
ENDSEC
0
SECTION
2
CLASSES
0
ENDSEC
0
SECTION
2
TABLES
0
TABLE
2
VPORT
5
8
330
0
100
AcDbSymbolTable
70
1
0
VPORT
5
31
330
2
100
AcDbSymbolTableRecord
100
AcDbViewportTableRecord
2
*ACTIVE
70
0
10
0
20
0
11
1
21
1
12
26.5484161909
22
13.8523332986
13
0
23
0
14
10
24
10
15
10
25
10
16
0
26
0
36
1
17
0
27
0
37
0
40
29.2916769587
41
2.5866873065
42
50
43
0
44
0
50
0
51
0
71
0
72
100
73
1
74
3
75
0
76
1
77
0
78
0
281
0
65
1
110
0
120
0
130
0
111
1
121
0
131
0
112
0
122
1
132
0
79
0
146
0
348
10020
60
7
61
5
292
1
282
1
141
0
142
0
63
250
421
3358443
0
ENDTAB
0
TABLE
2
LTYPE
5
5
330
0
100
AcDbSymbolTable
70
4
0
LTYPE
5
14
330
5
100
AcDbSymbolTableRecord
100
AcDbLinetypeTableRecord
2
ByBlock
70
0
3

72
65
73
0
40
0
0
LTYPE
5
15
330
5
100
AcDbSymbolTableRecord
100
AcDbLinetypeTableRecord
2
ByLayer
70
0
3

72
65
73
0
40
0
0
LTYPE
5
16
330
5
100
AcDbSymbolTableRecord
100
AcDbLinetypeTableRecord
2
Continuous
70
0
3
Solid line
72
65
73
0
40
0
0
LTYPE
5
32
330
5
100
AcDbSymbolTableRecord
100
AcDbLinetypeTableRecord
2
DOT
70
0
3
Dot . . . . . . . . . . . . . . . . . . . . . .
72
65
73
2
40
6.35
49
0
74
0
49
-6.35
74
0
0
LTYPE
5
33
330
5
100
AcDbSymbolTableRecord
100
AcDbLinetypeTableRecord
2
DOT2
70
0
3
Dot (.5x) .....................................
72
65
73
2
40
3.175
49
0
74
0
49
-3.175
74
0
0
LTYPE
5
34
330
5
100
AcDbSymbolTableRecord
100
AcDbLinetypeTableRecord
2
DOTX2
70
0
3
Dot (2x) .  .  .  .  .  .  .  .  .  .  .  .  .
72
65
73
2
40
12.7
49
0
74
0
49
-12.7
74
0
0
LTYPE
5
35
330
5
100
AcDbSymbolTableRecord
100
AcDbLinetypeTableRecord
2
DASHED
70
0
3
Dot . . . . . . . . . . . . . . . . . . . . . .
72
65
73
2
40
19.05
49
12.7
74
0
49
-6.35
74
0
0
LTYPE
5
36
330
5
100
AcDbSymbolTableRecord
100
AcDbLinetypeTableRecord
2
DASHED2
70
0
3
Dashed (.5x) _ _ _ _ _ _ _ _ _ _ _ _ _ _ _ _ _
72
65
73
2
40
9.525
49
6.35
74
0
49
-3.175
74
0
0
LTYPE
5
37
330
5
100
AcDbSymbolTableRecord
100
AcDbLinetypeTableRecord
2
DASHEDX2
70
0
3
Dashed (2x) ____  ____  ____  ____  ____  ___
72
65
73
2
40
38.1
49
25.4
74
0
49
-12.7
74
0
0
LTYPE
5
38
330
5
100
AcDbSymbolTableRecord
100
AcDbLinetypeTableRecord
2
DASHDOT
70
0
3
Dash dot __ . __ . __ . __ . __ . __ . __ . __
72
65
73
4
40
25.4
49
12.7
74
0
49
-6.35
74
0
49
0
74
0
49
-6.35
74
0
0
LTYPE
5
39
330
5
100
AcDbSymbolTableRecord
100
AcDbLinetypeTableRecord
2
DASHDOT2
70
0
3
Dash dot (.5x) _._._._._._._._._._._._._._._.
72
65
73
4
40
12.7
49
6.35
74
0
49
-3.175
74
0
49
0
74
0
49
-3.175
74
0
0
LTYPE
5
3A
330
5
100
AcDbSymbolTableRecord
100
AcDbLinetypeTableRecord
2
DASHDOTX2
70
0
3
Dash dot (2x) ____  .  ____  .  ____  .  ___
72
65
73
4
40
50.8
49
25.4
74
0
49
-12.7
74
0
49
0
74
0
49
-12.7
74
0
0
LTYPE
5
3B
330
5
100
AcDbSymbolTableRecord
100
AcDbLinetypeTableRecord
2
DIVIDE
70
0
3
Divide ____ . . ____ . . ____ . . ____ . . ____
72
65
73
6
40
31.75
49
12.7
74
0
49
-6.35
74
0
49
0
74
0
49
-6.35
74
0
49
0
74
0
49
-6.35
74
0
0
LTYPE
5
3C
330
5
100
AcDbSymbolTableRecord
100
AcDbLinetypeTableRecord
2
DIVIDE2
70
0
3
Divide (.5x) __..__..__..__..__..__..__..__.._
72
65
73
6
40
15.875
49
6.35
74
0
49
-3.175
74
0
49
0
74
0
49
-3.175
74
0
49
0
74
0
49
-3.175
74
0
0
LTYPE
5
3D
330
5
100
AcDbSymbolTableRecord
100
AcDbLinetypeTableRecord
2
DIVIDEX2
70
0
3
Divide (2x) ________  .  .  ________  .  .  _
72
65
73
6
40
63.5
49
25.4
74
0
49
-12.7
74
0
49
0
74
0
49
-12.7
74
0
49
0
74
0
49
-12.7
74
0
0
LTYPE
5
3E
330
5
100
AcDbSymbolTableRecord
100
AcDbLinetypeTableRecord
2
BORDER
70
0
3
Border __ __ . __ __ . __ __ . __ __ . __ __ .
72
65
73
6
40
44.45
49
12.7
74
0
49
-6.35
74
0
49
12.7
74
0
49
-6.35
74
0
49
0
74
0
49
-6.35
74
0
0
LTYPE
5
3F
330
5
100
AcDbSymbolTableRecord
100
AcDbLinetypeTableRecord
2
BORDER2
70
0
3
Border (.5x) __.__.__.__.__.__.__.__.__.__.__.
72
65
73
6
40
22.225
49
6.35
74
0
49
-3.175
74
0
49
6.35
74
0
49
-3.175
74
0
49
0
74
0
49
-3.175
74
0
0
LTYPE
5
40
330
5
100
AcDbSymbolTableRecord
100
AcDbLinetypeTableRecord
2
BORDERX2
70
0
3
Border (2x) ____  ____  .  ____  ____  .  ___
72
65
73
6
40
88.9
49
25.4
74
0
49
-12.7
74
0
49
25.4
74
0
49
-12.7
74
0
49
0
74
0
49
-12.7
74
0
0
LTYPE
5
41
330
5
100
AcDbSymbolTableRecord
100
AcDbLinetypeTableRecord
2
CENTER
70
0
3
Center ____ _ ____ _ ____ _ ____ _ ____ _ ____
72
65
73
4
40
50.8
49
31.75
74
0
49
-6.35
74
0
49
6.35
74
0
49
-6.35
74
0
0
LTYPE
5
42
330
5
100
AcDbSymbolTableRecord
100
AcDbLinetypeTableRecord
2
CENTER2
70
0
3
Center (.5x) ___ _ ___ _ ___ _ ___ _ ___ _ ___
72
65
73
4
40
28.575
49
19.05
74
0
49
-3.175
74
0
49
3.175
74
0
49
-3.175
74
0
0
LTYPE
5
43
330
5
100
AcDbSymbolTableRecord
100
AcDbLinetypeTableRecord
2
CENTERX2
70
0
3
Center (2x) ________  __  ________  __  _____
72
65
73
4
40
101.6
49
63.5
74
0
49
-12.7
74
0
49
12.7
74
0
49
-12.7
74
0
0
ENDTAB
0
TABLE
2
LAYER
5
2
330
0
100
AcDbSymbolTable
70
1
0
LAYER
5
10
330
2
100
AcDbSymbolTableRecord
100
AcDbLayerTableRecord
2
0
70
0
62
7
6
CONTINUOUS
370
-3
390
F
0
LAYER
5
44
330
2
100
AcDbSymbolTableRecord
100
AcDbLayerTableRecord
2
dimension
70
0
62
7
6
CONTINUOUS
370
0
390
F
0
LAYER
5
45
330
2
100
AcDbSymbolTableRecord
100
AcDbLayerTableRecord
2
reference
70
0
62
253
420
10526884
6
CONTINUOUS
370
0
390
F
0
LAYER
5
46
330
2
100
AcDbSymbolTableRecord
100
AcDbLayerTableRecord
2
vector
70
0
62
3
6
CONTINUOUS
370
0
390
F
0
ENDTAB
0
TABLE
2
STYLE
5
3
330
0
100
AcDbSymbolTable
70
3
0
STYLE
5
47
330
2
100
AcDbSymbolTableRecord
100
AcDbTextStyleTableRecord
2
Standard
70
0
40
0
41
1
50
0
71
0
42
1
3
txt
4

0
ENDTAB
0
TABLE
2
VIEW
5
6
330
0
100
AcDbSymbolTable
70
0
0
ENDTAB
0
TABLE
2
UCS
5
7
330
0
100
AcDbSymbolTable
70
0
0
ENDTAB
0
TABLE
2
APPID
5
9
330
0
100
AcDbSymbolTable
70
1
0
APPID
5
12
330
9
100
AcDbSymbolTableRecord
100
AcDbRegAppTableRecord
2
ACAD
70
0
0
ENDTAB
0
TABLE
2
DIMSTYLE
5
A
330
0
100
AcDbSymbolTable
70
1
100
AcDbDimStyleTable
71
1
0
DIMSTYLE
105
48
330
A
100
AcDbSymbolTableRecord
100
AcDbDimStyleTableRecord
2
Standard
70
0
40
1
41
2.5
42
0.625
43
0.38
44
1.25
45
0
46
0
47
0
48
0
140
2.5
141
0.09
142
0
143
25.4
144
1
145
0
146
1
147
0.625
148
0
71
0
72
0
73
0
74
1
75
0
76
0
77
0
78
0
79
0
170
0
171
2
172
0
173
0
174
0
175
0
176
0
177
0
178
0
179
0
271
4
272
4
273
2
274
2
275
0
276
0
277
2
278
46
279
0
280
0
281
0
282
0
283
1
284
0
285
0
286
0
288
0
289
3
340
Standard
341

371
-2
372
-2
0
ENDTAB
0
TABLE
2
BLOCK_RECORD
5
1
330
0
100
AcDbSymbolTable
70
2
0
BLOCK_RECORD
5
1F
330
1
100
AcDbSymbolTableRecord
100
AcDbBlockTableRecord
2
*Model_Space
70
0
280
1
281
0
0
BLOCK_RECORD
5
1E
330
1
100
AcDbSymbolTableRecord
100
AcDbBlockTableRecord
2
*Paper_Space
70
0
280
1
281
0
0
ENDTAB
0
ENDSEC
0
SECTION
2
BLOCKS
0
BLOCK
5
20
330
1F
100
AcDbEntity
8
0
100
AcDbBlockBegin
2
*Model_Space
70
0
10
0
20
0
30
0
3
*Model_Space
1

0
ENDBLK
5
21
330
1F
100
AcDbEntity
8
0
100
AcDbBlockEnd
0
BLOCK
5
1C
330
1B
100
AcDbEntity
8
0
100
AcDbBlockBegin
2
*Paper_Space
70
0
10
0
20
0
30
0
3
*Paper_Space
1

0
ENDBLK
5
1D
330
1F
100
AcDbEntity
8
0
100
AcDbBlockEnd
0
ENDSEC
0
SECTION
2
ENTITIES
0
LINE
5
49
100
AcDbEntity
8
reference
6
ByLayer
62
256
370
-1
100
AcDbLine
10
-3.77005200787
20
17.3366122047
11
-3.77005200787
21
18.3366122047
0
LINE
5
4A
100
AcDbEntity
8
reference
6
ByLayer
62
256
370
-1
100
AcDbLine
10
-3.77005200787
20
18.3366122047
11
-2.77005200787
21
18.3366122047
0
LINE
5
4B
100
AcDbEntity
8
reference
6
ByLayer
62
256
370
-1
100
AcDbLine
10
-2.77005200787
20
18.3366122047
11
-2.77005200787
21
17.3366122047
0
LINE
5
4C
100
AcDbEntity
8
reference
6
ByLayer
62
256
370
-1
100
AcDbLine
10
-2.77005200787
20
17.3366122047
11
-3.77005200787
21
17.3366122047
0
LINE
5
4D
100
AcDbEntity
8
vector
6
ByLayer
62
256
370
-1
100
AcDbLine
10
5.77110232283
20
13.1031102362
11
5.77066897638
21
13.0958268898
0
LINE
5
4E
100
AcDbEntity
8
vector
6
ByLayer
62
256
370
-1
100
AcDbLine
10
5.7706692126
20
13.0958268898
11
5.76929133858
21
13.0887013386
0
LINE
5
4F
100
AcDbEntity
8
vector
6
ByLayer
62
256
370
-1
100
AcDbLine
10
5.76929133858
20
13.0887013386
11
5.76704720472
21
13.0817713386
0
LINE
5
50
100
AcDbEntity
8
vector
6
ByLayer
62
256
370
-1
100
AcDbLine
10
5.76704720472
20
13.0817713386
11
5.7639369685
21
13.0751580315
0
LINE
5
51
100
AcDbEntity
8
vector
6
ByLayer
62
256
370
-1
100
AcDbLine
10
5.7639369685
20
13.0751580315
11
5.76003933071
21
13.0690157874
0
LINE
5
52
100
AcDbEntity
8
vector
6
ByLayer
62
256
370
-1
100
AcDbLine
10
5.76003933071
20
13.0690157874
11
5.75539366142
21
13.0634257874
0
LINE
5
53
100
AcDbEntity
8
vector
6
ByLayer
62
256
370
-1
100
AcDbLine
10
5.75539366142
20
13.0634257874
11
5.75007866142
21
13.0584257874
0
LINE
5
54
100
AcDbEntity
8
vector
6
ByLayer
62
256
370
-1
100
AcDbLine
10
5.75007866142
20
13.0584257874
11
5.74417322835
21
13.0541335827
0
LINE
5
55
100
AcDbEntity
8
vector
6
ByLayer
62
256
370
-1
100
AcDbLine
10
5.74417322835
20
13.0541335827
11
5.73779519685
21
13.0506302362
0
LINE
5
56
100
AcDbEntity
8
vector
6
ByLayer
62
256
370
-1
100
AcDbLine
10
5.73779519685
20
13.0506302362
11
5.73102366142
21
13.0479524409
0
LINE
5
57
100
AcDbEntity
8
vector
6
ByLayer
62
256
370
-1
100
AcDbLine
10
5.73102366142
20
13.0479524409
11
5.72397633858
21
13.0461413386
0
LINE
5
58
100
AcDbEntity
8
vector
6
ByLayer
62
256
370
-1
100
AcDbLine
10
5.72397633858
20
13.0461413386
11
5.71677165354
21
13.0452302362
0
LINE
5
59
100
AcDbEntity
8
vector
6
ByLayer
62
256
370
-1
100
AcDbLine
10
5.71677165354
20
13.0452357874
11
5.70944877953
21
13.0452357874
0
LINE
5
5A
100
AcDbEntity
8
vector
6
ByLayer
62
256
370
-1
100
AcDbLine
10
5.70944877953
20
13.0452357874
11
5.70224409449
21
13.0461468898
0
LINE
5
5B
100
AcDbEntity
8
vector
6
ByLayer
62
256
370
-1
100
AcDbLine
10
5.70224409449
20
13.0461413386
11
5.69519688976
21
13.0479524409
0
LINE
5
5C
100
AcDbEntity
8
vector
6
ByLayer
62
256
370
-1
100
AcDbLine
10
5.69519688976
20
13.0479524409
11
5.68842515748
21
13.0506302362
0
LINE
5
5D
100
AcDbEntity
8
vector
6
ByLayer
62
256
370
-1
100
AcDbLine
10
5.68842515748
20
13.0506302362
11
5.68204720472
21
13.0541335827
0
LINE
5
5E
100
AcDbEntity
8
vector
6
ByLayer
62
256
370
-1
100
AcDbLine
10
5.68204720472
20
13.0541335827
11
5.67614169291
21
13.0584257874
0
LINE
5
5F
100
AcDbEntity
8
vector
6
ByLayer
62
256
370
-1
100
AcDbLine
10
5.67614169291
20
13.0584257874
11
5.67082673228
21
13.0634257874
0
LINE
5
60
100
AcDbEntity
8
vector
6
ByLayer
62
256
370
-1
100
AcDbLine
10
5.67082673228
20
13.0634257874
11
5.66618106299
21
13.0690157874
0
LINE
5
61
100
AcDbEntity
8
vector
6
ByLayer
62
256
370
-1
100
AcDbLine
10
5.66618106299
20
13.0690157874
11
5.6622834252
21
13.0751580315
0
LINE
5
62
100
AcDbEntity
8
vector
6
ByLayer
62
256
370
-1
100
AcDbLine
10
5.6622834252
20
13.0751580315
11
5.65917318898
21
13.0817713386
0
LINE
5
63
100
AcDbEntity
8
vector
6
ByLayer
62
256
370
-1
100
AcDbLine
10
5.65917318898
20
13.0817713386
11
5.65692909449
21
13.0887013386
0
LINE
5
64
100
AcDbEntity
8
vector
6
ByLayer
62
256
370
-1
100
AcDbLine
10
5.65692909449
20
13.0887013386
11
5.65555114173
21
13.0958268898
0
LINE
5
65
100
AcDbEntity
8
vector
6
ByLayer
62
256
370
-1
100
AcDbLine
10
5.65555114173
20
13.0958268898
11
5.6551180315
21
13.1031102362
0
LINE
5
66
100
AcDbEntity
8
vector
6
ByLayer
62
256
370
-1
100
AcDbLine
10
5.65511807087
20
13.1031102362
11
5.6555511811
21
13.1103935827
0
LINE
5
67
100
AcDbEntity
8
vector
6
ByLayer
62
256
370
-1
100
AcDbLine
10
5.65555114173
20
13.1103935827
11
5.65692909449
21
13.1175202362
0
LINE
5
68
100
AcDbEntity
8
vector
6
ByLayer
62
256
370
-1
100
AcDbLine
10
5.65692909449
20
13.1175202362
11
5.65917318898
21
13.1244491339
0
LINE
5
69
100
AcDbEntity
8
vector
6
ByLayer
62
256
370
-1
100
AcDbLine
10
5.65917318898
20
13.1244491339
11
5.6622834252
21
13.1310635827
0
LINE
5
6A
100
AcDbEntity
8
vector
6
ByLayer
62
256
370
-1
100
AcDbLine
10
5.6622834252
20
13.1310635827
11
5.66618106299
21
13.137204685
0
LINE
5
6B
100
AcDbEntity
8
vector
6
ByLayer
62
256
370
-1
100
AcDbLine
10
5.66618106299
20
13.137204685
11
5.67082673228
21
13.1427957874
0
LINE
5
6C
100
AcDbEntity
8
vector
6
ByLayer
62
256
370
-1
100
AcDbLine
10
5.67082673228
20
13.1427957874
11
5.67614169291
21
13.1477957874
0
LINE
5
6D
100
AcDbEntity
8
vector
6
ByLayer
62
256
370
-1
100
AcDbLine
10
5.67614169291
20
13.1477957874
11
5.68204720472
21
13.1520868898
0
LINE
5
6E
100
AcDbEntity
8
vector
6
ByLayer
62
256
370
-1
100
AcDbLine
10
5.68204720472
20
13.1520868898
11
5.68842515748
21
13.1555902362
0
LINE
5
6F
100
AcDbEntity
8
vector
6
ByLayer
62
256
370
-1
100
AcDbLine
10
5.68842515748
20
13.1555902362
11
5.69519688976
21
13.1582680315
0
LINE
5
70
100
AcDbEntity
8
vector
6
ByLayer
62
256
370
-1
100
AcDbLine
10
5.69519688976
20
13.1582680315
11
5.70224409449
21
13.1600791339
0
LINE
5
71
100
AcDbEntity
8
vector
6
ByLayer
62
256
370
-1
100
AcDbLine
10
5.70224409449
20
13.1600791339
11
5.70944877953
21
13.1609902362
0
LINE
5
72
100
AcDbEntity
8
vector
6
ByLayer
62
256
370
-1
100
AcDbLine
10
5.70944877953
20
13.160984685
11
5.71677165354
21
13.160984685
0
LINE
5
73
100
AcDbEntity
8
vector
6
ByLayer
62
256
370
-1
100
AcDbLine
10
5.71677165354
20
13.160984685
11
5.72397633858
21
13.1600735827
0
LINE
5
74
100
AcDbEntity
8
vector
6
ByLayer
62
256
370
-1
100
AcDbLine
10
5.72397633858
20
13.1600791339
11
5.73102366142
21
13.1582680315
0
LINE
5
75
100
AcDbEntity
8
vector
6
ByLayer
62
256
370
-1
100
AcDbLine
10
5.73102366142
20
13.1582680315
11
5.73779519685
21
13.1555902362
0
LINE
5
76
100
AcDbEntity
8
vector
6
ByLayer
62
256
370
-1
100
AcDbLine
10
5.73779519685
20
13.1555902362
11
5.74417322835
21
13.1520868898
0
LINE
5
77
100
AcDbEntity
8
vector
6
ByLayer
62
256
370
-1
100
AcDbLine
10
5.74417322835
20
13.1520868898
11
5.75007866142
21
13.1477957874
0
LINE
5
78
100
AcDbEntity
8
vector
6
ByLayer
62
256
370
-1
100
AcDbLine
10
5.75007866142
20
13.1477957874
11
5.75539366142
21
13.1427957874
0
LINE
5
79
100
AcDbEntity
8
vector
6
ByLayer
62
256
370
-1
100
AcDbLine
10
5.75539366142
20
13.1427957874
11
5.76003933071
21
13.137204685
0
LINE
5
7A
100
AcDbEntity
8
vector
6
ByLayer
62
256
370
-1
100
AcDbLine
10
5.76003933071
20
13.137204685
11
5.7639369685
21
13.1310635827
0
LINE
5
7B
100
AcDbEntity
8
vector
6
ByLayer
62
256
370
-1
100
AcDbLine
10
5.7639369685
20
13.1310635827
11
5.76704720472
21
13.1244491339
0
LINE
5
7C
100
AcDbEntity
8
vector
6
ByLayer
62
256
370
-1
100
AcDbLine
10
5.76704720472
20
13.1244491339
11
5.76929133858
21
13.1175202362
0
LINE
5
7D
100
AcDbEntity
8
vector
6
ByLayer
62
256
370
-1
100
AcDbLine
10
5.76929133858
20
13.1175202362
11
5.7706692126
21
13.1103935827
0
LINE
5
7E
100
AcDbEntity
8
vector
6
ByLayer
62
256
370
-1
100
AcDbLine
10
5.7706692126
20
13.1103935827
11
5.77110255906
21
13.1031102362
0
LINE
5
7F
100
AcDbEntity
8
vector
6
ByLayer
62
256
370
-1
100
AcDbLine
10
5.77110232283
20
10.4531103543
11
5.77066897638
21
10.445826811
0
LINE
5
80
100
AcDbEntity
8
vector
6
ByLayer
62
256
370
-1
100
AcDbLine
10
5.7706692126
20
10.445826811
11
5.76929133858
21
10.4387007874
0
LINE
5
81
100
AcDbEntity
8
vector
6
ByLayer
62
256
370
-1
100
AcDbLine
10
5.76929133858
20
10.4387007874
11
5.76704720472
21
10.4317716929
0
LINE
5
82
100
AcDbEntity
8
vector
6
ByLayer
62
256
370
-1
100
AcDbLine
10
5.76704720472
20
10.4317716929
11
5.7639369685
21
10.4251575591
0
LINE
5
83
100
AcDbEntity
8
vector
6
ByLayer
62
256
370
-1
100
AcDbLine
10
5.7639369685
20
10.4251575591
11
5.76003933071
21
10.4190157874
0
LINE
5
84
100
AcDbEntity
8
vector
6
ByLayer
62
256
370
-1
100
AcDbLine
10
5.76003933071
20
10.4190157874
11
5.75539366142
21
10.4134252362
0
LINE
5
85
100
AcDbEntity
8
vector
6
ByLayer
62
256
370
-1
100
AcDbLine
10
5.75539366142
20
10.4134252362
11
5.75007866142
21
10.4084252362
0
LINE
5
86
100
AcDbEntity
8
vector
6
ByLayer
62
256
370
-1
100
AcDbLine
10
5.75007866142
20
10.4084252362
11
5.74417322835
21
10.4041338976
0
LINE
5
87
100
AcDbEntity
8
vector
6
ByLayer
62
256
370
-1
100
AcDbLine
10
5.74417322835
20
10.4041338976
11
5.73779519685
21
10.40063
0
LINE
5
88
100
AcDbEntity
8
vector
6
ByLayer
62
256
370
-1
100
AcDbLine
10
5.73779519685
20
10.40063
11
5.73102366142
21
10.3979527953
0
LINE
5
89
100
AcDbEntity
8
vector
6
ByLayer
62
256
370
-1
100
AcDbLine
10
5.73102366142
20
10.3979527953
11
5.72397633858
21
10.396141811
0
LINE
5
8A
100
AcDbEntity
8
vector
6
ByLayer
62
256
370
-1
100
AcDbLine
10
5.72397633858
20
10.396141811
11
5.71677165354
21
10.3952362205
0
LINE
5
8B
100
AcDbEntity
8
vector
6
ByLayer
62
256
370
-1
100
AcDbLine
10
5.71677165354
20
10.3952362205
11
5.70944877953
21
10.3952362205
0
LINE
5
8C
100
AcDbEntity
8
vector
6
ByLayer
62
256
370
-1
100
AcDbLine
10
5.70944877953
20
10.3952362205
11
5.70224409449
21
10.396141811
0
LINE
5
8D
100
AcDbEntity
8
vector
6
ByLayer
62
256
370
-1
100
AcDbLine
10
5.70224409449
20
10.396141811
11
5.69519688976
21
10.3979527953
0
LINE
5
8E
100
AcDbEntity
8
vector
6
ByLayer
62
256
370
-1
100
AcDbLine
10
5.69519688976
20
10.3979527953
11
5.68842515748
21
10.40063
0
LINE
5
8F
100
AcDbEntity
8
vector
6
ByLayer
62
256
370
-1
100
AcDbLine
10
5.68842515748
20
10.40063
11
5.68204720472
21
10.4041338976
0
LINE
5
90
100
AcDbEntity
8
vector
6
ByLayer
62
256
370
-1
100
AcDbLine
10
5.68204720472
20
10.4041338976
11
5.67614169291
21
10.4084252362
0
LINE
5
91
100
AcDbEntity
8
vector
6
ByLayer
62
256
370
-1
100
AcDbLine
10
5.67614169291
20
10.4084252362
11
5.67082673228
21
10.4134252362
0
LINE
5
92
100
AcDbEntity
8
vector
6
ByLayer
62
256
370
-1
100
AcDbLine
10
5.67082673228
20
10.4134252362
11
5.66618106299
21
10.4190157874
0
LINE
5
93
100
AcDbEntity
8
vector
6
ByLayer
62
256
370
-1
100
AcDbLine
10
5.66618106299
20
10.4190157874
11
5.6622834252
21
10.4251575591
0
LINE
5
94
100
AcDbEntity
8
vector
6
ByLayer
62
256
370
-1
100
AcDbLine
10
5.6622834252
20
10.4251575591
11
5.65917318898
21
10.4317716929
0
LINE
5
95
100
AcDbEntity
8
vector
6
ByLayer
62
256
370
-1
100
AcDbLine
10
5.65917318898
20
10.4317716929
11
5.65692909449
21
10.4387007874
0
LINE
5
96
100
AcDbEntity
8
vector
6
ByLayer
62
256
370
-1
100
AcDbLine
10
5.65692909449
20
10.4387007874
11
5.65555114173
21
10.445826811
0
LINE
5
97
100
AcDbEntity
8
vector
6
ByLayer
62
256
370
-1
100
AcDbLine
10
5.65555114173
20
10.445826811
11
5.6551180315
21
10.4531103543
0
LINE
5
98
100
AcDbEntity
8
vector
6
ByLayer
62
256
370
-1
100
AcDbLine
10
5.65511807087
20
10.4531103543
11
5.6555511811
21
10.4603937795
0
LINE
5
99
100
AcDbEntity
8
vector
6
ByLayer
62
256
370
-1
100
AcDbLine
10
5.65555114173
20
10.4603937795
11
5.65692909449
21
10.467519685
0
LINE
5
9A
100
AcDbEntity
8
vector
6
ByLayer
62
256
370
-1
100
AcDbLine
10
5.65692909449
20
10.467519685
11
5.65917318898
21
10.4744488976
0
LINE
5
9B
100
AcDbEntity
8
vector
6
ByLayer
62
256
370
-1
100
AcDbLine
10
5.65917318898
20
10.4744488976
11
5.6622834252
21
10.4810630315
0
LINE
5
9C
100
AcDbEntity
8
vector
6
ByLayer
62
256
370
-1
100
AcDbLine
10
5.6622834252
20
10.4810630315
11
5.66618106299
21
10.4872048031
0
LINE
5
9D
100
AcDbEntity
8
vector
6
ByLayer
62
256
370
-1
100
AcDbLine
10
5.66618106299
20
10.4872048031
11
5.67082673228
21
10.4927953543
0
LINE
5
9E
100
AcDbEntity
8
vector
6
ByLayer
62
256
370
-1
100
AcDbLine
10
5.67082673228
20
10.4927953543
11
5.67614169291
21
10.4977953543
0
LINE
5
9F
100
AcDbEntity
8
vector
6
ByLayer
62
256
370
-1
100
AcDbLine
10
5.67614169291
20
10.4977953543
11
5.68204720472
21
10.5020866929
0
LINE
5
A0
100
AcDbEntity
8
vector
6
ByLayer
62
256
370
-1
100
AcDbLine
10
5.68204720472
20
10.5020866929
11
5.68842515748
21
10.5055905512
0
LINE
5
A1
100
AcDbEntity
8
vector
6
ByLayer
62
256
370
-1
100
AcDbLine
10
5.68842515748
20
10.5055905512
11
5.69519688976
21
10.5082677953
0
LINE
5
A2
100
AcDbEntity
8
vector
6
ByLayer
62
256
370
-1
100
AcDbLine
10
5.69519688976
20
10.5082677953
11
5.70224409449
21
10.5100787795
0
LINE
5
A3
100
AcDbEntity
8
vector
6
ByLayer
62
256
370
-1
100
AcDbLine
10
5.70224409449
20
10.5100787795
11
5.70944877953
21
10.5109843307
0
LINE
5
A4
100
AcDbEntity
8
vector
6
ByLayer
62
256
370
-1
100
AcDbLine
10
5.70944877953
20
10.5109843307
11
5.71677165354
21
10.5109843307
0
LINE
5
A5
100
AcDbEntity
8
vector
6
ByLayer
62
256
370
-1
100
AcDbLine
10
5.71677165354
20
10.5109843307
11
5.72397633858
21
10.5100787795
0
LINE
5
A6
100
AcDbEntity
8
vector
6
ByLayer
62
256
370
-1
100
AcDbLine
10
5.72397633858
20
10.5100787795
11
5.73102366142
21
10.5082677953
0
LINE
5
A7
100
AcDbEntity
8
vector
6
ByLayer
62
256
370
-1
100
AcDbLine
10
5.73102366142
20
10.5082677953
11
5.73779519685
21
10.5055905512
0
LINE
5
A8
100
AcDbEntity
8
vector
6
ByLayer
62
256
370
-1
100
AcDbLine
10
5.73779519685
20
10.5055905512
11
5.74417322835
21
10.5020866929
0
LINE
5
A9
100
AcDbEntity
8
vector
6
ByLayer
62
256
370
-1
100
AcDbLine
10
5.74417322835
20
10.5020866929
11
5.75007866142
21
10.4977953543
0
LINE
5
AA
100
AcDbEntity
8
vector
6
ByLayer
62
256
370
-1
100
AcDbLine
10
5.75007866142
20
10.4977953543
11
5.75539366142
21
10.4927953543
0
LINE
5
AB
100
AcDbEntity
8
vector
6
ByLayer
62
256
370
-1
100
AcDbLine
10
5.75539366142
20
10.4927953543
11
5.76003933071
21
10.4872048031
0
LINE
5
AC
100
AcDbEntity
8
vector
6
ByLayer
62
256
370
-1
100
AcDbLine
10
5.76003933071
20
10.4872048031
11
5.7639369685
21
10.4810630315
0
LINE
5
AD
100
AcDbEntity
8
vector
6
ByLayer
62
256
370
-1
100
AcDbLine
10
5.7639369685
20
10.4810630315
11
5.76704720472
21
10.4744488976
0
LINE
5
AE
100
AcDbEntity
8
vector
6
ByLayer
62
256
370
-1
100
AcDbLine
10
5.76704720472
20
10.4744488976
11
5.76929133858
21
10.467519685
0
LINE
5
AF
100
AcDbEntity
8
vector
6
ByLayer
62
256
370
-1
100
AcDbLine
10
5.76929133858
20
10.467519685
11
5.7706692126
21
10.4603937795
0
LINE
5
B0
100
AcDbEntity
8
vector
6
ByLayer
62
256
370
-1
100
AcDbLine
10
5.7706692126
20
10.4603937795
11
5.77110255906
21
10.4531103543
0
LINE
5
B1
100
AcDbEntity
8
vector
6
ByLayer
62
256
370
-1
100
AcDbLine
10
3.51110232283
20
13.1031102362
11
3.5106692126
21
13.0958268898
0
LINE
5
B2
100
AcDbEntity
8
vector
6
ByLayer
62
256
370
-1
100
AcDbLine
10
3.51066925197
20
13.0958268898
11
3.50929129921
21
13.0887013386
0
LINE
5
B3
100
AcDbEntity
8
vector
6
ByLayer
62
256
370
-1
100
AcDbLine
10
3.50929129921
20
13.0887013386
11
3.50704720472
21
13.0817713386
0
LINE
5
B4
100
AcDbEntity
8
vector
6
ByLayer
62
256
370
-1
100
AcDbLine
10
3.50704720472
20
13.0817713386
11
3.5039369685
21
13.0751580315
0
LINE
5
B5
100
AcDbEntity
8
vector
6
ByLayer
62
256
370
-1
100
AcDbLine
10
3.5039369685
20
13.0751580315
11
3.50003933071
21
13.0690157874
0
LINE
5
B6
100
AcDbEntity
8
vector
6
ByLayer
62
256
370
-1
100
AcDbLine
10
3.50003933071
20
13.0690157874
11
3.49539366142
21
13.0634257874
0
LINE
5
B7
100
AcDbEntity
8
vector
6
ByLayer
62
256
370
-1
100
AcDbLine
10
3.49539366142
20
13.0634257874
11
3.49007870079
21
13.0584257874
0
LINE
5
B8
100
AcDbEntity
8
vector
6
ByLayer
62
256
370
-1
100
AcDbLine
10
3.49007870079
20
13.0584257874
11
3.48417318898
21
13.0541335827
0
LINE
5
B9
100
AcDbEntity
8
vector
6
ByLayer
62
256
370
-1
100
AcDbLine
10
3.48417318898
20
13.0541335827
11
3.47779523622
21
13.0506302362
0
LINE
5
BA
100
AcDbEntity
8
vector
6
ByLayer
62
256
370
-1
100
AcDbLine
10
3.47779523622
20
13.0506302362
11
3.47102354331
21
13.0479524409
0
LINE
5
BB
100
AcDbEntity
8
vector
6
ByLayer
62
256
370
-1
100
AcDbLine
10
3.47102354331
20
13.0479524409
11
3.46397633858
21
13.0461413386
0
LINE
5
BC
100
AcDbEntity
8
vector
6
ByLayer
62
256
370
-1
100
AcDbLine
10
3.46397633858
20
13.0461413386
11
3.45677165354
21
13.0452302362
0
LINE
5
BD
100
AcDbEntity
8
vector
6
ByLayer
62
256
370
-1
100
AcDbLine
10
3.45677165354
20
13.0452357874
11
3.44944877953
21
13.0452357874
0
LINE
5
BE
100
AcDbEntity
8
vector
6
ByLayer
62
256
370
-1
100
AcDbLine
10
3.44944877953
20
13.0452357874
11
3.44224409449
21
13.0461468898
0
LINE
5
BF
100
AcDbEntity
8
vector
6
ByLayer
62
256
370
-1
100
AcDbLine
10
3.44224409449
20
13.0461413386
11
3.43519677165
21
13.0479524409
0
LINE
5
C0
100
AcDbEntity
8
vector
6
ByLayer
62
256
370
-1
100
AcDbLine
10
3.43519677165
20
13.0479524409
11
3.42842519685
21
13.0506302362
0
LINE
5
C1
100
AcDbEntity
8
vector
6
ByLayer
62
256
370
-1
100
AcDbLine
10
3.42842519685
20
13.0506302362
11
3.42204720472
21
13.0541335827
0
LINE
5
C2
100
AcDbEntity
8
vector
6
ByLayer
62
256
370
-1
100
AcDbLine
10
3.42204720472
20
13.0541335827
11
3.41614177165
21
13.0584257874
0
LINE
5
C3
100
AcDbEntity
8
vector
6
ByLayer
62
256
370
-1
100
AcDbLine
10
3.41614177165
20
13.0584257874
11
3.41082677165
21
13.0634257874
0
LINE
5
C4
100
AcDbEntity
8
vector
6
ByLayer
62
256
370
-1
100
AcDbLine
10
3.41082677165
20
13.0634257874
11
3.40618110236
21
13.0690157874
0
LINE
5
C5
100
AcDbEntity
8
vector
6
ByLayer
62
256
370
-1
100
AcDbLine
10
3.40618110236
20
13.0690157874
11
3.4022834252
21
13.0751580315
0
LINE
5
C6
100
AcDbEntity
8
vector
6
ByLayer
62
256
370
-1
100
AcDbLine
10
3.4022834252
20
13.0751580315
11
3.39917322835
21
13.0817713386
0
LINE
5
C7
100
AcDbEntity
8
vector
6
ByLayer
62
256
370
-1
100
AcDbLine
10
3.39917322835
20
13.0817713386
11
3.39692909449
21
13.0887013386
0
LINE
5
C8
100
AcDbEntity
8
vector
6
ByLayer
62
256
370
-1
100
AcDbLine
10
3.39692909449
20
13.0887013386
11
3.39555122047
21
13.0958268898
0
LINE
5
C9
100
AcDbEntity
8
vector
6
ByLayer
62
256
370
-1
100
AcDbLine
10
3.39555122047
20
13.0958268898
11
3.39511787402
21
13.1031102362
0
LINE
5
CA
100
AcDbEntity
8
vector
6
ByLayer
62
256
370
-1
100
AcDbLine
10
3.39511811024
20
13.1031102362
11
3.39555141732
21
13.1103935827
0
LINE
5
CB
100
AcDbEntity
8
vector
6
ByLayer
62
256
370
-1
100
AcDbLine
10
3.39555122047
20
13.1103935827
11
3.39692909449
21
13.1175202362
0
LINE
5
CC
100
AcDbEntity
8
vector
6
ByLayer
62
256
370
-1
100
AcDbLine
10
3.39692909449
20
13.1175202362
11
3.39917322835
21
13.1244491339
0
LINE
5
CD
100
AcDbEntity
8
vector
6
ByLayer
62
256
370
-1
100
AcDbLine
10
3.39917322835
20
13.1244491339
11
3.4022834252
21
13.1310635827
0
LINE
5
CE
100
AcDbEntity
8
vector
6
ByLayer
62
256
370
-1
100
AcDbLine
10
3.4022834252
20
13.1310635827
11
3.40618110236
21
13.137204685
0
LINE
5
CF
100
AcDbEntity
8
vector
6
ByLayer
62
256
370
-1
100
AcDbLine
10
3.40618110236
20
13.137204685
11
3.41082677165
21
13.1427957874
0
LINE
5
D0
100
AcDbEntity
8
vector
6
ByLayer
62
256
370
-1
100
AcDbLine
10
3.41082677165
20
13.1427957874
11
3.41614177165
21
13.1477957874
0
LINE
5
D1
100
AcDbEntity
8
vector
6
ByLayer
62
256
370
-1
100
AcDbLine
10
3.41614177165
20
13.1477957874
11
3.42204720472
21
13.1520868898
0
LINE
5
D2
100
AcDbEntity
8
vector
6
ByLayer
62
256
370
-1
100
AcDbLine
10
3.42204720472
20
13.1520868898
11
3.42842519685
21
13.1555902362
0
LINE
5
D3
100
AcDbEntity
8
vector
6
ByLayer
62
256
370
-1
100
AcDbLine
10
3.42842519685
20
13.1555902362
11
3.43519677165
21
13.1582680315
0
LINE
5
D4
100
AcDbEntity
8
vector
6
ByLayer
62
256
370
-1
100
AcDbLine
10
3.43519677165
20
13.1582680315
11
3.44224409449
21
13.1600791339
0
LINE
5
D5
100
AcDbEntity
8
vector
6
ByLayer
62
256
370
-1
100
AcDbLine
10
3.44224409449
20
13.1600791339
11
3.44944877953
21
13.1609902362
0
LINE
5
D6
100
AcDbEntity
8
vector
6
ByLayer
62
256
370
-1
100
AcDbLine
10
3.44944877953
20
13.160984685
11
3.45677165354
21
13.160984685
0
LINE
5
D7
100
AcDbEntity
8
vector
6
ByLayer
62
256
370
-1
100
AcDbLine
10
3.45677165354
20
13.160984685
11
3.46397633858
21
13.1600735827
0
LINE
5
D8
100
AcDbEntity
8
vector
6
ByLayer
62
256
370
-1
100
AcDbLine
10
3.46397633858
20
13.1600791339
11
3.47102354331
21
13.1582680315
0
LINE
5
D9
100
AcDbEntity
8
vector
6
ByLayer
62
256
370
-1
100
AcDbLine
10
3.47102354331
20
13.1582680315
11
3.47779523622
21
13.1555902362
0
LINE
5
DA
100
AcDbEntity
8
vector
6
ByLayer
62
256
370
-1
100
AcDbLine
10
3.47779523622
20
13.1555902362
11
3.48417318898
21
13.1520868898
0
LINE
5
DB
100
AcDbEntity
8
vector
6
ByLayer
62
256
370
-1
100
AcDbLine
10
3.48417318898
20
13.1520868898
11
3.49007870079
21
13.1477957874
0
LINE
5
DC
100
AcDbEntity
8
vector
6
ByLayer
62
256
370
-1
100
AcDbLine
10
3.49007870079
20
13.1477957874
11
3.49539366142
21
13.1427957874
0
LINE
5
DD
100
AcDbEntity
8
vector
6
ByLayer
62
256
370
-1
100
AcDbLine
10
3.49539366142
20
13.1427957874
11
3.50003933071
21
13.137204685
0
LINE
5
DE
100
AcDbEntity
8
vector
6
ByLayer
62
256
370
-1
100
AcDbLine
10
3.50003933071
20
13.137204685
11
3.5039369685
21
13.1310635827
0
LINE
5
DF
100
AcDbEntity
8
vector
6
ByLayer
62
256
370
-1
100
AcDbLine
10
3.5039369685
20
13.1310635827
11
3.50704720472
21
13.1244491339
0
LINE
5
E0
100
AcDbEntity
8
vector
6
ByLayer
62
256
370
-1
100
AcDbLine
10
3.50704720472
20
13.1244491339
11
3.50929129921
21
13.1175202362
0
LINE
5
E1
100
AcDbEntity
8
vector
6
ByLayer
62
256
370
-1
100
AcDbLine
10
3.50929129921
20
13.1175202362
11
3.51066925197
21
13.1103935827
0
LINE
5
E2
100
AcDbEntity
8
vector
6
ByLayer
62
256
370
-1
100
AcDbLine
10
3.51066925197
20
13.1103935827
11
3.5111023622
21
13.1031102362
0
LINE
5
E3
100
AcDbEntity
8
vector
6
ByLayer
62
256
370
-1
100
AcDbLine
10
3.51110232283
20
10.4531103543
11
3.5106692126
21
10.445826811
0
LINE
5
E4
100
AcDbEntity
8
vector
6
ByLayer
62
256
370
-1
100
AcDbLine
10
3.51066925197
20
10.445826811
11
3.50929129921
21
10.4387007874
0
LINE
5
E5
100
AcDbEntity
8
vector
6
ByLayer
62
256
370
-1
100
AcDbLine
10
3.50929129921
20
10.4387007874
11
3.50704720472
21
10.4317716929
0
LINE
5
E6
100
AcDbEntity
8
vector
6
ByLayer
62
256
370
-1
100
AcDbLine
10
3.50704720472
20
10.4317716929
11
3.5039369685
21
10.4251575591
0
LINE
5
E7
100
AcDbEntity
8
vector
6
ByLayer
62
256
370
-1
100
AcDbLine
10
3.5039369685
20
10.4251575591
11
3.50003933071
21
10.4190157874
0
LINE
5
E8
100
AcDbEntity
8
vector
6
ByLayer
62
256
370
-1
100
AcDbLine
10
3.50003933071
20
10.4190157874
11
3.49539366142
21
10.4134252362
0
LINE
5
E9
100
AcDbEntity
8
vector
6
ByLayer
62
256
370
-1
100
AcDbLine
10
3.49539366142
20
10.4134252362
11
3.49007870079
21
10.4084252362
0
LINE
5
EA
100
AcDbEntity
8
vector
6
ByLayer
62
256
370
-1
100
AcDbLine
10
3.49007870079
20
10.4084252362
11
3.48417318898
21
10.4041338976
0
LINE
5
EB
100
AcDbEntity
8
vector
6
ByLayer
62
256
370
-1
100
AcDbLine
10
3.48417318898
20
10.4041338976
11
3.47779523622
21
10.40063
0
LINE
5
EC
100
AcDbEntity
8
vector
6
ByLayer
62
256
370
-1
100
AcDbLine
10
3.47779523622
20
10.40063
11
3.47102354331
21
10.3979527953
0
LINE
5
ED
100
AcDbEntity
8
vector
6
ByLayer
62
256
370
-1
100
AcDbLine
10
3.47102354331
20
10.3979527953
11
3.46397633858
21
10.396141811
0
LINE
5
EE
100
AcDbEntity
8
vector
6
ByLayer
62
256
370
-1
100
AcDbLine
10
3.46397633858
20
10.396141811
11
3.45677165354
21
10.3952362205
0
LINE
5
EF
100
AcDbEntity
8
vector
6
ByLayer
62
256
370
-1
100
AcDbLine
10
3.45677165354
20
10.3952362205
11
3.44944877953
21
10.3952362205
0
LINE
5
F0
100
AcDbEntity
8
vector
6
ByLayer
62
256
370
-1
100
AcDbLine
10
3.44944877953
20
10.3952362205
11
3.44224409449
21
10.396141811
0
LINE
5
F1
100
AcDbEntity
8
vector
6
ByLayer
62
256
370
-1
100
AcDbLine
10
3.44224409449
20
10.396141811
11
3.43519677165
21
10.3979527953
0
LINE
5
F2
100
AcDbEntity
8
vector
6
ByLayer
62
256
370
-1
100
AcDbLine
10
3.43519677165
20
10.3979527953
11
3.42842519685
21
10.40063
0
LINE
5
F3
100
AcDbEntity
8
vector
6
ByLayer
62
256
370
-1
100
AcDbLine
10
3.42842519685
20
10.40063
11
3.42204720472
21
10.4041338976
0
LINE
5
F4
100
AcDbEntity
8
vector
6
ByLayer
62
256
370
-1
100
AcDbLine
10
3.42204720472
20
10.4041338976
11
3.41614177165
21
10.4084252362
0
LINE
5
F5
100
AcDbEntity
8
vector
6
ByLayer
62
256
370
-1
100
AcDbLine
10
3.41614177165
20
10.4084252362
11
3.41082677165
21
10.4134252362
0
LINE
5
F6
100
AcDbEntity
8
vector
6
ByLayer
62
256
370
-1
100
AcDbLine
10
3.41082677165
20
10.4134252362
11
3.40618110236
21
10.4190157874
0
LINE
5
F7
100
AcDbEntity
8
vector
6
ByLayer
62
256
370
-1
100
AcDbLine
10
3.40618110236
20
10.4190157874
11
3.4022834252
21
10.4251575591
0
LINE
5
F8
100
AcDbEntity
8
vector
6
ByLayer
62
256
370
-1
100
AcDbLine
10
3.4022834252
20
10.4251575591
11
3.39917322835
21
10.4317716929
0
LINE
5
F9
100
AcDbEntity
8
vector
6
ByLayer
62
256
370
-1
100
AcDbLine
10
3.39917322835
20
10.4317716929
11
3.39692909449
21
10.4387007874
0
LINE
5
FA
100
AcDbEntity
8
vector
6
ByLayer
62
256
370
-1
100
AcDbLine
10
3.39692909449
20
10.4387007874
11
3.39555122047
21
10.445826811
0
LINE
5
FB
100
AcDbEntity
8
vector
6
ByLayer
62
256
370
-1
100
AcDbLine
10
3.39555122047
20
10.445826811
11
3.39511787402
21
10.4531103543
0
LINE
5
FC
100
AcDbEntity
8
vector
6
ByLayer
62
256
370
-1
100
AcDbLine
10
3.39511811024
20
10.4531103543
11
3.39555141732
21
10.4603937795
0
LINE
5
FD
100
AcDbEntity
8
vector
6
ByLayer
62
256
370
-1
100
AcDbLine
10
3.39555122047
20
10.4603937795
11
3.39692909449
21
10.467519685
0
LINE
5
FE
100
AcDbEntity
8
vector
6
ByLayer
62
256
370
-1
100
AcDbLine
10
3.39692909449
20
10.467519685
11
3.39917322835
21
10.4744488976
0
LINE
5
FF
100
AcDbEntity
8
vector
6
ByLayer
62
256
370
-1
100
AcDbLine
10
3.39917322835
20
10.4744488976
11
3.4022834252
21
10.4810630315
0
LINE
5
100
100
AcDbEntity
8
vector
6
ByLayer
62
256
370
-1
100
AcDbLine
10
3.4022834252
20
10.4810630315
11
3.40618110236
21
10.4872048031
0
LINE
5
101
100
AcDbEntity
8
vector
6
ByLayer
62
256
370
-1
100
AcDbLine
10
3.40618110236
20
10.4872048031
11
3.41082677165
21
10.4927953543
0
LINE
5
102
100
AcDbEntity
8
vector
6
ByLayer
62
256
370
-1
100
AcDbLine
10
3.41082677165
20
10.4927953543
11
3.41614177165
21
10.4977953543
0
LINE
5
103
100
AcDbEntity
8
vector
6
ByLayer
62
256
370
-1
100
AcDbLine
10
3.41614177165
20
10.4977953543
11
3.42204720472
21
10.5020866929
0
LINE
5
104
100
AcDbEntity
8
vector
6
ByLayer
62
256
370
-1
100
AcDbLine
10
3.42204720472
20
10.5020866929
11
3.42842519685
21
10.5055905512
0
LINE
5
105
100
AcDbEntity
8
vector
6
ByLayer
62
256
370
-1
100
AcDbLine
10
3.42842519685
20
10.5055905512
11
3.43519677165
21
10.5082677953
0
LINE
5
106
100
AcDbEntity
8
vector
6
ByLayer
62
256
370
-1
100
AcDbLine
10
3.43519677165
20
10.5082677953
11
3.44224409449
21
10.5100787795
0
LINE
5
107
100
AcDbEntity
8
vector
6
ByLayer
62
256
370
-1
100
AcDbLine
10
3.44224409449
20
10.5100787795
11
3.44944877953
21
10.5109843307
0
LINE
5
108
100
AcDbEntity
8
vector
6
ByLayer
62
256
370
-1
100
AcDbLine
10
3.44944877953
20
10.5109843307
11
3.45677165354
21
10.5109843307
0
LINE
5
109
100
AcDbEntity
8
vector
6
ByLayer
62
256
370
-1
100
AcDbLine
10
3.45677165354
20
10.5109843307
11
3.46397633858
21
10.5100787795
0
LINE
5
10A
100
AcDbEntity
8
vector
6
ByLayer
62
256
370
-1
100
AcDbLine
10
3.46397633858
20
10.5100787795
11
3.47102354331
21
10.5082677953
0
LINE
5
10B
100
AcDbEntity
8
vector
6
ByLayer
62
256
370
-1
100
AcDbLine
10
3.47102354331
20
10.5082677953
11
3.47779523622
21
10.5055905512
0
LINE
5
10C
100
AcDbEntity
8
vector
6
ByLayer
62
256
370
-1
100
AcDbLine
10
3.47779523622
20
10.5055905512
11
3.48417318898
21
10.5020866929
0
LINE
5
10D
100
AcDbEntity
8
vector
6
ByLayer
62
256
370
-1
100
AcDbLine
10
3.48417318898
20
10.5020866929
11
3.49007870079
21
10.4977953543
0
LINE
5
10E
100
AcDbEntity
8
vector
6
ByLayer
62
256
370
-1
100
AcDbLine
10
3.49007870079
20
10.4977953543
11
3.49539366142
21
10.4927953543
0
LINE
5
10F
100
AcDbEntity
8
vector
6
ByLayer
62
256
370
-1
100
AcDbLine
10
3.49539366142
20
10.4927953543
11
3.50003933071
21
10.4872048031
0
LINE
5
110
100
AcDbEntity
8
vector
6
ByLayer
62
256
370
-1
100
AcDbLine
10
3.50003933071
20
10.4872048031
11
3.5039369685
21
10.4810630315
0
LINE
5
111
100
AcDbEntity
8
vector
6
ByLayer
62
256
370
-1
100
AcDbLine
10
3.5039369685
20
10.4810630315
11
3.50704720472
21
10.4744488976
0
LINE
5
112
100
AcDbEntity
8
vector
6
ByLayer
62
256
370
-1
100
AcDbLine
10
3.50704720472
20
10.4744488976
11
3.50929129921
21
10.467519685
0
LINE
5
113
100
AcDbEntity
8
vector
6
ByLayer
62
256
370
-1
100
AcDbLine
10
3.50929129921
20
10.467519685
11
3.51066925197
21
10.4603937795
0
LINE
5
114
100
AcDbEntity
8
vector
6
ByLayer
62
256
370
-1
100
AcDbLine
10
3.51066925197
20
10.4603937795
11
3.5111023622
21
10.4531103543
0
LINE
5
115
100
AcDbEntity
8
vector
6
ByLayer
62
256
370
-1
100
AcDbLine
10
6.16622043307
20
13.3062202362
11
6.16622043307
21
12.9956302362
0
LINE
5
116
100
AcDbEntity
8
vector
6
ByLayer
62
256
370
-1
100
AcDbLine
10
6.16622043307
20
12.9956302362
11
5.58811019685
21
12.9956302362
0
LINE
5
117
100
AcDbEntity
8
vector
6
ByLayer
62
256
370
-1
100
AcDbLine
10
5.58811019685
20
12.9956302362
11
5.58811019685
21
13.1531102362
0
LINE
5
118
100
AcDbEntity
8
vector
6
ByLayer
62
256
370
-1
100
AcDbLine
10
5.58811019685
20
13.1531102362
11
3.57811019685
21
13.1531102362
0
LINE
5
119
100
AcDbEntity
8
vector
6
ByLayer
62
256
370
-1
100
AcDbLine
10
3.57811019685
20
13.1531102362
11
3.57811019685
21
10.4031103543
0
LINE
5
11A
100
AcDbEntity
8
vector
6
ByLayer
62
256
370
-1
100
AcDbLine
10
3.57811019685
20
10.4031103543
11
5.58811019685
21
10.4031103543
0
LINE
5
11B
100
AcDbEntity
8
vector
6
ByLayer
62
256
370
-1
100
AcDbLine
10
5.58811019685
20
10.4031103543
11
5.58811019685
21
10.5605905512
0
LINE
5
11C
100
AcDbEntity
8
vector
6
ByLayer
62
256
370
-1
100
AcDbLine
10
5.58811019685
20
10.5605905512
11
6.16622043307
21
10.5605905512
0
LINE
5
11D
100
AcDbEntity
8
vector
6
ByLayer
62
256
370
-1
100
AcDbLine
10
6.16622043307
20
10.5605905512
11
6.16622043307
21
10.25
0
LINE
5
11E
100
AcDbEntity
8
vector
6
ByLayer
62
256
370
-1
100
AcDbLine
10
6.16622043307
20
10.25
11
6.1642519685
21
10.2186614567
0
LINE
5
11F
100
AcDbEntity
8
vector
6
ByLayer
62
256
370
-1
100
AcDbLine
10
6.1642519685
20
10.2186614567
11
6.15838574803
21
10.187834685
0
LINE
5
120
100
AcDbEntity
8
vector
6
ByLayer
62
256
370
-1
100
AcDbLine
10
6.15838574803
20
10.187834685
11
6.14866141732
21
10.1579527953
0
LINE
5
121
100
AcDbEntity
8
vector
6
ByLayer
62
256
370
-1
100
AcDbLine
10
6.14866141732
20
10.1579527953
11
6.13531488189
21
10.1295670079
0
LINE
5
122
100
AcDbEntity
8
vector
6
ByLayer
62
256
370
-1
100
AcDbLine
10
6.13531488189
20
10.1295670079
11
6.11846452756
21
10.1030709055
0
LINE
5
123
100
AcDbEntity
8
vector
6
ByLayer
62
256
370
-1
100
AcDbLine
10
6.11846452756
20
10.1030709055
11
6.09846452756
21
10.0788583465
0
LINE
5
124
100
AcDbEntity
8
vector
6
ByLayer
62
256
370
-1
100
AcDbLine
10
6.09846452756
20
10.0788583465
11
6.07559055118
21
10.0573622441
0
LINE
5
125
100
AcDbEntity
8
vector
6
ByLayer
62
256
370
-1
100
AcDbLine
10
6.07559055118
20
10.0573622441
11
6.05019677165
21
10.0389370079
0
LINE
5
126
100
AcDbEntity
8
vector
6
ByLayer
62
256
370
-1
100
AcDbLine
10
6.05019677165
20
10.0389370079
11
6.02267708661
21
10.0237795669
0
LINE
5
127
100
AcDbEntity
8
vector
6
ByLayer
62
256
370
-1
100
AcDbLine
10
6.02267708661
20
10.0237795669
11
5.99346452756
21
10.0122441339
0
LINE
5
128
100
AcDbEntity
8
vector
6
ByLayer
62
256
370
-1
100
AcDbLine
10
5.99346452756
20
10.0122441339
11
5.96307086614
21
10.0044094488
0
LINE
5
129
100
AcDbEntity
8
vector
6
ByLayer
62
256
370
-1
100
AcDbLine
10
5.96307086614
20
10.0044094488
11
5.93192909449
21
10.0005118898
0
LINE
5
12A
100
AcDbEntity
8
vector
6
ByLayer
62
256
370
-1
100
AcDbLine
10
5.93192909449
20
10.0005118898
11
5.91622043307
21
10.0005118898
0
LINE
5
12B
100
AcDbEntity
8
vector
6
ByLayer
62
256
370
-1
100
AcDbLine
10
5.91622043307
20
10.0005118898
11
5.91622043307
21
9.99999968504
0
LINE
5
12C
100
AcDbEntity
8
vector
6
ByLayer
62
256
370
-1
100
AcDbLine
10
5.91622043307
20
10
11
3.25
21
10
0
LINE
5
12D
100
AcDbEntity
8
vector
6
ByLayer
62
256
370
-1
100
AcDbLine
10
3.25
20
10
11
3.25
21
10.0005122441
0
LINE
5
12E
100
AcDbEntity
8
vector
6
ByLayer
62
256
370
-1
100
AcDbLine
10
3.25
20
10.0005118898
11
3.23429133858
21
10.0005118898
0
LINE
5
12F
100
AcDbEntity
8
vector
6
ByLayer
62
256
370
-1
100
AcDbLine
10
3.23429133858
20
10.0005118898
11
3.20314952756
21
10.0044094488
0
LINE
5
130
100
AcDbEntity
8
vector
6
ByLayer
62
256
370
-1
100
AcDbLine
10
3.20314952756
20
10.0044094488
11
3.17275586614
21
10.0122441339
0
LINE
5
131
100
AcDbEntity
8
vector
6
ByLayer
62
256
370
-1
100
AcDbLine
10
3.17275586614
20
10.0122441339
11
3.14354330709
21
10.0237795669
0
LINE
5
132
100
AcDbEntity
8
vector
6
ByLayer
62
256
370
-1
100
AcDbLine
10
3.14354330709
20
10.0237795669
11
3.11602366142
21
10.0389370079
0
LINE
5
133
100
AcDbEntity
8
vector
6
ByLayer
62
256
370
-1
100
AcDbLine
10
3.11602366142
20
10.0389370079
11
3.09062988189
21
10.0573622441
0
LINE
5
134
100
AcDbEntity
8
vector
6
ByLayer
62
256
370
-1
100
AcDbLine
10
3.09062988189
20
10.0573622441
11
3.06775586614
21
10.0788583465
0
LINE
5
135
100
AcDbEntity
8
vector
6
ByLayer
62
256
370
-1
100
AcDbLine
10
3.06775586614
20
10.0788583465
11
3.04775586614
21
10.1030709055
0
LINE
5
136
100
AcDbEntity
8
vector
6
ByLayer
62
256
370
-1
100
AcDbLine
10
3.04775586614
20
10.1030709055
11
3.03090555118
21
10.1295670079
0
LINE
5
137
100
AcDbEntity
8
vector
6
ByLayer
62
256
370
-1
100
AcDbLine
10
3.03090555118
20
10.1295670079
11
3.01755897638
21
10.1579527953
0
LINE
5
138
100
AcDbEntity
8
vector
6
ByLayer
62
256
370
-1
100
AcDbLine
10
3.01755897638
20
10.1579527953
11
3.00783464567
21
10.187834685
0
LINE
5
139
100
AcDbEntity
8
vector
6
ByLayer
62
256
370
-1
100
AcDbLine
10
3.00783464567
20
10.187834685
11
3.0019684252
21
10.2186614567
0
LINE
5
13A
100
AcDbEntity
8
vector
6
ByLayer
62
256
370
-1
100
AcDbLine
10
3.0019684252
20
10.2186614567
11
3
21
10.25
0
LINE
5
13B
100
AcDbEntity
8
vector
6
ByLayer
62
256
370
-1
100
AcDbLine
10
3
20
10.25
11
3
21
13.3062202362
0
LINE
5
13C
100
AcDbEntity
8
vector
6
ByLayer
62
256
370
-1
100
AcDbLine
10
3
20
13.3062202362
11
3.0019684252
21
13.3375591339
0
LINE
5
13D
100
AcDbEntity
8
vector
6
ByLayer
62
256
370
-1
100
AcDbLine
10
3.0019684252
20
13.3375591339
11
3.00783464567
21
13.3683857874
0
LINE
5
13E
100
AcDbEntity
8
vector
6
ByLayer
62
256
370
-1
100
AcDbLine
10
3.00783464567
20
13.3683857874
11
3.01755897638
21
13.3982680315
0
LINE
5
13F
100
AcDbEntity
8
vector
6
ByLayer
62
256
370
-1
100
AcDbLine
10
3.01755897638
20
13.3982680315
11
3.03090555118
21
13.4266535827
0
LINE
5
140
100
AcDbEntity
8
vector
6
ByLayer
62
256
370
-1
100
AcDbLine
10
3.03090555118
20
13.4266535827
11
3.04775586614
21
13.4531491339
0
LINE
5
141
100
AcDbEntity
8
vector
6
ByLayer
62
256
370
-1
100
AcDbLine
10
3.04775586614
20
13.4531491339
11
3.06775586614
21
13.4773624409
0
LINE
5
142
100
AcDbEntity
8
vector
6
ByLayer
62
256
370
-1
100
AcDbLine
10
3.06775586614
20
13.4773624409
11
3.09062988189
21
13.4988580315
0
LINE
5
143
100
AcDbEntity
8
vector
6
ByLayer
62
256
370
-1
100
AcDbLine
10
3.09062988189
20
13.4988580315
11
3.11602366142
21
13.5172835827
0
LINE
5
144
100
AcDbEntity
8
vector
6
ByLayer
62
256
370
-1
100
AcDbLine
10
3.11602366142
20
13.5172835827
11
3.14354330709
21
13.5324413386
0
LINE
5
145
100
AcDbEntity
8
vector
6
ByLayer
62
256
370
-1
100
AcDbLine
10
3.14354330709
20
13.5324413386
11
3.17275586614
21
13.5439768898
0
LINE
5
146
100
AcDbEntity
8
vector
6
ByLayer
62
256
370
-1
100
AcDbLine
10
3.17275586614
20
13.5439768898
11
3.20314952756
21
13.5518113386
0
LINE
5
147
100
AcDbEntity
8
vector
6
ByLayer
62
256
370
-1
100
AcDbLine
10
3.20314952756
20
13.5518113386
11
3.23429133858
21
13.5557091339
0
LINE
5
148
100
AcDbEntity
8
vector
6
ByLayer
62
256
370
-1
100
AcDbLine
10
3.23429133858
20
13.5557091339
11
3.25
21
13.5557091339
0
LINE
5
149
100
AcDbEntity
8
vector
6
ByLayer
62
256
370
-1
100
AcDbLine
10
3.25
20
13.5557091339
11
3.25
21
13.5562202362
0
LINE
5
14A
100
AcDbEntity
8
vector
6
ByLayer
62
256
370
-1
100
AcDbLine
10
3.25
20
13.5562202362
11
5.91622043307
21
13.5562202362
0
LINE
5
14B
100
AcDbEntity
8
vector
6
ByLayer
62
256
370
-1
100
AcDbLine
10
5.91622043307
20
13.5562202362
11
5.91622043307
21
13.5557091339
0
LINE
5
14C
100
AcDbEntity
8
vector
6
ByLayer
62
256
370
-1
100
AcDbLine
10
5.91622043307
20
13.5557091339
11
5.93192909449
21
13.5557091339
0
LINE
5
14D
100
AcDbEntity
8
vector
6
ByLayer
62
256
370
-1
100
AcDbLine
10
5.93192909449
20
13.5557091339
11
5.96307086614
21
13.5518113386
0
LINE
5
14E
100
AcDbEntity
8
vector
6
ByLayer
62
256
370
-1
100
AcDbLine
10
5.96307086614
20
13.5518113386
11
5.99346452756
21
13.5439768898
0
LINE
5
14F
100
AcDbEntity
8
vector
6
ByLayer
62
256
370
-1
100
AcDbLine
10
5.99346452756
20
13.5439768898
11
6.02267708661
21
13.5324413386
0
LINE
5
150
100
AcDbEntity
8
vector
6
ByLayer
62
256
370
-1
100
AcDbLine
10
6.02267708661
20
13.5324413386
11
6.05019677165
21
13.5172835827
0
LINE
5
151
100
AcDbEntity
8
vector
6
ByLayer
62
256
370
-1
100
AcDbLine
10
6.05019677165
20
13.5172835827
11
6.07559055118
21
13.4988580315
0
LINE
5
152
100
AcDbEntity
8
vector
6
ByLayer
62
256
370
-1
100
AcDbLine
10
6.07559055118
20
13.4988580315
11
6.09846452756
21
13.4773624409
0
LINE
5
153
100
AcDbEntity
8
vector
6
ByLayer
62
256
370
-1
100
AcDbLine
10
6.09846452756
20
13.4773624409
11
6.11846452756
21
13.4531491339
0
LINE
5
154
100
AcDbEntity
8
vector
6
ByLayer
62
256
370
-1
100
AcDbLine
10
6.11846452756
20
13.4531491339
11
6.13531488189
21
13.4266535827
0
LINE
5
155
100
AcDbEntity
8
vector
6
ByLayer
62
256
370
-1
100
AcDbLine
10
6.13531488189
20
13.4266535827
11
6.14866141732
21
13.3982680315
0
LINE
5
156
100
AcDbEntity
8
vector
6
ByLayer
62
256
370
-1
100
AcDbLine
10
6.14866141732
20
13.3982680315
11
6.15838574803
21
13.3683857874
0
LINE
5
157
100
AcDbEntity
8
vector
6
ByLayer
62
256
370
-1
100
AcDbLine
10
6.15838574803
20
13.3683857874
11
6.1642519685
21
13.3375591339
0
LINE
5
158
100
AcDbEntity
8
vector
6
ByLayer
62
256
370
-1
100
AcDbLine
10
6.1642519685
20
13.3375591339
11
6.16622043307
21
13.3062202362
0
LINE
5
159
100
AcDbEntity
8
vector
6
ByLayer
62
256
370
-1
100
AcDbLine
10
4.90588299213
20
10.8581627953
11
4.90588299213
21
12.4329654724
0
LINE
5
15A
100
AcDbEntity
8
vector
6
ByLayer
62
256
370
-1
100
AcDbLine
10
4.90588299213
20
12.4329654724
11
5.69328456693
21
12.4329654724
0
LINE
5
15B
100
AcDbEntity
8
vector
6
ByLayer
62
256
370
-1
100
AcDbLine
10
5.69328456693
20
12.4329654724
11
5.69328456693
21
11.8886738976
0
LINE
5
15C
100
AcDbEntity
8
vector
6
ByLayer
62
256
370
-1
100
AcDbLine
10
5.69328456693
20
11.8886738976
11
5.20706409449
21
11.8886738976
0
LINE
5
15D
100
AcDbEntity
8
vector
6
ByLayer
62
256
370
-1
100
AcDbLine
10
5.20706409449
20
11.8886738976
11
5.20706409449
21
11.4024538976
0
LINE
5
15E
100
AcDbEntity
8
vector
6
ByLayer
62
256
370
-1
100
AcDbLine
10
5.20706409449
20
11.4024538976
11
5.69328456693
21
11.4024538976
0
LINE
5
15F
100
AcDbEntity
8
vector
6
ByLayer
62
256
370
-1
100
AcDbLine
10
5.69328456693
20
11.4024538976
11
5.69328456693
21
10.8581627953
0
LINE
5
160
100
AcDbEntity
8
vector
6
ByLayer
62
256
370
-1
100
AcDbLine
10
5.69328456693
20
10.8581627953
11
4.90588299213
21
10.8581627953
0
LINE
5
161
100
AcDbEntity
8
vector
6
ByLayer
62
256
370
-1
100
AcDbLine
10
5.24159165354
20
11.0619027953
11
5.24202472441
21
11.0691861417
0
LINE
5
162
100
AcDbEntity
8
vector
6
ByLayer
62
256
370
-1
100
AcDbLine
10
5.24202472441
20
11.0691861417
11
5.24340267717
21
11.0763116929
0
LINE
5
163
100
AcDbEntity
8
vector
6
ByLayer
62
256
370
-1
100
AcDbLine
10
5.24340267717
20
11.0763116929
11
5.24564677165
21
11.0832405512
0
LINE
5
164
100
AcDbEntity
8
vector
6
ByLayer
62
256
370
-1
100
AcDbLine
10
5.24564677165
20
11.0832405512
11
5.24875700787
21
11.089855
0
LINE
5
165
100
AcDbEntity
8
vector
6
ByLayer
62
256
370
-1
100
AcDbLine
10
5.24875700787
20
11.089855
11
5.25265464567
21
11.0959972441
0
LINE
5
166
100
AcDbEntity
8
vector
6
ByLayer
62
256
370
-1
100
AcDbLine
10
5.25265464567
20
11.0959972441
11
5.25730031496
21
11.1015872441
0
LINE
5
167
100
AcDbEntity
8
vector
6
ByLayer
62
256
370
-1
100
AcDbLine
10
5.25730031496
20
11.1015872441
11
5.26261527559
21
11.1065872441
0
LINE
5
168
100
AcDbEntity
8
vector
6
ByLayer
62
256
370
-1
100
AcDbLine
10
5.26261527559
20
11.1065872441
11
5.2685207874
21
11.1108783465
0
LINE
5
169
100
AcDbEntity
8
vector
6
ByLayer
62
256
370
-1
100
AcDbLine
10
5.2685207874
20
11.1108783465
11
5.27489870079
21
11.1143827953
0
LINE
5
16A
100
AcDbEntity
8
vector
6
ByLayer
62
256
370
-1
100
AcDbLine
10
5.27489870079
20
11.1143827953
11
5.2816703937
21
11.1170594488
0
LINE
5
16B
100
AcDbEntity
8
vector
6
ByLayer
62
256
370
-1
100
AcDbLine
10
5.2816703937
20
11.1170594488
11
5.2887176378
21
11.1188705512
0
LINE
5
16C
100
AcDbEntity
8
vector
6
ByLayer
62
256
370
-1
100
AcDbLine
10
5.2887176378
20
11.1188705512
11
5.29592232283
21
11.1197816929
0
LINE
5
16D
100
AcDbEntity
8
vector
6
ByLayer
62
256
370
-1
100
AcDbLine
10
5.29592232283
20
11.1197761417
11
5.30324519685
21
11.1197761417
0
LINE
5
16E
100
AcDbEntity
8
vector
6
ByLayer
62
256
370
-1
100
AcDbLine
10
5.30324519685
20
11.1197761417
11
5.31044992126
21
11.118865
0
LINE
5
16F
100
AcDbEntity
8
vector
6
ByLayer
62
256
370
-1
100
AcDbLine
10
5.31044992126
20
11.1188705512
11
5.31749716535
21
11.1170594488
0
LINE
5
170
100
AcDbEntity
8
vector
6
ByLayer
62
256
370
-1
100
AcDbLine
10
5.31749716535
20
11.1170594488
11
5.3242688189
21
11.1143827953
0
LINE
5
171
100
AcDbEntity
8
vector
6
ByLayer
62
256
370
-1
100
AcDbLine
10
5.3242688189
20
11.1143827953
11
5.33064677165
21
11.1108783465
0
LINE
5
172
100
AcDbEntity
8
vector
6
ByLayer
62
256
370
-1
100
AcDbLine
10
5.33064677165
20
11.1108783465
11
5.33655228346
21
11.1065872441
0
LINE
5
173
100
AcDbEntity
8
vector
6
ByLayer
62
256
370
-1
100
AcDbLine
10
5.33655228346
20
11.1065872441
11
5.34186724409
21
11.1015872441
0
LINE
5
174
100
AcDbEntity
8
vector
6
ByLayer
62
256
370
-1
100
AcDbLine
10
5.34186724409
20
11.1015872441
11
5.34651291339
21
11.0959972441
0
LINE
5
175
100
AcDbEntity
8
vector
6
ByLayer
62
256
370
-1
100
AcDbLine
10
5.34651291339
20
11.0959972441
11
5.35041051181
21
11.089855
0
LINE
5
176
100
AcDbEntity
8
vector
6
ByLayer
62
256
370
-1
100
AcDbLine
10
5.35041051181
20
11.089855
11
5.3535207874
21
11.0832405512
0
LINE
5
177
100
AcDbEntity
8
vector
6
ByLayer
62
256
370
-1
100
AcDbLine
10
5.3535207874
20
11.0832405512
11
5.35576488189
21
11.0763116929
0
LINE
5
178
100
AcDbEntity
8
vector
6
ByLayer
62
256
370
-1
100
AcDbLine
10
5.35576488189
20
11.0763116929
11
5.35714283465
21
11.0691861417
0
LINE
5
179
100
AcDbEntity
8
vector
6
ByLayer
62
256
370
-1
100
AcDbLine
10
5.35714283465
20
11.0691861417
11
5.35757590551
21
11.0619027953
0
LINE
5
17A
100
AcDbEntity
8
vector
6
ByLayer
62
256
370
-1
100
AcDbLine
10
5.35757590551
20
11.0619027953
11
5.35714283465
21
11.0546194488
0
LINE
5
17B
100
AcDbEntity
8
vector
6
ByLayer
62
256
370
-1
100
AcDbLine
10
5.35714283465
20
11.0546194488
11
5.35576488189
21
11.0474927953
0
LINE
5
17C
100
AcDbEntity
8
vector
6
ByLayer
62
256
370
-1
100
AcDbLine
10
5.35576488189
20
11.0474927953
11
5.3535207874
21
11.0405638976
0
LINE
5
17D
100
AcDbEntity
8
vector
6
ByLayer
62
256
370
-1
100
AcDbLine
10
5.3535207874
20
11.0405638976
11
5.35041051181
21
11.0339494488
0
LINE
5
17E
100
AcDbEntity
8
vector
6
ByLayer
62
256
370
-1
100
AcDbLine
10
5.35041051181
20
11.0339494488
11
5.34651291339
21
11.0278083465
0
LINE
5
17F
100
AcDbEntity
8
vector
6
ByLayer
62
256
370
-1
100
AcDbLine
10
5.34651291339
20
11.0278083465
11
5.34186724409
21
11.0222172441
0
LINE
5
180
100
AcDbEntity
8
vector
6
ByLayer
62
256
370
-1
100
AcDbLine
10
5.34186724409
20
11.0222172441
11
5.33655228346
21
11.0172172441
0
LINE
5
181
100
AcDbEntity
8
vector
6
ByLayer
62
256
370
-1
100
AcDbLine
10
5.33655228346
20
11.0172172441
11
5.33064677165
21
11.0129261417
0
LINE
5
182
100
AcDbEntity
8
vector
6
ByLayer
62
256
370
-1
100
AcDbLine
10
5.33064677165
20
11.0129261417
11
5.3242688189
21
11.0094216929
0
LINE
5
183
100
AcDbEntity
8
vector
6
ByLayer
62
256
370
-1
100
AcDbLine
10
5.3242688189
20
11.0094216929
11
5.31749716535
21
11.006745
0
LINE
5
184
100
AcDbEntity
8
vector
6
ByLayer
62
256
370
-1
100
AcDbLine
10
5.31749716535
20
11.006745
11
5.31044992126
21
11.0049338976
0
LINE
5
185
100
AcDbEntity
8
vector
6
ByLayer
62
256
370
-1
100
AcDbLine
10
5.31044992126
20
11.0049338976
11
5.30324519685
21
11.0040227953
0
LINE
5
186
100
AcDbEntity
8
vector
6
ByLayer
62
256
370
-1
100
AcDbLine
10
5.30324519685
20
11.0040283465
11
5.29592232283
21
11.0040283465
0
LINE
5
187
100
AcDbEntity
8
vector
6
ByLayer
62
256
370
-1
100
AcDbLine
10
5.29592232283
20
11.0040283465
11
5.2887176378
21
11.0049394488
0
LINE
5
188
100
AcDbEntity
8
vector
6
ByLayer
62
256
370
-1
100
AcDbLine
10
5.2887176378
20
11.0049338976
11
5.2816703937
21
11.006745
0
LINE
5
189
100
AcDbEntity
8
vector
6
ByLayer
62
256
370
-1
100
AcDbLine
10
5.2816703937
20
11.006745
11
5.27489870079
21
11.0094216929
0
LINE
5
18A
100
AcDbEntity
8
vector
6
ByLayer
62
256
370
-1
100
AcDbLine
10
5.27489870079
20
11.0094216929
11
5.2685207874
21
11.0129261417
0
LINE
5
18B
100
AcDbEntity
8
vector
6
ByLayer
62
256
370
-1
100
AcDbLine
10
5.2685207874
20
11.0129261417
11
5.26261527559
21
11.0172172441
0
LINE
5
18C
100
AcDbEntity
8
vector
6
ByLayer
62
256
370
-1
100
AcDbLine
10
5.26261527559
20
11.0172172441
11
5.25730031496
21
11.0222172441
0
LINE
5
18D
100
AcDbEntity
8
vector
6
ByLayer
62
256
370
-1
100
AcDbLine
10
5.25730031496
20
11.0222172441
11
5.25265464567
21
11.0278083465
0
LINE
5
18E
100
AcDbEntity
8
vector
6
ByLayer
62
256
370
-1
100
AcDbLine
10
5.25265464567
20
11.0278083465
11
5.24875700787
21
11.0339494488
0
LINE
5
18F
100
AcDbEntity
8
vector
6
ByLayer
62
256
370
-1
100
AcDbLine
10
5.24875700787
20
11.0339494488
11
5.24564677165
21
11.0405638976
0
LINE
5
190
100
AcDbEntity
8
vector
6
ByLayer
62
256
370
-1
100
AcDbLine
10
5.24564677165
20
11.0405638976
11
5.24340267717
21
11.0474927953
0
LINE
5
191
100
AcDbEntity
8
vector
6
ByLayer
62
256
370
-1
100
AcDbLine
10
5.24340267717
20
11.0474927953
11
5.24202472441
21
11.0546194488
0
LINE
5
192
100
AcDbEntity
8
vector
6
ByLayer
62
256
370
-1
100
AcDbLine
10
5.24202472441
20
11.0546194488
11
5.24159165354
21
11.0619027953
0
LINE
5
193
100
AcDbEntity
8
vector
6
ByLayer
62
256
370
-1
100
AcDbLine
10
5.24159165354
20
12.2292252362
11
5.24202472441
21
12.2365087795
0
LINE
5
194
100
AcDbEntity
8
vector
6
ByLayer
62
256
370
-1
100
AcDbLine
10
5.24202472441
20
12.2365087795
11
5.24340267717
21
12.243634685
0
LINE
5
195
100
AcDbEntity
8
vector
6
ByLayer
62
256
370
-1
100
AcDbLine
10
5.24340267717
20
12.243634685
11
5.24564677165
21
12.2505638976
0
LINE
5
196
100
AcDbEntity
8
vector
6
ByLayer
62
256
370
-1
100
AcDbLine
10
5.24564677165
20
12.2505638976
11
5.24875700787
21
12.2571780315
0
LINE
5
197
100
AcDbEntity
8
vector
6
ByLayer
62
256
370
-1
100
AcDbLine
10
5.24875700787
20
12.2571780315
11
5.25265464567
21
12.2633198031
0
LINE
5
198
100
AcDbEntity
8
vector
6
ByLayer
62
256
370
-1
100
AcDbLine
10
5.25265464567
20
12.2633198031
11
5.25730031496
21
12.2689103543
0
LINE
5
199
100
AcDbEntity
8
vector
6
ByLayer
62
256
370
-1
100
AcDbLine
10
5.25730031496
20
12.2689103543
11
5.26261527559
21
12.2739103543
0
LINE
5
19A
100
AcDbEntity
8
vector
6
ByLayer
62
256
370
-1
100
AcDbLine
10
5.26261527559
20
12.2739103543
11
5.2685207874
21
12.2782016929
0
LINE
5
19B
100
AcDbEntity
8
vector
6
ByLayer
62
256
370
-1
100
AcDbLine
10
5.2685207874
20
12.2782016929
11
5.27489870079
21
12.2817055512
0
LINE
5
19C
100
AcDbEntity
8
vector
6
ByLayer
62
256
370
-1
100
AcDbLine
10
5.27489870079
20
12.2817055512
11
5.2816703937
21
12.2843827953
0
LINE
5
19D
100
AcDbEntity
8
vector
6
ByLayer
62
256
370
-1
100
AcDbLine
10
5.2816703937
20
12.2843827953
11
5.2887176378
21
12.2861937795
0
LINE
5
19E
100
AcDbEntity
8
vector
6
ByLayer
62
256
370
-1
100
AcDbLine
10
5.2887176378
20
12.2861937795
11
5.29592232283
21
12.2870993307
0
LINE
5
19F
100
AcDbEntity
8
vector
6
ByLayer
62
256
370
-1
100
AcDbLine
10
5.29592232283
20
12.287099252
11
5.30324519685
21
12.287099252
0
LINE
5
1A0
100
AcDbEntity
8
vector
6
ByLayer
62
256
370
-1
100
AcDbLine
10
5.30324519685
20
12.287099252
11
5.31044992126
21
12.2861936614
0
LINE
5
1A1
100
AcDbEntity
8
vector
6
ByLayer
62
256
370
-1
100
AcDbLine
10
5.31044992126
20
12.2861937795
11
5.31749716535
21
12.2843827953
0
LINE
5
1A2
100
AcDbEntity
8
vector
6
ByLayer
62
256
370
-1
100
AcDbLine
10
5.31749716535
20
12.2843827953
11
5.3242688189
21
12.2817055512
0
LINE
5
1A3
100
AcDbEntity
8
vector
6
ByLayer
62
256
370
-1
100
AcDbLine
10
5.3242688189
20
12.2817055512
11
5.33064677165
21
12.2782016929
0
LINE
5
1A4
100
AcDbEntity
8
vector
6
ByLayer
62
256
370
-1
100
AcDbLine
10
5.33064677165
20
12.2782016929
11
5.33655228346
21
12.2739103543
0
LINE
5
1A5
100
AcDbEntity
8
vector
6
ByLayer
62
256
370
-1
100
AcDbLine
10
5.33655228346
20
12.2739103543
11
5.34186724409
21
12.2689103543
0
LINE
5
1A6
100
AcDbEntity
8
vector
6
ByLayer
62
256
370
-1
100
AcDbLine
10
5.34186724409
20
12.2689103543
11
5.34651291339
21
12.2633198031
0
LINE
5
1A7
100
AcDbEntity
8
vector
6
ByLayer
62
256
370
-1
100
AcDbLine
10
5.34651291339
20
12.2633198031
11
5.35041051181
21
12.2571780315
0
LINE
5
1A8
100
AcDbEntity
8
vector
6
ByLayer
62
256
370
-1
100
AcDbLine
10
5.35041051181
20
12.2571780315
11
5.3535207874
21
12.2505638976
0
LINE
5
1A9
100
AcDbEntity
8
vector
6
ByLayer
62
256
370
-1
100
AcDbLine
10
5.3535207874
20
12.2505638976
11
5.35576488189
21
12.243634685
0
LINE
5
1AA
100
AcDbEntity
8
vector
6
ByLayer
62
256
370
-1
100
AcDbLine
10
5.35576488189
20
12.243634685
11
5.35714283465
21
12.2365087795
0
LINE
5
1AB
100
AcDbEntity
8
vector
6
ByLayer
62
256
370
-1
100
AcDbLine
10
5.35714283465
20
12.2365087795
11
5.35757590551
21
12.2292252362
0
LINE
5
1AC
100
AcDbEntity
8
vector
6
ByLayer
62
256
370
-1
100
AcDbLine
10
5.35757590551
20
12.2292252362
11
5.35714283465
21
12.2219416929
0
LINE
5
1AD
100
AcDbEntity
8
vector
6
ByLayer
62
256
370
-1
100
AcDbLine
10
5.35714283465
20
12.2219416929
11
5.35576488189
21
12.2148161417
0
LINE
5
1AE
100
AcDbEntity
8
vector
6
ByLayer
62
256
370
-1
100
AcDbLine
10
5.35576488189
20
12.2148161417
11
5.3535207874
21
12.2078872441
0
LINE
5
1AF
100
AcDbEntity
8
vector
6
ByLayer
62
256
370
-1
100
AcDbLine
10
5.3535207874
20
12.2078872441
11
5.35041051181
21
12.2012727953
0
LINE
5
1B0
100
AcDbEntity
8
vector
6
ByLayer
62
256
370
-1
100
AcDbLine
10
5.35041051181
20
12.2012727953
11
5.34651291339
21
12.1951305512
0
LINE
5
1B1
100
AcDbEntity
8
vector
6
ByLayer
62
256
370
-1
100
AcDbLine
10
5.34651291339
20
12.1951305512
11
5.34186724409
21
12.1895405512
0
LINE
5
1B2
100
AcDbEntity
8
vector
6
ByLayer
62
256
370
-1
100
AcDbLine
10
5.34186724409
20
12.1895405512
11
5.33655228346
21
12.1845405512
0
LINE
5
1B3
100
AcDbEntity
8
vector
6
ByLayer
62
256
370
-1
100
AcDbLine
10
5.33655228346
20
12.1845405512
11
5.33064677165
21
12.1802483465
0
LINE
5
1B4
100
AcDbEntity
8
vector
6
ByLayer
62
256
370
-1
100
AcDbLine
10
5.33064677165
20
12.1802483465
11
5.3242688189
21
12.176745
0
LINE
5
1B5
100
AcDbEntity
8
vector
6
ByLayer
62
256
370
-1
100
AcDbLine
10
5.3242688189
20
12.176745
11
5.31749716535
21
12.1740683465
0
LINE
5
1B6
100
AcDbEntity
8
vector
6
ByLayer
62
256
370
-1
100
AcDbLine
10
5.31749716535
20
12.1740683465
11
5.31044992126
21
12.1722572441
0
LINE
5
1B7
100
AcDbEntity
8
vector
6
ByLayer
62
256
370
-1
100
AcDbLine
10
5.31044992126
20
12.1722572441
11
5.30324519685
21
12.1713461417
0
LINE
5
1B8
100
AcDbEntity
8
vector
6
ByLayer
62
256
370
-1
100
AcDbLine
10
5.30324519685
20
12.1713516929
11
5.29592232283
21
12.1713516929
0
LINE
5
1B9
100
AcDbEntity
8
vector
6
ByLayer
62
256
370
-1
100
AcDbLine
10
5.29592232283
20
12.1713516929
11
5.2887176378
21
12.1722627953
0
LINE
5
1BA
100
AcDbEntity
8
vector
6
ByLayer
62
256
370
-1
100
AcDbLine
10
5.2887176378
20
12.1722572441
11
5.2816703937
21
12.1740683465
0
LINE
5
1BB
100
AcDbEntity
8
vector
6
ByLayer
62
256
370
-1
100
AcDbLine
10
5.2816703937
20
12.1740683465
11
5.27489870079
21
12.176745
0
LINE
5
1BC
100
AcDbEntity
8
vector
6
ByLayer
62
256
370
-1
100
AcDbLine
10
5.27489870079
20
12.176745
11
5.2685207874
21
12.1802483465
0
LINE
5
1BD
100
AcDbEntity
8
vector
6
ByLayer
62
256
370
-1
100
AcDbLine
10
5.2685207874
20
12.1802483465
11
5.26261527559
21
12.1845405512
0
LINE
5
1BE
100
AcDbEntity
8
vector
6
ByLayer
62
256
370
-1
100
AcDbLine
10
5.26261527559
20
12.1845405512
11
5.25730031496
21
12.1895405512
0
LINE
5
1BF
100
AcDbEntity
8
vector
6
ByLayer
62
256
370
-1
100
AcDbLine
10
5.25730031496
20
12.1895405512
11
5.25265464567
21
12.1951305512
0
LINE
5
1C0
100
AcDbEntity
8
vector
6
ByLayer
62
256
370
-1
100
AcDbLine
10
5.25265464567
20
12.1951305512
11
5.24875700787
21
12.2012727953
0
LINE
5
1C1
100
AcDbEntity
8
vector
6
ByLayer
62
256
370
-1
100
AcDbLine
10
5.24875700787
20
12.2012727953
11
5.24564677165
21
12.2078872441
0
LINE
5
1C2
100
AcDbEntity
8
vector
6
ByLayer
62
256
370
-1
100
AcDbLine
10
5.24564677165
20
12.2078872441
11
5.24340267717
21
12.2148161417
0
LINE
5
1C3
100
AcDbEntity
8
vector
6
ByLayer
62
256
370
-1
100
AcDbLine
10
5.24340267717
20
12.2148161417
11
5.24202472441
21
12.2219416929
0
LINE
5
1C4
100
AcDbEntity
8
vector
6
ByLayer
62
256
370
-1
100
AcDbLine
10
5.24202472441
20
12.2219416929
11
5.24159165354
21
12.2292252362
0
LINE
5
1C5
100
AcDbEntity
8
vector
6
ByLayer
62
256
370
-1
100
AcDbLine
10
3.85184318898
20
10.8581627953
11
3.85184318898
21
12.4329654724
0
LINE
5
1C6
100
AcDbEntity
8
vector
6
ByLayer
62
256
370
-1
100
AcDbLine
10
3.85184318898
20
12.4329654724
11
4.63924476378
21
12.4329654724
0
LINE
5
1C7
100
AcDbEntity
8
vector
6
ByLayer
62
256
370
-1
100
AcDbLine
10
4.63924476378
20
12.4329654724
11
4.63924476378
21
11.8886738976
0
LINE
5
1C8
100
AcDbEntity
8
vector
6
ByLayer
62
256
370
-1
100
AcDbLine
10
4.63924476378
20
11.8886738976
11
4.15302429134
21
11.8886738976
0
LINE
5
1C9
100
AcDbEntity
8
vector
6
ByLayer
62
256
370
-1
100
AcDbLine
10
4.15302429134
20
11.8886738976
11
4.15302429134
21
11.4024538976
0
LINE
5
1CA
100
AcDbEntity
8
vector
6
ByLayer
62
256
370
-1
100
AcDbLine
10
4.15302429134
20
11.4024538976
11
4.63924476378
21
11.4024538976
0
LINE
5
1CB
100
AcDbEntity
8
vector
6
ByLayer
62
256
370
-1
100
AcDbLine
10
4.63924476378
20
11.4024538976
11
4.63924476378
21
10.8581627953
0
LINE
5
1CC
100
AcDbEntity
8
vector
6
ByLayer
62
256
370
-1
100
AcDbLine
10
4.63924476378
20
10.8581627953
11
3.85184318898
21
10.8581627953
0
LINE
5
1CD
100
AcDbEntity
8
vector
6
ByLayer
62
256
370
-1
100
AcDbLine
10
4.18755185039
20
11.0619027953
11
4.18798492126
21
11.0691861417
0
LINE
5
1CE
100
AcDbEntity
8
vector
6
ByLayer
62
256
370
-1
100
AcDbLine
10
4.18798492126
20
11.0691861417
11
4.18936287402
21
11.0763116929
0
LINE
5
1CF
100
AcDbEntity
8
vector
6
ByLayer
62
256
370
-1
100
AcDbLine
10
4.18936287402
20
11.0763116929
11
4.1916069685
21
11.0832405512
0
LINE
5
1D0
100
AcDbEntity
8
vector
6
ByLayer
62
256
370
-1
100
AcDbLine
10
4.1916069685
20
11.0832405512
11
4.19471720472
21
11.089855
0
LINE
5
1D1
100
AcDbEntity
8
vector
6
ByLayer
62
256
370
-1
100
AcDbLine
10
4.19471720472
20
11.089855
11
4.19861484252
21
11.0959972441
0
LINE
5
1D2
100
AcDbEntity
8
vector
6
ByLayer
62
256
370
-1
100
AcDbLine
10
4.19861484252
20
11.0959972441
11
4.20326051181
21
11.1015872441
0
LINE
5
1D3
100
AcDbEntity
8
vector
6
ByLayer
62
256
370
-1
100
AcDbLine
10
4.20326051181
20
11.1015872441
11
4.20857547244
21
11.1065872441
0
LINE
5
1D4
100
AcDbEntity
8
vector
6
ByLayer
62
256
370
-1
100
AcDbLine
10
4.20857547244
20
11.1065872441
11
4.21448098425
21
11.1108783465
0
LINE
5
1D5
100
AcDbEntity
8
vector
6
ByLayer
62
256
370
-1
100
AcDbLine
10
4.21448098425
20
11.1108783465
11
4.22085893701
21
11.1143827953
0
LINE
5
1D6
100
AcDbEntity
8
vector
6
ByLayer
62
256
370
-1
100
AcDbLine
10
4.22085893701
20
11.1143827953
11
4.22763059055
21
11.1170594488
0
LINE
5
1D7
100
AcDbEntity
8
vector
6
ByLayer
62
256
370
-1
100
AcDbLine
10
4.22763059055
20
11.1170594488
11
4.23467783465
21
11.1188705512
0
LINE
5
1D8
100
AcDbEntity
8
vector
6
ByLayer
62
256
370
-1
100
AcDbLine
10
4.23467783465
20
11.1188705512
11
4.24188255906
21
11.1197816929
0
LINE
5
1D9
100
AcDbEntity
8
vector
6
ByLayer
62
256
370
-1
100
AcDbLine
10
4.24188255906
20
11.1197761417
11
4.2492053937
21
11.1197761417
0
LINE
5
1DA
100
AcDbEntity
8
vector
6
ByLayer
62
256
370
-1
100
AcDbLine
10
4.2492053937
20
11.1197761417
11
4.25641011811
21
11.118865
0
LINE
5
1DB
100
AcDbEntity
8
vector
6
ByLayer
62
256
370
-1
100
AcDbLine
10
4.25641011811
20
11.1188705512
11
4.2634573622
21
11.1170594488
0
LINE
5
1DC
100
AcDbEntity
8
vector
6
ByLayer
62
256
370
-1
100
AcDbLine
10
4.2634573622
20
11.1170594488
11
4.27022901575
21
11.1143827953
0
LINE
5
1DD
100
AcDbEntity
8
vector
6
ByLayer
62
256
370
-1
100
AcDbLine
10
4.27022901575
20
11.1143827953
11
4.2766069685
21
11.1108783465
0
LINE
5
1DE
100
AcDbEntity
8
vector
6
ByLayer
62
256
370
-1
100
AcDbLine
10
4.2766069685
20
11.1108783465
11
4.28251248031
21
11.1065872441
0
LINE
5
1DF
100
AcDbEntity
8
vector
6
ByLayer
62
256
370
-1
100
AcDbLine
10
4.28251248031
20
11.1065872441
11
4.28782744094
21
11.1015872441
0
LINE
5
1E0
100
AcDbEntity
8
vector
6
ByLayer
62
256
370
-1
100
AcDbLine
10
4.28782744094
20
11.1015872441
11
4.29247311024
21
11.0959972441
0
LINE
5
1E1
100
AcDbEntity
8
vector
6
ByLayer
62
256
370
-1
100
AcDbLine
10
4.29247311024
20
11.0959972441
11
4.29637074803
21
11.089855
0
LINE
5
1E2
100
AcDbEntity
8
vector
6
ByLayer
62
256
370
-1
100
AcDbLine
10
4.29637074803
20
11.089855
11
4.29948098425
21
11.0832405512
0
LINE
5
1E3
100
AcDbEntity
8
vector
6
ByLayer
62
256
370
-1
100
AcDbLine
10
4.29948098425
20
11.0832405512
11
4.30172507874
21
11.0763116929
0
LINE
5
1E4
100
AcDbEntity
8
vector
6
ByLayer
62
256
370
-1
100
AcDbLine
10
4.30172507874
20
11.0763116929
11
4.3031030315
21
11.0691861417
0
LINE
5
1E5
100
AcDbEntity
8
vector
6
ByLayer
62
256
370
-1
100
AcDbLine
10
4.3031030315
20
11.0691861417
11
4.30353610236
21
11.0619027953
0
LINE
5
1E6
100
AcDbEntity
8
vector
6
ByLayer
62
256
370
-1
100
AcDbLine
10
4.30353610236
20
11.0619027953
11
4.3031030315
21
11.0546194488
0
LINE
5
1E7
100
AcDbEntity
8
vector
6
ByLayer
62
256
370
-1
100
AcDbLine
10
4.3031030315
20
11.0546194488
11
4.30172507874
21
11.0474927953
0
LINE
5
1E8
100
AcDbEntity
8
vector
6
ByLayer
62
256
370
-1
100
AcDbLine
10
4.30172507874
20
11.0474927953
11
4.29948098425
21
11.0405638976
0
LINE
5
1E9
100
AcDbEntity
8
vector
6
ByLayer
62
256
370
-1
100
AcDbLine
10
4.29948098425
20
11.0405638976
11
4.29637074803
21
11.0339494488
0
LINE
5
1EA
100
AcDbEntity
8
vector
6
ByLayer
62
256
370
-1
100
AcDbLine
10
4.29637074803
20
11.0339494488
11
4.29247311024
21
11.0278083465
0
LINE
5
1EB
100
AcDbEntity
8
vector
6
ByLayer
62
256
370
-1
100
AcDbLine
10
4.29247311024
20
11.0278083465
11
4.28782744094
21
11.0222172441
0
LINE
5
1EC
100
AcDbEntity
8
vector
6
ByLayer
62
256
370
-1
100
AcDbLine
10
4.28782744094
20
11.0222172441
11
4.28251248031
21
11.0172172441
0
LINE
5
1ED
100
AcDbEntity
8
vector
6
ByLayer
62
256
370
-1
100
AcDbLine
10
4.28251248031
20
11.0172172441
11
4.2766069685
21
11.0129261417
0
LINE
5
1EE
100
AcDbEntity
8
vector
6
ByLayer
62
256
370
-1
100
AcDbLine
10
4.2766069685
20
11.0129261417
11
4.27022901575
21
11.0094216929
0
LINE
5
1EF
100
AcDbEntity
8
vector
6
ByLayer
62
256
370
-1
100
AcDbLine
10
4.27022901575
20
11.0094216929
11
4.2634573622
21
11.006745
0
LINE
5
1F0
100
AcDbEntity
8
vector
6
ByLayer
62
256
370
-1
100
AcDbLine
10
4.2634573622
20
11.006745
11
4.25641011811
21
11.0049338976
0
LINE
5
1F1
100
AcDbEntity
8
vector
6
ByLayer
62
256
370
-1
100
AcDbLine
10
4.25641011811
20
11.0049338976
11
4.2492053937
21
11.0040227953
0
LINE
5
1F2
100
AcDbEntity
8
vector
6
ByLayer
62
256
370
-1
100
AcDbLine
10
4.2492053937
20
11.0040283465
11
4.24188255906
21
11.0040283465
0
LINE
5
1F3
100
AcDbEntity
8
vector
6
ByLayer
62
256
370
-1
100
AcDbLine
10
4.24188255906
20
11.0040283465
11
4.23467783465
21
11.0049394488
0
LINE
5
1F4
100
AcDbEntity
8
vector
6
ByLayer
62
256
370
-1
100
AcDbLine
10
4.23467783465
20
11.0049338976
11
4.22763059055
21
11.006745
0
LINE
5
1F5
100
AcDbEntity
8
vector
6
ByLayer
62
256
370
-1
100
AcDbLine
10
4.22763059055
20
11.006745
11
4.22085893701
21
11.0094216929
0
LINE
5
1F6
100
AcDbEntity
8
vector
6
ByLayer
62
256
370
-1
100
AcDbLine
10
4.22085893701
20
11.0094216929
11
4.21448098425
21
11.0129261417
0
LINE
5
1F7
100
AcDbEntity
8
vector
6
ByLayer
62
256
370
-1
100
AcDbLine
10
4.21448098425
20
11.0129261417
11
4.20857547244
21
11.0172172441
0
LINE
5
1F8
100
AcDbEntity
8
vector
6
ByLayer
62
256
370
-1
100
AcDbLine
10
4.20857547244
20
11.0172172441
11
4.20326051181
21
11.0222172441
0
LINE
5
1F9
100
AcDbEntity
8
vector
6
ByLayer
62
256
370
-1
100
AcDbLine
10
4.20326051181
20
11.0222172441
11
4.19861484252
21
11.0278083465
0
LINE
5
1FA
100
AcDbEntity
8
vector
6
ByLayer
62
256
370
-1
100
AcDbLine
10
4.19861484252
20
11.0278083465
11
4.19471720472
21
11.0339494488
0
LINE
5
1FB
100
AcDbEntity
8
vector
6
ByLayer
62
256
370
-1
100
AcDbLine
10
4.19471720472
20
11.0339494488
11
4.1916069685
21
11.0405638976
0
LINE
5
1FC
100
AcDbEntity
8
vector
6
ByLayer
62
256
370
-1
100
AcDbLine
10
4.1916069685
20
11.0405638976
11
4.18936287402
21
11.0474927953
0
LINE
5
1FD
100
AcDbEntity
8
vector
6
ByLayer
62
256
370
-1
100
AcDbLine
10
4.18936287402
20
11.0474927953
11
4.18798492126
21
11.0546194488
0
LINE
5
1FE
100
AcDbEntity
8
vector
6
ByLayer
62
256
370
-1
100
AcDbLine
10
4.18798492126
20
11.0546194488
11
4.18755185039
21
11.0619027953
0
LINE
5
1FF
100
AcDbEntity
8
vector
6
ByLayer
62
256
370
-1
100
AcDbLine
10
4.18755185039
20
12.2292252362
11
4.18798492126
21
12.2365087795
0
LINE
5
200
100
AcDbEntity
8
vector
6
ByLayer
62
256
370
-1
100
AcDbLine
10
4.18798492126
20
12.2365087795
11
4.18936287402
21
12.243634685
0
LINE
5
201
100
AcDbEntity
8
vector
6
ByLayer
62
256
370
-1
100
AcDbLine
10
4.18936287402
20
12.243634685
11
4.1916069685
21
12.2505638976
0
LINE
5
202
100
AcDbEntity
8
vector
6
ByLayer
62
256
370
-1
100
AcDbLine
10
4.1916069685
20
12.2505638976
11
4.19471720472
21
12.2571780315
0
LINE
5
203
100
AcDbEntity
8
vector
6
ByLayer
62
256
370
-1
100
AcDbLine
10
4.19471720472
20
12.2571780315
11
4.19861484252
21
12.2633198031
0
LINE
5
204
100
AcDbEntity
8
vector
6
ByLayer
62
256
370
-1
100
AcDbLine
10
4.19861484252
20
12.2633198031
11
4.20326051181
21
12.2689103543
0
LINE
5
205
100
AcDbEntity
8
vector
6
ByLayer
62
256
370
-1
100
AcDbLine
10
4.20326051181
20
12.2689103543
11
4.20857547244
21
12.2739103543
0
LINE
5
206
100
AcDbEntity
8
vector
6
ByLayer
62
256
370
-1
100
AcDbLine
10
4.20857547244
20
12.2739103543
11
4.21448098425
21
12.2782016929
0
LINE
5
207
100
AcDbEntity
8
vector
6
ByLayer
62
256
370
-1
100
AcDbLine
10
4.21448098425
20
12.2782016929
11
4.22085893701
21
12.2817055512
0
LINE
5
208
100
AcDbEntity
8
vector
6
ByLayer
62
256
370
-1
100
AcDbLine
10
4.22085893701
20
12.2817055512
11
4.22763059055
21
12.2843827953
0
LINE
5
209
100
AcDbEntity
8
vector
6
ByLayer
62
256
370
-1
100
AcDbLine
10
4.22763059055
20
12.2843827953
11
4.23467783465
21
12.2861937795
0
LINE
5
20A
100
AcDbEntity
8
vector
6
ByLayer
62
256
370
-1
100
AcDbLine
10
4.23467783465
20
12.2861937795
11
4.24188255906
21
12.2870993307
0
LINE
5
20B
100
AcDbEntity
8
vector
6
ByLayer
62
256
370
-1
100
AcDbLine
10
4.24188255906
20
12.287099252
11
4.2492053937
21
12.287099252
0
LINE
5
20C
100
AcDbEntity
8
vector
6
ByLayer
62
256
370
-1
100
AcDbLine
10
4.2492053937
20
12.287099252
11
4.25641011811
21
12.2861936614
0
LINE
5
20D
100
AcDbEntity
8
vector
6
ByLayer
62
256
370
-1
100
AcDbLine
10
4.25641011811
20
12.2861937795
11
4.2634573622
21
12.2843827953
0
LINE
5
20E
100
AcDbEntity
8
vector
6
ByLayer
62
256
370
-1
100
AcDbLine
10
4.2634573622
20
12.2843827953
11
4.27022901575
21
12.2817055512
0
LINE
5
20F
100
AcDbEntity
8
vector
6
ByLayer
62
256
370
-1
100
AcDbLine
10
4.27022901575
20
12.2817055512
11
4.2766069685
21
12.2782016929
0
LINE
5
210
100
AcDbEntity
8
vector
6
ByLayer
62
256
370
-1
100
AcDbLine
10
4.2766069685
20
12.2782016929
11
4.28251248031
21
12.2739103543
0
LINE
5
211
100
AcDbEntity
8
vector
6
ByLayer
62
256
370
-1
100
AcDbLine
10
4.28251248031
20
12.2739103543
11
4.28782744094
21
12.2689103543
0
LINE
5
212
100
AcDbEntity
8
vector
6
ByLayer
62
256
370
-1
100
AcDbLine
10
4.28782744094
20
12.2689103543
11
4.29247311024
21
12.2633198031
0
LINE
5
213
100
AcDbEntity
8
vector
6
ByLayer
62
256
370
-1
100
AcDbLine
10
4.29247311024
20
12.2633198031
11
4.29637074803
21
12.2571780315
0
LINE
5
214
100
AcDbEntity
8
vector
6
ByLayer
62
256
370
-1
100
AcDbLine
10
4.29637074803
20
12.2571780315
11
4.29948098425
21
12.2505638976
0
LINE
5
215
100
AcDbEntity
8
vector
6
ByLayer
62
256
370
-1
100
AcDbLine
10
4.29948098425
20
12.2505638976
11
4.30172507874
21
12.243634685
0
LINE
5
216
100
AcDbEntity
8
vector
6
ByLayer
62
256
370
-1
100
AcDbLine
10
4.30172507874
20
12.243634685
11
4.3031030315
21
12.2365087795
0
LINE
5
217
100
AcDbEntity
8
vector
6
ByLayer
62
256
370
-1
100
AcDbLine
10
4.3031030315
20
12.2365087795
11
4.30353610236
21
12.2292252362
0
LINE
5
218
100
AcDbEntity
8
vector
6
ByLayer
62
256
370
-1
100
AcDbLine
10
4.30353610236
20
12.2292252362
11
4.3031030315
21
12.2219416929
0
LINE
5
219
100
AcDbEntity
8
vector
6
ByLayer
62
256
370
-1
100
AcDbLine
10
4.3031030315
20
12.2219416929
11
4.30172507874
21
12.2148161417
0
LINE
5
21A
100
AcDbEntity
8
vector
6
ByLayer
62
256
370
-1
100
AcDbLine
10
4.30172507874
20
12.2148161417
11
4.29948098425
21
12.2078872441
0
LINE
5
21B
100
AcDbEntity
8
vector
6
ByLayer
62
256
370
-1
100
AcDbLine
10
4.29948098425
20
12.2078872441
11
4.29637074803
21
12.2012727953
0
LINE
5
21C
100
AcDbEntity
8
vector
6
ByLayer
62
256
370
-1
100
AcDbLine
10
4.29637074803
20
12.2012727953
11
4.29247311024
21
12.1951305512
0
LINE
5
21D
100
AcDbEntity
8
vector
6
ByLayer
62
256
370
-1
100
AcDbLine
10
4.29247311024
20
12.1951305512
11
4.28782744094
21
12.1895405512
0
LINE
5
21E
100
AcDbEntity
8
vector
6
ByLayer
62
256
370
-1
100
AcDbLine
10
4.28782744094
20
12.1895405512
11
4.28251248031
21
12.1845405512
0
LINE
5
21F
100
AcDbEntity
8
vector
6
ByLayer
62
256
370
-1
100
AcDbLine
10
4.28251248031
20
12.1845405512
11
4.2766069685
21
12.1802483465
0
LINE
5
220
100
AcDbEntity
8
vector
6
ByLayer
62
256
370
-1
100
AcDbLine
10
4.2766069685
20
12.1802483465
11
4.27022901575
21
12.176745
0
LINE
5
221
100
AcDbEntity
8
vector
6
ByLayer
62
256
370
-1
100
AcDbLine
10
4.27022901575
20
12.176745
11
4.2634573622
21
12.1740683465
0
LINE
5
222
100
AcDbEntity
8
vector
6
ByLayer
62
256
370
-1
100
AcDbLine
10
4.2634573622
20
12.1740683465
11
4.25641011811
21
12.1722572441
0
LINE
5
223
100
AcDbEntity
8
vector
6
ByLayer
62
256
370
-1
100
AcDbLine
10
4.25641011811
20
12.1722572441
11
4.2492053937
21
12.1713461417
0
LINE
5
224
100
AcDbEntity
8
vector
6
ByLayer
62
256
370
-1
100
AcDbLine
10
4.2492053937
20
12.1713516929
11
4.24188255906
21
12.1713516929
0
LINE
5
225
100
AcDbEntity
8
vector
6
ByLayer
62
256
370
-1
100
AcDbLine
10
4.24188255906
20
12.1713516929
11
4.23467783465
21
12.1722627953
0
LINE
5
226
100
AcDbEntity
8
vector
6
ByLayer
62
256
370
-1
100
AcDbLine
10
4.23467783465
20
12.1722572441
11
4.22763059055
21
12.1740683465
0
LINE
5
227
100
AcDbEntity
8
vector
6
ByLayer
62
256
370
-1
100
AcDbLine
10
4.22763059055
20
12.1740683465
11
4.22085893701
21
12.176745
0
LINE
5
228
100
AcDbEntity
8
vector
6
ByLayer
62
256
370
-1
100
AcDbLine
10
4.22085893701
20
12.176745
11
4.21448098425
21
12.1802483465
0
LINE
5
229
100
AcDbEntity
8
vector
6
ByLayer
62
256
370
-1
100
AcDbLine
10
4.21448098425
20
12.1802483465
11
4.20857547244
21
12.1845405512
0
LINE
5
22A
100
AcDbEntity
8
vector
6
ByLayer
62
256
370
-1
100
AcDbLine
10
4.20857547244
20
12.1845405512
11
4.20326051181
21
12.1895405512
0
LINE
5
22B
100
AcDbEntity
8
vector
6
ByLayer
62
256
370
-1
100
AcDbLine
10
4.20326051181
20
12.1895405512
11
4.19861484252
21
12.1951305512
0
LINE
5
22C
100
AcDbEntity
8
vector
6
ByLayer
62
256
370
-1
100
AcDbLine
10
4.19861484252
20
12.1951305512
11
4.19471720472
21
12.2012727953
0
LINE
5
22D
100
AcDbEntity
8
vector
6
ByLayer
62
256
370
-1
100
AcDbLine
10
4.19471720472
20
12.2012727953
11
4.1916069685
21
12.2078872441
0
LINE
5
22E
100
AcDbEntity
8
vector
6
ByLayer
62
256
370
-1
100
AcDbLine
10
4.1916069685
20
12.2078872441
11
4.18936287402
21
12.2148161417
0
LINE
5
22F
100
AcDbEntity
8
vector
6
ByLayer
62
256
370
-1
100
AcDbLine
10
4.18936287402
20
12.2148161417
11
4.18798492126
21
12.2219416929
0
LINE
5
230
100
AcDbEntity
8
vector
6
ByLayer
62
256
370
-1
100
AcDbLine
10
4.18798492126
20
12.2219416929
11
4.18755185039
21
12.2292252362
0
LINE
5
231
100
AcDbEntity
8
reference
6
ByLayer
62
256
370
-1
100
AcDbLine
10
3.25
20
10
11
3
21
10
0
LINE
5
232
100
AcDbEntity
8
reference
6
ByLayer
62
256
370
-1
100
AcDbLine
10
3
20
10.25
11
3
21
10
0
ENDSEC
0
SECTION
2
OBJECTS
0
DICTIONARY
5
C
330
0
100
AcDbDictionary
281
1
3
ACAD_GROUP
350
D
0
DICTIONARY
5
D
330
C
100
AcDbDictionary
281
1
0
ENDSEC
0
EOF
