999
dxfrw 0.5.10
0
SECTION
2
HEADER
9
$ACADVER
1
AC1021
9
$HANDSEED
5
20000
9
$DWGCODEPAGE
3
ANSI_1252
9
$INSBASE
10
0
20
0
30
0
9
$EXTMIN
10
-3.77005200787
20
0
30
0
9
$EXTMAX
10
24
20
23
30
0
9
$LIMMIN
10
0
20
0
9
$LIMMAX
10
420
20
297
9
$ORTHOMODE
70
0
9
$LTSCALE
40
1
9
$TEXTSTYLE
7
STANDARD
9
$CLAYER
8
vector
9
$DIMASZ
40
2.5
9
$DIMLFAC
40
1
9
$DIMSCALE
40
1
9
$DIMEXO
40
0.625
9
$DIMEXE
40
1.25
9
$DIMTXT
40
2.5
9
$DIMTSZ
40
0
9
$DIMAUNIT
70
0
9
$DIMADEC
70
0
9
$DIMLUNIT
70
2
9
$DIMSTYLE
2
Standard
9
$DIMGAP
40
0.625
9
$DIMTIH
70
0
9
$LUNITS
70
2
9
$LUPREC
70
4
9
$AUNITS
70
0
9
$AUPREC
70
2
9
$SPLINESEGS
70
8
9
$GRIDMODE
70
1
9
$SNAPSTYLE
70
0
9
$PINSBASE
10
0
20
0
30
0
9
$PLIMMIN
10
0
20
0
9
$PLIMMAX
10
210
20
297
9
$INSUNITS
70
4
9
$PSVPSCALE
40
1
0
ENDSEC
0
SECTION
2
CLASSES
0
ENDSEC
0
SECTION
2
TABLES
0
TABLE
2
VPORT
5
8
330
0
100
AcDbSymbolTable
70
1
0
VPORT
5
31
330
2
100
AcDbSymbolTableRecord
100
AcDbViewportTableRecord
2
*ACTIVE
70
0
10
0
20
0
11
1
21
1
12
5.26780983454
22
3.48884454615
13
0
23
0
14
10
24
10
15
10
25
10
16
0
26
0
36
1
17
0
27
0
37
0
40
8.77392588834
41
1.81102362205
42
50
43
0
44
0
50
0
51
0
71
0
72
100
73
1
74
3
75
0
76
1
77
0
78
0
281
0
65
1
110
0
120
0
130
0
111
1
121
0
131
0
112
0
122
1
132
0
79
0
146
0
348
10020
60
7
61
5
292
1
282
1
141
0
142
0
63
250
421
3358443
0
ENDTAB
0
TABLE
2
LTYPE
5
5
330
0
100
AcDbSymbolTable
70
4
0
LTYPE
5
14
330
5
100
AcDbSymbolTableRecord
100
AcDbLinetypeTableRecord
2
ByBlock
70
0
3

72
65
73
0
40
0
0
LTYPE
5
15
330
5
100
AcDbSymbolTableRecord
100
AcDbLinetypeTableRecord
2
ByLayer
70
0
3

72
65
73
0
40
0
0
LTYPE
5
16
330
5
100
AcDbSymbolTableRecord
100
AcDbLinetypeTableRecord
2
Continuous
70
0
3
Solid line
72
65
73
0
40
0
0
LTYPE
5
32
330
5
100
AcDbSymbolTableRecord
100
AcDbLinetypeTableRecord
2
DOT
70
0
3
Dot . . . . . . . . . . . . . . . . . . . . . .
72
65
73
2
40
6.35
49
0
74
0
49
-6.35
74
0
0
LTYPE
5
33
330
5
100
AcDbSymbolTableRecord
100
AcDbLinetypeTableRecord
2
DOT2
70
0
3
Dot (.5x) .....................................
72
65
73
2
40
3.175
49
0
74
0
49
-3.175
74
0
0
LTYPE
5
34
330
5
100
AcDbSymbolTableRecord
100
AcDbLinetypeTableRecord
2
DOTX2
70
0
3
Dot (2x) .  .  .  .  .  .  .  .  .  .  .  .  .
72
65
73
2
40
12.7
49
0
74
0
49
-12.7
74
0
0
LTYPE
5
35
330
5
100
AcDbSymbolTableRecord
100
AcDbLinetypeTableRecord
2
DASHED
70
0
3
Dot . . . . . . . . . . . . . . . . . . . . . .
72
65
73
2
40
19.05
49
12.7
74
0
49
-6.35
74
0
0
LTYPE
5
36
330
5
100
AcDbSymbolTableRecord
100
AcDbLinetypeTableRecord
2
DASHED2
70
0
3
Dashed (.5x) _ _ _ _ _ _ _ _ _ _ _ _ _ _ _ _ _
72
65
73
2
40
9.525
49
6.35
74
0
49
-3.175
74
0
0
LTYPE
5
37
330
5
100
AcDbSymbolTableRecord
100
AcDbLinetypeTableRecord
2
DASHEDX2
70
0
3
Dashed (2x) ____  ____  ____  ____  ____  ___
72
65
73
2
40
38.1
49
25.4
74
0
49
-12.7
74
0
0
LTYPE
5
38
330
5
100
AcDbSymbolTableRecord
100
AcDbLinetypeTableRecord
2
DASHDOT
70
0
3
Dash dot __ . __ . __ . __ . __ . __ . __ . __
72
65
73
4
40
25.4
49
12.7
74
0
49
-6.35
74
0
49
0
74
0
49
-6.35
74
0
0
LTYPE
5
39
330
5
100
AcDbSymbolTableRecord
100
AcDbLinetypeTableRecord
2
DASHDOT2
70
0
3
Dash dot (.5x) _._._._._._._._._._._._._._._.
72
65
73
4
40
12.7
49
6.35
74
0
49
-3.175
74
0
49
0
74
0
49
-3.175
74
0
0
LTYPE
5
3A
330
5
100
AcDbSymbolTableRecord
100
AcDbLinetypeTableRecord
2
DASHDOTX2
70
0
3
Dash dot (2x) ____  .  ____  .  ____  .  ___
72
65
73
4
40
50.8
49
25.4
74
0
49
-12.7
74
0
49
0
74
0
49
-12.7
74
0
0
LTYPE
5
3B
330
5
100
AcDbSymbolTableRecord
100
AcDbLinetypeTableRecord
2
DIVIDE
70
0
3
Divide ____ . . ____ . . ____ . . ____ . . ____
72
65
73
6
40
31.75
49
12.7
74
0
49
-6.35
74
0
49
0
74
0
49
-6.35
74
0
49
0
74
0
49
-6.35
74
0
0
LTYPE
5
3C
330
5
100
AcDbSymbolTableRecord
100
AcDbLinetypeTableRecord
2
DIVIDE2
70
0
3
Divide (.5x) __..__..__..__..__..__..__..__.._
72
65
73
6
40
15.875
49
6.35
74
0
49
-3.175
74
0
49
0
74
0
49
-3.175
74
0
49
0
74
0
49
-3.175
74
0
0
LTYPE
5
3D
330
5
100
AcDbSymbolTableRecord
100
AcDbLinetypeTableRecord
2
DIVIDEX2
70
0
3
Divide (2x) ________  .  .  ________  .  .  _
72
65
73
6
40
63.5
49
25.4
74
0
49
-12.7
74
0
49
0
74
0
49
-12.7
74
0
49
0
74
0
49
-12.7
74
0
0
LTYPE
5
3E
330
5
100
AcDbSymbolTableRecord
100
AcDbLinetypeTableRecord
2
BORDER
70
0
3
Border __ __ . __ __ . __ __ . __ __ . __ __ .
72
65
73
6
40
44.45
49
12.7
74
0
49
-6.35
74
0
49
12.7
74
0
49
-6.35
74
0
49
0
74
0
49
-6.35
74
0
0
LTYPE
5
3F
330
5
100
AcDbSymbolTableRecord
100
AcDbLinetypeTableRecord
2
BORDER2
70
0
3
Border (.5x) __.__.__.__.__.__.__.__.__.__.__.
72
65
73
6
40
22.225
49
6.35
74
0
49
-3.175
74
0
49
6.35
74
0
49
-3.175
74
0
49
0
74
0
49
-3.175
74
0
0
LTYPE
5
40
330
5
100
AcDbSymbolTableRecord
100
AcDbLinetypeTableRecord
2
BORDERX2
70
0
3
Border (2x) ____  ____  .  ____  ____  .  ___
72
65
73
6
40
88.9
49
25.4
74
0
49
-12.7
74
0
49
25.4
74
0
49
-12.7
74
0
49
0
74
0
49
-12.7
74
0
0
LTYPE
5
41
330
5
100
AcDbSymbolTableRecord
100
AcDbLinetypeTableRecord
2
CENTER
70
0
3
Center ____ _ ____ _ ____ _ ____ _ ____ _ ____
72
65
73
4
40
50.8
49
31.75
74
0
49
-6.35
74
0
49
6.35
74
0
49
-6.35
74
0
0
LTYPE
5
42
330
5
100
AcDbSymbolTableRecord
100
AcDbLinetypeTableRecord
2
CENTER2
70
0
3
Center (.5x) ___ _ ___ _ ___ _ ___ _ ___ _ ___
72
65
73
4
40
28.575
49
19.05
74
0
49
-3.175
74
0
49
3.175
74
0
49
-3.175
74
0
0
LTYPE
5
43
330
5
100
AcDbSymbolTableRecord
100
AcDbLinetypeTableRecord
2
CENTERX2
70
0
3
Center (2x) ________  __  ________  __  _____
72
65
73
4
40
101.6
49
63.5
74
0
49
-12.7
74
0
49
12.7
74
0
49
-12.7
74
0
0
ENDTAB
0
TABLE
2
LAYER
5
2
330
0
100
AcDbSymbolTable
70
1
0
LAYER
5
10
330
2
100
AcDbSymbolTableRecord
100
AcDbLayerTableRecord
2
0
70
1
62
7
6
CONTINUOUS
370
-3
390
F
0
LAYER
5
44
330
2
100
AcDbSymbolTableRecord
100
AcDbLayerTableRecord
2
boundary
70
0
62
5
6
CONTINUOUS
370
0
390
F
0
LAYER
5
45
330
2
100
AcDbSymbolTableRecord
100
AcDbLayerTableRecord
2
dimension
70
1
62
7
6
CONTINUOUS
370
0
390
F
0
LAYER
5
46
330
2
100
AcDbSymbolTableRecord
100
AcDbLayerTableRecord
2
reference
70
1
62
253
420
10526884
6
CONTINUOUS
370
0
390
F
0
LAYER
5
47
330
2
100
AcDbSymbolTableRecord
100
AcDbLayerTableRecord
2
vector
70
0
62
3
6
CONTINUOUS
370
0
390
F
0
ENDTAB
0
TABLE
2
STYLE
5
3
330
0
100
AcDbSymbolTable
70
3
0
STYLE
5
48
330
2
100
AcDbSymbolTableRecord
100
AcDbTextStyleTableRecord
2
Standard
70
0
40
0
41
1
50
0
71
0
42
1
3
txt
4

0
ENDTAB
0
TABLE
2
VIEW
5
6
330
0
100
AcDbSymbolTable
70
0
0
ENDTAB
0
TABLE
2
UCS
5
7
330
0
100
AcDbSymbolTable
70
0
0
ENDTAB
0
TABLE
2
APPID
5
9
330
0
100
AcDbSymbolTable
70
1
0
APPID
5
12
330
9
100
AcDbSymbolTableRecord
100
AcDbRegAppTableRecord
2
ACAD
70
0
0
ENDTAB
0
TABLE
2
DIMSTYLE
5
A
330
0
100
AcDbSymbolTable
70
1
100
AcDbDimStyleTable
71
1
0
DIMSTYLE
105
49
330
A
100
AcDbSymbolTableRecord
100
AcDbDimStyleTableRecord
2
Standard
70
0
40
1
41
2.5
42
0.625
43
0.38
44
1.25
45
0
46
0
47
0
48
0
140
2.5
141
0.09
142
0
143
25.4
144
1
145
0
146
1
147
0.625
148
0
71
0
72
0
73
0
74
1
75
0
76
0
77
0
78
0
79
0
170
0
171
2
172
0
173
0
174
0
175
0
176
0
177
0
178
0
179
0
271
4
272
4
273
2
274
2
275
0
276
0
277
2
278
46
279
0
280
0
281
0
282
0
283
1
284
0
285
0
286
0
288
0
289
3
340
Standard
341

371
-2
372
-2
0
ENDTAB
0
TABLE
2
BLOCK_RECORD
5
1
330
0
100
AcDbSymbolTable
70
2
0
BLOCK_RECORD
5
1F
330
1
100
AcDbSymbolTableRecord
100
AcDbBlockTableRecord
2
*Model_Space
70
0
280
1
281
0
0
BLOCK_RECORD
5
1E
330
1
100
AcDbSymbolTableRecord
100
AcDbBlockTableRecord
2
*Paper_Space
70
0
280
1
281
0
0
ENDTAB
0
ENDSEC
0
SECTION
2
BLOCKS
0
BLOCK
5
20
330
1F
100
AcDbEntity
8
0
100
AcDbBlockBegin
2
*Model_Space
70
0
10
0
20
0
30
0
3
*Model_Space
1

0
ENDBLK
5
21
330
1F
100
AcDbEntity
8
0
100
AcDbBlockEnd
0
BLOCK
5
1C
330
1B
100
AcDbEntity
8
0
100
AcDbBlockBegin
2
*Paper_Space
70
0
10
0
20
0
30
0
3
*Paper_Space
1

0
ENDBLK
5
1D
330
1F
100
AcDbEntity
8
0
100
AcDbBlockEnd
0
ENDSEC
0
SECTION
2
ENTITIES
0
LINE
5
4A
100
AcDbEntity
8
reference
6
ByLayer
62
256
370
-1
100
AcDbLine
10
-3.77005200787
20
17.3366122047
11
-3.77005200787
21
18.3366122047
0
LINE
5
4B
100
AcDbEntity
8
reference
6
ByLayer
62
256
370
-1
100
AcDbLine
10
-3.77005200787
20
18.3366122047
11
-2.77005200787
21
18.3366122047
0
LINE
5
4C
100
AcDbEntity
8
reference
6
ByLayer
62
256
370
-1
100
AcDbLine
10
-2.77005200787
20
18.3366122047
11
-2.77005200787
21
17.3366122047
0
LINE
5
4D
100
AcDbEntity
8
reference
6
ByLayer
62
256
370
-1
100
AcDbLine
10
-2.77005200787
20
17.3366122047
11
-3.77005200787
21
17.3366122047
0
LINE
5
4E
100
AcDbEntity
8
boundary
6
ByLayer
62
256
370
-1
100
AcDbLine
10
0
20
0
11
24
21
0
0
LINE
5
4F
100
AcDbEntity
8
boundary
6
ByLayer
62
256
370
-1
100
AcDbLine
10
24
20
0
11
24
21
23
0
LINE
5
50
100
AcDbEntity
8
boundary
6
ByLayer
62
256
370
-1
100
AcDbLine
10
24
20
23
11
0
21
23
0
LINE
5
51
100
AcDbEntity
8
boundary
6
ByLayer
62
256
370
-1
100
AcDbLine
10
0
20
23
11
0
21
0
0
LINE
5
52
100
AcDbEntity
8
boundary
6
ByLayer
62
256
370
-1
100
AcDbLine
10
9
20
0
11
9
21
23
0
LINE
5
53
100
AcDbEntity
8
vector
6
ByLayer
62
256
370
-1
100
AcDbLine
10
2.4249998819
20
2.75811023622
11
2.4174798819
21
2.75858267717
0
LINE
5
54
100
AcDbEntity
8
vector
6
ByLayer
62
256
370
-1
100
AcDbLine
10
2.4174798819
20
2.75858267717
11
2.4100787796
21
2.76
0
LINE
5
55
100
AcDbEntity
8
vector
6
ByLayer
62
256
370
-1
100
AcDbLine
10
2.4100787796
20
2.76
11
2.4029132284
21
2.76232283465
0
LINE
5
56
100
AcDbEntity
8
vector
6
ByLayer
62
256
370
-1
100
AcDbLine
10
2.4029132284
20
2.76232283465
11
2.3961020867
21
2.7655511811
0
LINE
5
57
100
AcDbEntity
8
vector
6
ByLayer
62
256
370
-1
100
AcDbLine
10
2.3961020867
20
2.7655511811
11
2.3897243307
21
2.76956688977
0
LINE
5
58
100
AcDbEntity
8
vector
6
ByLayer
62
256
370
-1
100
AcDbLine
10
2.3897243307
20
2.76956688977
11
2.3839365355
21
2.77437007874
0
LINE
5
59
100
AcDbEntity
8
vector
6
ByLayer
62
256
370
-1
100
AcDbLine
10
2.3839365355
20
2.77437007874
11
2.3787798819
21
2.77988188977
0
LINE
5
5A
100
AcDbEntity
8
vector
6
ByLayer
62
256
370
-1
100
AcDbLine
10
2.3787798819
20
2.77988188977
11
2.3743309843
21
2.78594488189
0
LINE
5
5B
100
AcDbEntity
8
vector
6
ByLayer
62
256
370
-1
100
AcDbLine
10
2.3743309843
20
2.78594488189
11
2.3707087796
21
2.79255905512
0
LINE
5
5C
100
AcDbEntity
8
vector
6
ByLayer
62
256
370
-1
100
AcDbLine
10
2.3707087796
20
2.79255905512
11
2.3679532284
21
2.79956688977
0
LINE
5
5D
100
AcDbEntity
8
vector
6
ByLayer
62
256
370
-1
100
AcDbLine
10
2.3679532284
20
2.79956688977
11
2.3660632284
21
2.80685035433
0
LINE
5
5E
100
AcDbEntity
8
vector
6
ByLayer
62
256
370
-1
100
AcDbLine
10
2.3660632284
20
2.80685035433
11
2.3651187796
21
2.81433070866
0
LINE
5
5F
100
AcDbEntity
8
vector
6
ByLayer
62
256
370
-1
100
AcDbLine
10
2.3651176378
20
2.81433070866
11
2.3651176378
21
2.82188972441
0
LINE
5
60
100
AcDbEntity
8
vector
6
ByLayer
62
256
370
-1
100
AcDbLine
10
2.3651176378
20
2.82188972441
11
2.3660620867
21
2.82937007874
0
LINE
5
61
100
AcDbEntity
8
vector
6
ByLayer
62
256
370
-1
100
AcDbLine
10
2.3660632284
20
2.82937007874
11
2.3679532284
21
2.83665354331
0
LINE
5
62
100
AcDbEntity
8
vector
6
ByLayer
62
256
370
-1
100
AcDbLine
10
2.3679532284
20
2.83665354331
11
2.3707087796
21
2.84366137795
0
LINE
5
63
100
AcDbEntity
8
vector
6
ByLayer
62
256
370
-1
100
AcDbLine
10
2.3707087796
20
2.84366137795
11
2.3743309843
21
2.85027559055
0
LINE
5
64
100
AcDbEntity
8
vector
6
ByLayer
62
256
370
-1
100
AcDbLine
10
2.3743309843
20
2.85027559055
11
2.3787798819
21
2.85633854331
0
LINE
5
65
100
AcDbEntity
8
vector
6
ByLayer
62
256
370
-1
100
AcDbLine
10
2.3787798819
20
2.85633854331
11
2.3839365355
21
2.86185035433
0
LINE
5
66
100
AcDbEntity
8
vector
6
ByLayer
62
256
370
-1
100
AcDbLine
10
2.3839365355
20
2.86185035433
11
2.3897243307
21
2.86665354331
0
LINE
5
67
100
AcDbEntity
8
vector
6
ByLayer
62
256
370
-1
100
AcDbLine
10
2.3897243307
20
2.86665354331
11
2.3961020867
21
2.87066929134
0
LINE
5
68
100
AcDbEntity
8
vector
6
ByLayer
62
256
370
-1
100
AcDbLine
10
2.3961020867
20
2.87066929134
11
2.4029132284
21
2.87389759843
0
LINE
5
69
100
AcDbEntity
8
vector
6
ByLayer
62
256
370
-1
100
AcDbLine
10
2.4029132284
20
2.87389759843
11
2.4100787796
21
2.87622043307
0
LINE
5
6A
100
AcDbEntity
8
vector
6
ByLayer
62
256
370
-1
100
AcDbLine
10
2.4100787796
20
2.87622043307
11
2.4174798819
21
2.87763775591
0
LINE
5
6B
100
AcDbEntity
8
vector
6
ByLayer
62
256
370
-1
100
AcDbLine
10
2.4174798819
20
2.87763775591
11
2.4249998819
21
2.87811023622
0
LINE
5
6C
100
AcDbEntity
8
vector
6
ByLayer
62
256
370
-1
100
AcDbLine
10
2.4249998819
20
2.87811023622
11
2.4325198819
21
2.87763775591
0
LINE
5
6D
100
AcDbEntity
8
vector
6
ByLayer
62
256
370
-1
100
AcDbLine
10
2.4325198819
20
2.87763775591
11
2.4399209843
21
2.87622043307
0
LINE
5
6E
100
AcDbEntity
8
vector
6
ByLayer
62
256
370
-1
100
AcDbLine
10
2.4399209843
20
2.87622043307
11
2.4470865355
21
2.87389759843
0
LINE
5
6F
100
AcDbEntity
8
vector
6
ByLayer
62
256
370
-1
100
AcDbLine
10
2.4470865355
20
2.87389759843
11
2.4538976378
21
2.87066929134
0
LINE
5
70
100
AcDbEntity
8
vector
6
ByLayer
62
256
370
-1
100
AcDbLine
10
2.4538976378
20
2.87066929134
11
2.4602754331
21
2.86665354331
0
LINE
5
71
100
AcDbEntity
8
vector
6
ByLayer
62
256
370
-1
100
AcDbLine
10
2.4602754331
20
2.86665354331
11
2.4660632284
21
2.86185035433
0
LINE
5
72
100
AcDbEntity
8
vector
6
ByLayer
62
256
370
-1
100
AcDbLine
10
2.4660632284
20
2.86185035433
11
2.4712198819
21
2.85633854331
0
LINE
5
73
100
AcDbEntity
8
vector
6
ByLayer
62
256
370
-1
100
AcDbLine
10
2.4712198819
20
2.85633854331
11
2.4756687796
21
2.85027559055
0
LINE
5
74
100
AcDbEntity
8
vector
6
ByLayer
62
256
370
-1
100
AcDbLine
10
2.4756687796
20
2.85027559055
11
2.4792909843
21
2.84366137795
0
LINE
5
75
100
AcDbEntity
8
vector
6
ByLayer
62
256
370
-1
100
AcDbLine
10
2.4792909843
20
2.84366137795
11
2.4820476378
21
2.83665354331
0
LINE
5
76
100
AcDbEntity
8
vector
6
ByLayer
62
256
370
-1
100
AcDbLine
10
2.4820476378
20
2.83665354331
11
2.4839365355
21
2.82937007874
0
LINE
5
77
100
AcDbEntity
8
vector
6
ByLayer
62
256
370
-1
100
AcDbLine
10
2.4839365355
20
2.82937007874
11
2.4848809843
21
2.82188972441
0
LINE
5
78
100
AcDbEntity
8
vector
6
ByLayer
62
256
370
-1
100
AcDbLine
10
2.4848820867
20
2.82188972441
11
2.4848820867
21
2.81433070866
0
LINE
5
79
100
AcDbEntity
8
vector
6
ByLayer
62
256
370
-1
100
AcDbLine
10
2.4848820867
20
2.81433070866
11
2.4839376378
21
2.80685035433
0
LINE
5
7A
100
AcDbEntity
8
vector
6
ByLayer
62
256
370
-1
100
AcDbLine
10
2.4839365355
20
2.80685035433
11
2.4820476378
21
2.79956688977
0
LINE
5
7B
100
AcDbEntity
8
vector
6
ByLayer
62
256
370
-1
100
AcDbLine
10
2.4820476378
20
2.79956688977
11
2.4792909843
21
2.79255905512
0
LINE
5
7C
100
AcDbEntity
8
vector
6
ByLayer
62
256
370
-1
100
AcDbLine
10
2.4792909843
20
2.79255905512
11
2.4756687796
21
2.78594488189
0
LINE
5
7D
100
AcDbEntity
8
vector
6
ByLayer
62
256
370
-1
100
AcDbLine
10
2.4756687796
20
2.78594488189
11
2.4712198819
21
2.77988188977
0
LINE
5
7E
100
AcDbEntity
8
vector
6
ByLayer
62
256
370
-1
100
AcDbLine
10
2.4712198819
20
2.77988188977
11
2.4660632284
21
2.77437007874
0
LINE
5
7F
100
AcDbEntity
8
vector
6
ByLayer
62
256
370
-1
100
AcDbLine
10
2.4660632284
20
2.77437007874
11
2.4602754331
21
2.76956688977
0
LINE
5
80
100
AcDbEntity
8
vector
6
ByLayer
62
256
370
-1
100
AcDbLine
10
2.4602754331
20
2.76956688977
11
2.4538976378
21
2.7655511811
0
LINE
5
81
100
AcDbEntity
8
vector
6
ByLayer
62
256
370
-1
100
AcDbLine
10
2.4538976378
20
2.7655511811
11
2.4470865355
21
2.76232283465
0
LINE
5
82
100
AcDbEntity
8
vector
6
ByLayer
62
256
370
-1
100
AcDbLine
10
2.4470865355
20
2.76232283465
11
2.4399209843
21
2.76
0
LINE
5
83
100
AcDbEntity
8
vector
6
ByLayer
62
256
370
-1
100
AcDbLine
10
2.4399209843
20
2.76
11
2.4325198819
21
2.75858267717
0
LINE
5
84
100
AcDbEntity
8
vector
6
ByLayer
62
256
370
-1
100
AcDbLine
10
2.4325198819
20
2.75858267717
11
2.4249998819
21
2.75811023622
0
LINE
5
85
100
AcDbEntity
8
vector
6
ByLayer
62
256
370
-1
100
AcDbLine
10
1.6249998819
20
2.75811023622
11
1.6174798819
21
2.75858267717
0
LINE
5
86
100
AcDbEntity
8
vector
6
ByLayer
62
256
370
-1
100
AcDbLine
10
1.6174798819
20
2.75858267717
11
1.6100787796
21
2.76
0
LINE
5
87
100
AcDbEntity
8
vector
6
ByLayer
62
256
370
-1
100
AcDbLine
10
1.6100787796
20
2.76
11
1.6029132284
21
2.76232283465
0
LINE
5
88
100
AcDbEntity
8
vector
6
ByLayer
62
256
370
-1
100
AcDbLine
10
1.6029132284
20
2.76232283465
11
1.5961020867
21
2.7655511811
0
LINE
5
89
100
AcDbEntity
8
vector
6
ByLayer
62
256
370
-1
100
AcDbLine
10
1.5961020867
20
2.7655511811
11
1.5897243307
21
2.76956688977
0
LINE
5
8A
100
AcDbEntity
8
vector
6
ByLayer
62
256
370
-1
100
AcDbLine
10
1.5897243307
20
2.76956688977
11
1.5839365355
21
2.77437007874
0
LINE
5
8B
100
AcDbEntity
8
vector
6
ByLayer
62
256
370
-1
100
AcDbLine
10
1.5839365355
20
2.77437007874
11
1.5787798819
21
2.77988188977
0
LINE
5
8C
100
AcDbEntity
8
vector
6
ByLayer
62
256
370
-1
100
AcDbLine
10
1.5787798819
20
2.77988188977
11
1.5743309843
21
2.78594488189
0
LINE
5
8D
100
AcDbEntity
8
vector
6
ByLayer
62
256
370
-1
100
AcDbLine
10
1.5743309843
20
2.78594488189
11
1.5707087796
21
2.79255905512
0
LINE
5
8E
100
AcDbEntity
8
vector
6
ByLayer
62
256
370
-1
100
AcDbLine
10
1.5707087796
20
2.79255905512
11
1.5679532284
21
2.79956688977
0
LINE
5
8F
100
AcDbEntity
8
vector
6
ByLayer
62
256
370
-1
100
AcDbLine
10
1.5679532284
20
2.79956688977
11
1.5660632284
21
2.80685035433
0
LINE
5
90
100
AcDbEntity
8
vector
6
ByLayer
62
256
370
-1
100
AcDbLine
10
1.5660632284
20
2.80685035433
11
1.5651187796
21
2.81433070866
0
LINE
5
91
100
AcDbEntity
8
vector
6
ByLayer
62
256
370
-1
100
AcDbLine
10
1.5651176378
20
2.81433070866
11
1.5651176378
21
2.82188972441
0
LINE
5
92
100
AcDbEntity
8
vector
6
ByLayer
62
256
370
-1
100
AcDbLine
10
1.5651176378
20
2.82188972441
11
1.5660620867
21
2.82937007874
0
LINE
5
93
100
AcDbEntity
8
vector
6
ByLayer
62
256
370
-1
100
AcDbLine
10
1.5660632284
20
2.82937007874
11
1.5679532284
21
2.83665354331
0
LINE
5
94
100
AcDbEntity
8
vector
6
ByLayer
62
256
370
-1
100
AcDbLine
10
1.5679532284
20
2.83665354331
11
1.5707087796
21
2.84366137795
0
LINE
5
95
100
AcDbEntity
8
vector
6
ByLayer
62
256
370
-1
100
AcDbLine
10
1.5707087796
20
2.84366137795
11
1.5743309843
21
2.85027559055
0
LINE
5
96
100
AcDbEntity
8
vector
6
ByLayer
62
256
370
-1
100
AcDbLine
10
1.5743309843
20
2.85027559055
11
1.5787798819
21
2.85633854331
0
LINE
5
97
100
AcDbEntity
8
vector
6
ByLayer
62
256
370
-1
100
AcDbLine
10
1.5787798819
20
2.85633854331
11
1.5839365355
21
2.86185035433
0
LINE
5
98
100
AcDbEntity
8
vector
6
ByLayer
62
256
370
-1
100
AcDbLine
10
1.5839365355
20
2.86185035433
11
1.5897243307
21
2.86665354331
0
LINE
5
99
100
AcDbEntity
8
vector
6
ByLayer
62
256
370
-1
100
AcDbLine
10
1.5897243307
20
2.86665354331
11
1.5961020867
21
2.87066929134
0
LINE
5
9A
100
AcDbEntity
8
vector
6
ByLayer
62
256
370
-1
100
AcDbLine
10
1.5961020867
20
2.87066929134
11
1.6029132284
21
2.87389759843
0
LINE
5
9B
100
AcDbEntity
8
vector
6
ByLayer
62
256
370
-1
100
AcDbLine
10
1.6029132284
20
2.87389759843
11
1.6100787796
21
2.87622043307
0
LINE
5
9C
100
AcDbEntity
8
vector
6
ByLayer
62
256
370
-1
100
AcDbLine
10
1.6100787796
20
2.87622043307
11
1.6174798819
21
2.87763775591
0
LINE
5
9D
100
AcDbEntity
8
vector
6
ByLayer
62
256
370
-1
100
AcDbLine
10
1.6174798819
20
2.87763775591
11
1.6249998819
21
2.87811023622
0
LINE
5
9E
100
AcDbEntity
8
vector
6
ByLayer
62
256
370
-1
100
AcDbLine
10
1.6249998819
20
2.87811023622
11
1.6325198819
21
2.87763775591
0
LINE
5
9F
100
AcDbEntity
8
vector
6
ByLayer
62
256
370
-1
100
AcDbLine
10
1.6325198819
20
2.87763775591
11
1.6399209843
21
2.87622043307
0
LINE
5
A0
100
AcDbEntity
8
vector
6
ByLayer
62
256
370
-1
100
AcDbLine
10
1.6399209843
20
2.87622043307
11
1.6470865355
21
2.87389759843
0
LINE
5
A1
100
AcDbEntity
8
vector
6
ByLayer
62
256
370
-1
100
AcDbLine
10
1.6470865355
20
2.87389759843
11
1.6538976378
21
2.87066929134
0
LINE
5
A2
100
AcDbEntity
8
vector
6
ByLayer
62
256
370
-1
100
AcDbLine
10
1.6538976378
20
2.87066929134
11
1.6602754331
21
2.86665354331
0
LINE
5
A3
100
AcDbEntity
8
vector
6
ByLayer
62
256
370
-1
100
AcDbLine
10
1.6602754331
20
2.86665354331
11
1.6660632284
21
2.86185035433
0
LINE
5
A4
100
AcDbEntity
8
vector
6
ByLayer
62
256
370
-1
100
AcDbLine
10
1.6660632284
20
2.86185035433
11
1.6712198819
21
2.85633854331
0
LINE
5
A5
100
AcDbEntity
8
vector
6
ByLayer
62
256
370
-1
100
AcDbLine
10
1.6712198819
20
2.85633854331
11
1.6756687796
21
2.85027559055
0
LINE
5
A6
100
AcDbEntity
8
vector
6
ByLayer
62
256
370
-1
100
AcDbLine
10
1.6756687796
20
2.85027559055
11
1.6792909843
21
2.84366137795
0
LINE
5
A7
100
AcDbEntity
8
vector
6
ByLayer
62
256
370
-1
100
AcDbLine
10
1.6792909843
20
2.84366137795
11
1.6820476378
21
2.83665354331
0
LINE
5
A8
100
AcDbEntity
8
vector
6
ByLayer
62
256
370
-1
100
AcDbLine
10
1.6820476378
20
2.83665354331
11
1.6839365355
21
2.82937007874
0
LINE
5
A9
100
AcDbEntity
8
vector
6
ByLayer
62
256
370
-1
100
AcDbLine
10
1.6839365355
20
2.82937007874
11
1.6848809843
21
2.82188972441
0
LINE
5
AA
100
AcDbEntity
8
vector
6
ByLayer
62
256
370
-1
100
AcDbLine
10
1.6848820867
20
2.82188972441
11
1.6848820867
21
2.81433070866
0
LINE
5
AB
100
AcDbEntity
8
vector
6
ByLayer
62
256
370
-1
100
AcDbLine
10
1.6848820867
20
2.81433070866
11
1.6839376378
21
2.80685035433
0
LINE
5
AC
100
AcDbEntity
8
vector
6
ByLayer
62
256
370
-1
100
AcDbLine
10
1.6839365355
20
2.80685035433
11
1.6820476378
21
2.79956688977
0
LINE
5
AD
100
AcDbEntity
8
vector
6
ByLayer
62
256
370
-1
100
AcDbLine
10
1.6820476378
20
2.79956688977
11
1.6792909843
21
2.79255905512
0
LINE
5
AE
100
AcDbEntity
8
vector
6
ByLayer
62
256
370
-1
100
AcDbLine
10
1.6792909843
20
2.79255905512
11
1.6756687796
21
2.78594488189
0
LINE
5
AF
100
AcDbEntity
8
vector
6
ByLayer
62
256
370
-1
100
AcDbLine
10
1.6756687796
20
2.78594488189
11
1.6712198819
21
2.77988188977
0
LINE
5
B0
100
AcDbEntity
8
vector
6
ByLayer
62
256
370
-1
100
AcDbLine
10
1.6712198819
20
2.77988188977
11
1.6660632284
21
2.77437007874
0
LINE
5
B1
100
AcDbEntity
8
vector
6
ByLayer
62
256
370
-1
100
AcDbLine
10
1.6660632284
20
2.77437007874
11
1.6602754331
21
2.76956688977
0
LINE
5
B2
100
AcDbEntity
8
vector
6
ByLayer
62
256
370
-1
100
AcDbLine
10
1.6602754331
20
2.76956688977
11
1.6538976378
21
2.7655511811
0
LINE
5
B3
100
AcDbEntity
8
vector
6
ByLayer
62
256
370
-1
100
AcDbLine
10
1.6538976378
20
2.7655511811
11
1.6470865355
21
2.76232283465
0
LINE
5
B4
100
AcDbEntity
8
vector
6
ByLayer
62
256
370
-1
100
AcDbLine
10
1.6470865355
20
2.76232283465
11
1.6399209843
21
2.76
0
LINE
5
B5
100
AcDbEntity
8
vector
6
ByLayer
62
256
370
-1
100
AcDbLine
10
1.6399209843
20
2.76
11
1.6325198819
21
2.75858267717
0
LINE
5
B6
100
AcDbEntity
8
vector
6
ByLayer
62
256
370
-1
100
AcDbLine
10
1.6325198819
20
2.75858267717
11
1.6249998819
21
2.75811023622
0
LINE
5
B7
100
AcDbEntity
8
vector
6
ByLayer
62
256
370
-1
100
AcDbLine
10
2.7499998819
20
2
11
2.1249998819
21
2
0
LINE
5
B8
100
AcDbEntity
8
vector
6
ByLayer
62
256
370
-1
100
AcDbLine
10
2.1249998819
20
2
11
2.1249998819
21
2.10826767717
0
LINE
5
B9
100
AcDbEntity
8
vector
6
ByLayer
62
256
370
-1
100
AcDbLine
10
2.1249998819
20
2.10826767717
11
1.6249998819
21
2.10826767717
0
LINE
5
BA
100
AcDbEntity
8
vector
6
ByLayer
62
256
370
-1
100
AcDbLine
10
1.6249998819
20
2.10826767717
11
1.6249998819
21
2
0
LINE
5
BB
100
AcDbEntity
8
vector
6
ByLayer
62
256
370
-1
100
AcDbLine
10
1.6249998819
20
2
11
1
21
2
0
LINE
5
BC
100
AcDbEntity
8
vector
6
ByLayer
62
256
370
-1
100
AcDbLine
10
1
20
2
11
1
21
2.55905507874
0
LINE
5
BD
100
AcDbEntity
8
vector
6
ByLayer
62
256
370
-1
100
AcDbLine
10
1
20
2.55905507874
11
0.8917322048
21
2.55905507874
0
LINE
5
BE
100
AcDbEntity
8
vector
6
ByLayer
62
256
370
-1
100
AcDbLine
10
0.8917322048
20
2.55905507874
11
0.8917322048
21
3.05905507874
0
LINE
5
BF
100
AcDbEntity
8
vector
6
ByLayer
62
256
370
-1
100
AcDbLine
10
0.8917322048
20
3.05905507874
11
1
21
3.05905507874
0
LINE
5
C0
100
AcDbEntity
8
vector
6
ByLayer
62
256
370
-1
100
AcDbLine
10
1
20
3.05905507874
11
1
21
4.17716535433
0
LINE
5
C1
100
AcDbEntity
8
vector
6
ByLayer
62
256
370
-1
100
AcDbLine
10
1
20
4.17716535433
11
0.8917322048
21
4.17716535433
0
LINE
5
C2
100
AcDbEntity
8
vector
6
ByLayer
62
256
370
-1
100
AcDbLine
10
0.8917322048
20
4.17716535433
11
0.8917322048
21
4.67716535433
0
LINE
5
C3
100
AcDbEntity
8
vector
6
ByLayer
62
256
370
-1
100
AcDbLine
10
0.8917322048
20
4.67716535433
11
1
21
4.67716535433
0
LINE
5
C4
100
AcDbEntity
8
vector
6
ByLayer
62
256
370
-1
100
AcDbLine
10
1
20
4.67716535433
11
1
21
5.23622043307
0
LINE
5
C5
100
AcDbEntity
8
vector
6
ByLayer
62
256
370
-1
100
AcDbLine
10
1
20
5.23622043307
11
1.6249998819
21
5.23622043307
0
LINE
5
C6
100
AcDbEntity
8
vector
6
ByLayer
62
256
370
-1
100
AcDbLine
10
1.6249998819
20
5.23622043307
11
1.6249998819
21
5.12795275591
0
LINE
5
C7
100
AcDbEntity
8
vector
6
ByLayer
62
256
370
-1
100
AcDbLine
10
1.6249998819
20
5.12795275591
11
2.1249998819
21
5.12795275591
0
LINE
5
C8
100
AcDbEntity
8
vector
6
ByLayer
62
256
370
-1
100
AcDbLine
10
2.1249998819
20
5.12795275591
11
2.1249998819
21
5.23622043307
0
LINE
5
C9
100
AcDbEntity
8
vector
6
ByLayer
62
256
370
-1
100
AcDbLine
10
2.1249998819
20
5.23622043307
11
2.7499998819
21
5.23622043307
0
LINE
5
CA
100
AcDbEntity
8
vector
6
ByLayer
62
256
370
-1
100
AcDbLine
10
2.7499998819
20
5.23622043307
11
2.7499998819
21
4.67716535433
0
LINE
5
CB
100
AcDbEntity
8
vector
6
ByLayer
62
256
370
-1
100
AcDbLine
10
2.7499998819
20
4.67716535433
11
2.8582676378
21
4.67716535433
0
LINE
5
CC
100
AcDbEntity
8
vector
6
ByLayer
62
256
370
-1
100
AcDbLine
10
2.8582676378
20
4.67716535433
11
2.8582676378
21
4.17716535433
0
LINE
5
CD
100
AcDbEntity
8
vector
6
ByLayer
62
256
370
-1
100
AcDbLine
10
2.8582676378
20
4.17716535433
11
2.7499998819
21
4.17716535433
0
LINE
5
CE
100
AcDbEntity
8
vector
6
ByLayer
62
256
370
-1
100
AcDbLine
10
2.7499998819
20
4.17716535433
11
2.7499998819
21
3.05905507874
0
LINE
5
CF
100
AcDbEntity
8
vector
6
ByLayer
62
256
370
-1
100
AcDbLine
10
2.7499998819
20
3.05905507874
11
2.8582676378
21
3.05905507874
0
LINE
5
D0
100
AcDbEntity
8
vector
6
ByLayer
62
256
370
-1
100
AcDbLine
10
2.8582676378
20
3.05905507874
11
2.8582676378
21
2.55905507874
0
LINE
5
D1
100
AcDbEntity
8
vector
6
ByLayer
62
256
370
-1
100
AcDbLine
10
2.8582676378
20
2.55905507874
11
2.7499998819
21
2.55905507874
0
LINE
5
D2
100
AcDbEntity
8
vector
6
ByLayer
62
256
370
-1
100
AcDbLine
10
2.7499998819
20
2.55905507874
11
2.7499998819
21
2
0
LINE
5
D3
100
AcDbEntity
8
vector
6
ByLayer
62
256
370
-1
100
AcDbLine
10
2.3641732284
20
3.90610232284
11
1.6358265355
21
3.90610232284
0
LINE
5
D4
100
AcDbEntity
8
vector
6
ByLayer
62
256
370
-1
100
AcDbLine
10
1.6358265355
20
3.90610232284
11
1.6309054331
21
3.90641732284
0
LINE
5
D5
100
AcDbEntity
8
vector
6
ByLayer
62
256
370
-1
100
AcDbLine
10
1.6309054331
20
3.90641732284
11
1.6260232284
21
3.90732287402
0
LINE
5
D6
100
AcDbEntity
8
vector
6
ByLayer
62
256
370
-1
100
AcDbLine
10
1.6260232284
20
3.90732283465
11
1.6213387796
21
3.90885826772
0
LINE
5
D7
100
AcDbEntity
8
vector
6
ByLayer
62
256
370
-1
100
AcDbLine
10
1.6213387796
20
3.90885826772
11
1.6168498819
21
3.9109842126
0
LINE
5
D8
100
AcDbEntity
8
vector
6
ByLayer
62
256
370
-1
100
AcDbLine
10
1.6168498819
20
3.9109842126
11
1.6126776378
21
3.91362204725
0
LINE
5
D9
100
AcDbEntity
8
vector
6
ByLayer
62
256
370
-1
100
AcDbLine
10
1.6126776378
20
3.91362204725
11
1.6088576378
21
3.91677165355
0
LINE
5
DA
100
AcDbEntity
8
vector
6
ByLayer
62
256
370
-1
100
AcDbLine
10
1.6088576378
20
3.91677165355
11
1.6054720867
21
3.92039370079
0
LINE
5
DB
100
AcDbEntity
8
vector
6
ByLayer
62
256
370
-1
100
AcDbLine
10
1.6054720867
20
3.92039370079
11
1.6025987796
21
3.92437007874
0
LINE
5
DC
100
AcDbEntity
8
vector
6
ByLayer
62
256
370
-1
100
AcDbLine
10
1.6025987796
20
3.92437007874
11
1.6001965355
21
3.9287007874
0
LINE
5
DD
100
AcDbEntity
8
vector
6
ByLayer
62
256
370
-1
100
AcDbLine
10
1.6001965355
20
3.9287007874
11
1.5983854331
21
3.93330708662
0
LINE
5
DE
100
AcDbEntity
8
vector
6
ByLayer
62
256
370
-1
100
AcDbLine
10
1.5983854331
20
3.93330708662
11
1.5971654331
21
3.93811023622
0
LINE
5
DF
100
AcDbEntity
8
vector
6
ByLayer
62
256
370
-1
100
AcDbLine
10
1.5971654331
20
3.93811023622
11
1.5965320867
21
3.94299212599
0
LINE
5
E0
100
AcDbEntity
8
vector
6
ByLayer
62
256
370
-1
100
AcDbLine
10
1.5965354331
20
3.94299212599
11
1.5965354331
21
3.94547240158
0
LINE
5
E1
100
AcDbEntity
8
vector
6
ByLayer
62
256
370
-1
100
AcDbLine
10
1.5965354331
20
3.94547240158
11
1.5964243307
21
3.94547240158
0
LINE
5
E2
100
AcDbEntity
8
vector
6
ByLayer
62
256
370
-1
100
AcDbLine
10
1.5964565355
20
3.94547240158
11
1.5964565355
21
4.2407480315
0
LINE
5
E3
100
AcDbEntity
8
vector
6
ByLayer
62
256
370
-1
100
AcDbLine
10
1.5964565355
20
4.2407480315
11
1.5965676378
21
4.2407480315
0
LINE
5
E4
100
AcDbEntity
8
vector
6
ByLayer
62
256
370
-1
100
AcDbLine
10
1.5965354331
20
4.2407480315
11
1.5965354331
21
4.24322834646
0
LINE
5
E5
100
AcDbEntity
8
vector
6
ByLayer
62
256
370
-1
100
AcDbLine
10
1.5965354331
20
4.24322834646
11
1.5971687796
21
4.24811023622
0
LINE
5
E6
100
AcDbEntity
8
vector
6
ByLayer
62
256
370
-1
100
AcDbLine
10
1.5971654331
20
4.24811023622
11
1.5983854331
21
4.25291334646
0
LINE
5
E7
100
AcDbEntity
8
vector
6
ByLayer
62
256
370
-1
100
AcDbLine
10
1.5983854331
20
4.25291334646
11
1.6001965355
21
4.25751964567
0
LINE
5
E8
100
AcDbEntity
8
vector
6
ByLayer
62
256
370
-1
100
AcDbLine
10
1.6001965355
20
4.25751964567
11
1.6025987796
21
4.26185035433
0
LINE
5
E9
100
AcDbEntity
8
vector
6
ByLayer
62
256
370
-1
100
AcDbLine
10
1.6025987796
20
4.26185035433
11
1.6054720867
21
4.26582673229
0
LINE
5
EA
100
AcDbEntity
8
vector
6
ByLayer
62
256
370
-1
100
AcDbLine
10
1.6054720867
20
4.26582673229
11
1.6088576378
21
4.26944877953
0
LINE
5
EB
100
AcDbEntity
8
vector
6
ByLayer
62
256
370
-1
100
AcDbLine
10
1.6088576378
20
4.26944877953
11
1.6126776378
21
4.2725984252
0
LINE
5
EC
100
AcDbEntity
8
vector
6
ByLayer
62
256
370
-1
100
AcDbLine
10
1.6126776378
20
4.2725984252
11
1.6168498819
21
4.27523622047
0
LINE
5
ED
100
AcDbEntity
8
vector
6
ByLayer
62
256
370
-1
100
AcDbLine
10
1.6168498819
20
4.27523622047
11
1.6213387796
21
4.27736216536
0
LINE
5
EE
100
AcDbEntity
8
vector
6
ByLayer
62
256
370
-1
100
AcDbLine
10
1.6213387796
20
4.27736216536
11
1.6260232284
21
4.27889759843
0
LINE
5
EF
100
AcDbEntity
8
vector
6
ByLayer
62
256
370
-1
100
AcDbLine
10
1.6260232284
20
4.27889759843
11
1.6309054331
21
4.27980318898
0
LINE
5
F0
100
AcDbEntity
8
vector
6
ByLayer
62
256
370
-1
100
AcDbLine
10
1.6309054331
20
4.27980311024
11
1.6358265355
21
4.28011811024
0
LINE
5
F1
100
AcDbEntity
8
vector
6
ByLayer
62
256
370
-1
100
AcDbLine
10
1.6358265355
20
4.28011811024
11
2.3641732284
21
4.28011811024
0
LINE
5
F2
100
AcDbEntity
8
vector
6
ByLayer
62
256
370
-1
100
AcDbLine
10
2.3641732284
20
4.28011811024
11
2.3690943307
21
4.27980311024
0
LINE
5
F3
100
AcDbEntity
8
vector
6
ByLayer
62
256
370
-1
100
AcDbLine
10
2.3690943307
20
4.27980311024
11
2.3739765355
21
4.27889755906
0
LINE
5
F4
100
AcDbEntity
8
vector
6
ByLayer
62
256
370
-1
100
AcDbLine
10
2.3739765355
20
4.27889759843
11
2.3786609843
21
4.27736216536
0
LINE
5
F5
100
AcDbEntity
8
vector
6
ByLayer
62
256
370
-1
100
AcDbLine
10
2.3786609843
20
4.27736216536
11
2.3831498819
21
4.27523622047
0
LINE
5
F6
100
AcDbEntity
8
vector
6
ByLayer
62
256
370
-1
100
AcDbLine
10
2.3831498819
20
4.27523622047
11
2.3873232284
21
4.2725984252
0
LINE
5
F7
100
AcDbEntity
8
vector
6
ByLayer
62
256
370
-1
100
AcDbLine
10
2.3873232284
20
4.2725984252
11
2.3911420867
21
4.26944877953
0
LINE
5
F8
100
AcDbEntity
8
vector
6
ByLayer
62
256
370
-1
100
AcDbLine
10
2.3911420867
20
4.26944877953
11
2.3945276378
21
4.26582673229
0
LINE
5
F9
100
AcDbEntity
8
vector
6
ByLayer
62
256
370
-1
100
AcDbLine
10
2.3945276378
20
4.26582673229
11
2.3974009843
21
4.26185035433
0
LINE
5
FA
100
AcDbEntity
8
vector
6
ByLayer
62
256
370
-1
100
AcDbLine
10
2.3974009843
20
4.26185035433
11
2.3998032284
21
4.25751964567
0
LINE
5
FB
100
AcDbEntity
8
vector
6
ByLayer
62
256
370
-1
100
AcDbLine
10
2.3998032284
20
4.25751964567
11
2.4016143307
21
4.25291334646
0
LINE
5
FC
100
AcDbEntity
8
vector
6
ByLayer
62
256
370
-1
100
AcDbLine
10
2.4016143307
20
4.25291334646
11
2.4028343307
21
4.24811023622
0
LINE
5
FD
100
AcDbEntity
8
vector
6
ByLayer
62
256
370
-1
100
AcDbLine
10
2.4028343307
20
4.24811023622
11
2.4034676378
21
4.24322834646
0
LINE
5
FE
100
AcDbEntity
8
vector
6
ByLayer
62
256
370
-1
100
AcDbLine
10
2.4034643307
20
4.24322834646
11
2.4034643307
21
4.2407480315
0
LINE
5
FF
100
AcDbEntity
8
vector
6
ByLayer
62
256
370
-1
100
AcDbLine
10
2.4034643307
20
4.2407480315
11
2.4035754331
21
4.2407480315
0
LINE
5
100
100
AcDbEntity
8
vector
6
ByLayer
62
256
370
-1
100
AcDbLine
10
2.4035432284
20
4.2407480315
11
2.4035432284
21
3.94547240158
0
LINE
5
101
100
AcDbEntity
8
vector
6
ByLayer
62
256
370
-1
100
AcDbLine
10
2.4035432284
20
3.94547240158
11
2.4034320867
21
3.94547240158
0
LINE
5
102
100
AcDbEntity
8
vector
6
ByLayer
62
256
370
-1
100
AcDbLine
10
2.4034643307
20
3.94547240158
11
2.4034643307
21
3.94299212599
0
LINE
5
103
100
AcDbEntity
8
vector
6
ByLayer
62
256
370
-1
100
AcDbLine
10
2.4034643307
20
3.94299212599
11
2.4028343307
21
3.93811023622
0
LINE
5
104
100
AcDbEntity
8
vector
6
ByLayer
62
256
370
-1
100
AcDbLine
10
2.4028343307
20
3.93811023622
11
2.4016143307
21
3.93330708662
0
LINE
5
105
100
AcDbEntity
8
vector
6
ByLayer
62
256
370
-1
100
AcDbLine
10
2.4016143307
20
3.93330708662
11
2.3998032284
21
3.9287007874
0
LINE
5
106
100
AcDbEntity
8
vector
6
ByLayer
62
256
370
-1
100
AcDbLine
10
2.3998032284
20
3.9287007874
11
2.3974009843
21
3.92437007874
0
LINE
5
107
100
AcDbEntity
8
vector
6
ByLayer
62
256
370
-1
100
AcDbLine
10
2.3974009843
20
3.92437007874
11
2.3945276378
21
3.92039370079
0
LINE
5
108
100
AcDbEntity
8
vector
6
ByLayer
62
256
370
-1
100
AcDbLine
10
2.3945276378
20
3.92039370079
11
2.3911420867
21
3.91677165355
0
LINE
5
109
100
AcDbEntity
8
vector
6
ByLayer
62
256
370
-1
100
AcDbLine
10
2.3911420867
20
3.91677165355
11
2.3873232284
21
3.91362204725
0
LINE
5
10A
100
AcDbEntity
8
vector
6
ByLayer
62
256
370
-1
100
AcDbLine
10
2.3873232284
20
3.91362204725
11
2.3831498819
21
3.9109842126
0
LINE
5
10B
100
AcDbEntity
8
vector
6
ByLayer
62
256
370
-1
100
AcDbLine
10
2.3831498819
20
3.9109842126
11
2.3786609843
21
3.90885826772
0
LINE
5
10C
100
AcDbEntity
8
vector
6
ByLayer
62
256
370
-1
100
AcDbLine
10
2.3786609843
20
3.90885826772
11
2.3739765355
21
3.90732283465
0
LINE
5
10D
100
AcDbEntity
8
vector
6
ByLayer
62
256
370
-1
100
AcDbLine
10
2.3739765355
20
3.90732283465
11
2.3690943307
21
3.9064172441
0
LINE
5
10E
100
AcDbEntity
8
vector
6
ByLayer
62
256
370
-1
100
AcDbLine
10
2.3690943307
20
3.90641732284
11
2.3641732284
21
3.90610232284
0
LINE
5
10F
100
AcDbEntity
8
vector
6
ByLayer
62
256
370
-1
100
AcDbLine
10
2.4249998819
20
4.35811023622
11
2.4174798819
21
4.35858267717
0
LINE
5
110
100
AcDbEntity
8
vector
6
ByLayer
62
256
370
-1
100
AcDbLine
10
2.4174798819
20
4.35858267717
11
2.4100787796
21
4.36
0
LINE
5
111
100
AcDbEntity
8
vector
6
ByLayer
62
256
370
-1
100
AcDbLine
10
2.4100787796
20
4.36
11
2.4029132284
21
4.36232283465
0
LINE
5
112
100
AcDbEntity
8
vector
6
ByLayer
62
256
370
-1
100
AcDbLine
10
2.4029132284
20
4.36232283465
11
2.3961020867
21
4.3655511811
0
LINE
5
113
100
AcDbEntity
8
vector
6
ByLayer
62
256
370
-1
100
AcDbLine
10
2.3961020867
20
4.3655511811
11
2.3897243307
21
4.36956688977
0
LINE
5
114
100
AcDbEntity
8
vector
6
ByLayer
62
256
370
-1
100
AcDbLine
10
2.3897243307
20
4.36956688977
11
2.3839365355
21
4.37437007874
0
LINE
5
115
100
AcDbEntity
8
vector
6
ByLayer
62
256
370
-1
100
AcDbLine
10
2.3839365355
20
4.37437007874
11
2.3787798819
21
4.37988188977
0
LINE
5
116
100
AcDbEntity
8
vector
6
ByLayer
62
256
370
-1
100
AcDbLine
10
2.3787798819
20
4.37988188977
11
2.3743309843
21
4.38594488189
0
LINE
5
117
100
AcDbEntity
8
vector
6
ByLayer
62
256
370
-1
100
AcDbLine
10
2.3743309843
20
4.38594488189
11
2.3707087796
21
4.39255905512
0
LINE
5
118
100
AcDbEntity
8
vector
6
ByLayer
62
256
370
-1
100
AcDbLine
10
2.3707087796
20
4.39255905512
11
2.3679532284
21
4.39956688977
0
LINE
5
119
100
AcDbEntity
8
vector
6
ByLayer
62
256
370
-1
100
AcDbLine
10
2.3679532284
20
4.39956688977
11
2.3660632284
21
4.40685035433
0
LINE
5
11A
100
AcDbEntity
8
vector
6
ByLayer
62
256
370
-1
100
AcDbLine
10
2.3660632284
20
4.40685035433
11
2.3651187796
21
4.41433070866
0
LINE
5
11B
100
AcDbEntity
8
vector
6
ByLayer
62
256
370
-1
100
AcDbLine
10
2.3651176378
20
4.41433070866
11
2.3651176378
21
4.42188972441
0
LINE
5
11C
100
AcDbEntity
8
vector
6
ByLayer
62
256
370
-1
100
AcDbLine
10
2.3651176378
20
4.42188972441
11
2.3660620867
21
4.42937007874
0
LINE
5
11D
100
AcDbEntity
8
vector
6
ByLayer
62
256
370
-1
100
AcDbLine
10
2.3660632284
20
4.42937007874
11
2.3679532284
21
4.43665354331
0
LINE
5
11E
100
AcDbEntity
8
vector
6
ByLayer
62
256
370
-1
100
AcDbLine
10
2.3679532284
20
4.43665354331
11
2.3707087796
21
4.44366137795
0
LINE
5
11F
100
AcDbEntity
8
vector
6
ByLayer
62
256
370
-1
100
AcDbLine
10
2.3707087796
20
4.44366137795
11
2.3743309843
21
4.45027559055
0
LINE
5
120
100
AcDbEntity
8
vector
6
ByLayer
62
256
370
-1
100
AcDbLine
10
2.3743309843
20
4.45027559055
11
2.3787798819
21
4.45633854331
0
LINE
5
121
100
AcDbEntity
8
vector
6
ByLayer
62
256
370
-1
100
AcDbLine
10
2.3787798819
20
4.45633854331
11
2.3839365355
21
4.46185035433
0
LINE
5
122
100
AcDbEntity
8
vector
6
ByLayer
62
256
370
-1
100
AcDbLine
10
2.3839365355
20
4.46185035433
11
2.3897243307
21
4.46665354331
0
LINE
5
123
100
AcDbEntity
8
vector
6
ByLayer
62
256
370
-1
100
AcDbLine
10
2.3897243307
20
4.46665354331
11
2.3961020867
21
4.47066929134
0
LINE
5
124
100
AcDbEntity
8
vector
6
ByLayer
62
256
370
-1
100
AcDbLine
10
2.3961020867
20
4.47066929134
11
2.4029132284
21
4.47389759843
0
LINE
5
125
100
AcDbEntity
8
vector
6
ByLayer
62
256
370
-1
100
AcDbLine
10
2.4029132284
20
4.47389759843
11
2.4100787796
21
4.47622043307
0
LINE
5
126
100
AcDbEntity
8
vector
6
ByLayer
62
256
370
-1
100
AcDbLine
10
2.4100787796
20
4.47622043307
11
2.4174798819
21
4.47763775591
0
LINE
5
127
100
AcDbEntity
8
vector
6
ByLayer
62
256
370
-1
100
AcDbLine
10
2.4174798819
20
4.47763775591
11
2.4249998819
21
4.47811023622
0
LINE
5
128
100
AcDbEntity
8
vector
6
ByLayer
62
256
370
-1
100
AcDbLine
10
2.4249998819
20
4.47811023622
11
2.4325198819
21
4.47763775591
0
LINE
5
129
100
AcDbEntity
8
vector
6
ByLayer
62
256
370
-1
100
AcDbLine
10
2.4325198819
20
4.47763775591
11
2.4399209843
21
4.47622043307
0
LINE
5
12A
100
AcDbEntity
8
vector
6
ByLayer
62
256
370
-1
100
AcDbLine
10
2.4399209843
20
4.47622043307
11
2.4470865355
21
4.47389759843
0
LINE
5
12B
100
AcDbEntity
8
vector
6
ByLayer
62
256
370
-1
100
AcDbLine
10
2.4470865355
20
4.47389759843
11
2.4538976378
21
4.47066929134
0
LINE
5
12C
100
AcDbEntity
8
vector
6
ByLayer
62
256
370
-1
100
AcDbLine
10
2.4538976378
20
4.47066929134
11
2.4602754331
21
4.46665354331
0
LINE
5
12D
100
AcDbEntity
8
vector
6
ByLayer
62
256
370
-1
100
AcDbLine
10
2.4602754331
20
4.46665354331
11
2.4660632284
21
4.46185035433
0
LINE
5
12E
100
AcDbEntity
8
vector
6
ByLayer
62
256
370
-1
100
AcDbLine
10
2.4660632284
20
4.46185035433
11
2.4712198819
21
4.45633854331
0
LINE
5
12F
100
AcDbEntity
8
vector
6
ByLayer
62
256
370
-1
100
AcDbLine
10
2.4712198819
20
4.45633854331
11
2.4756687796
21
4.45027559055
0
LINE
5
130
100
AcDbEntity
8
vector
6
ByLayer
62
256
370
-1
100
AcDbLine
10
2.4756687796
20
4.45027559055
11
2.4792909843
21
4.44366137795
0
LINE
5
131
100
AcDbEntity
8
vector
6
ByLayer
62
256
370
-1
100
AcDbLine
10
2.4792909843
20
4.44366137795
11
2.4820476378
21
4.43665354331
0
LINE
5
132
100
AcDbEntity
8
vector
6
ByLayer
62
256
370
-1
100
AcDbLine
10
2.4820476378
20
4.43665354331
11
2.4839365355
21
4.42937007874
0
LINE
5
133
100
AcDbEntity
8
vector
6
ByLayer
62
256
370
-1
100
AcDbLine
10
2.4839365355
20
4.42937007874
11
2.4848809843
21
4.42188972441
0
LINE
5
134
100
AcDbEntity
8
vector
6
ByLayer
62
256
370
-1
100
AcDbLine
10
2.4848820867
20
4.42188972441
11
2.4848820867
21
4.41433070866
0
LINE
5
135
100
AcDbEntity
8
vector
6
ByLayer
62
256
370
-1
100
AcDbLine
10
2.4848820867
20
4.41433070866
11
2.4839376378
21
4.40685035433
0
LINE
5
136
100
AcDbEntity
8
vector
6
ByLayer
62
256
370
-1
100
AcDbLine
10
2.4839365355
20
4.40685035433
11
2.4820476378
21
4.39956688977
0
LINE
5
137
100
AcDbEntity
8
vector
6
ByLayer
62
256
370
-1
100
AcDbLine
10
2.4820476378
20
4.39956688977
11
2.4792909843
21
4.39255905512
0
LINE
5
138
100
AcDbEntity
8
vector
6
ByLayer
62
256
370
-1
100
AcDbLine
10
2.4792909843
20
4.39255905512
11
2.4756687796
21
4.38594488189
0
LINE
5
139
100
AcDbEntity
8
vector
6
ByLayer
62
256
370
-1
100
AcDbLine
10
2.4756687796
20
4.38594488189
11
2.4712198819
21
4.37988188977
0
LINE
5
13A
100
AcDbEntity
8
vector
6
ByLayer
62
256
370
-1
100
AcDbLine
10
2.4712198819
20
4.37988188977
11
2.4660632284
21
4.37437007874
0
LINE
5
13B
100
AcDbEntity
8
vector
6
ByLayer
62
256
370
-1
100
AcDbLine
10
2.4660632284
20
4.37437007874
11
2.4602754331
21
4.36956688977
0
LINE
5
13C
100
AcDbEntity
8
vector
6
ByLayer
62
256
370
-1
100
AcDbLine
10
2.4602754331
20
4.36956688977
11
2.4538976378
21
4.3655511811
0
LINE
5
13D
100
AcDbEntity
8
vector
6
ByLayer
62
256
370
-1
100
AcDbLine
10
2.4538976378
20
4.3655511811
11
2.4470865355
21
4.36232283465
0
LINE
5
13E
100
AcDbEntity
8
vector
6
ByLayer
62
256
370
-1
100
AcDbLine
10
2.4470865355
20
4.36232283465
11
2.4399209843
21
4.36
0
LINE
5
13F
100
AcDbEntity
8
vector
6
ByLayer
62
256
370
-1
100
AcDbLine
10
2.4399209843
20
4.36
11
2.4325198819
21
4.35858267717
0
LINE
5
140
100
AcDbEntity
8
vector
6
ByLayer
62
256
370
-1
100
AcDbLine
10
2.4325198819
20
4.35858267717
11
2.4249998819
21
4.35811023622
0
LINE
5
141
100
AcDbEntity
8
vector
6
ByLayer
62
256
370
-1
100
AcDbLine
10
1.6249998819
20
4.35811023622
11
1.6174798819
21
4.35858267717
0
LINE
5
142
100
AcDbEntity
8
vector
6
ByLayer
62
256
370
-1
100
AcDbLine
10
1.6174798819
20
4.35858267717
11
1.6100787796
21
4.36
0
LINE
5
143
100
AcDbEntity
8
vector
6
ByLayer
62
256
370
-1
100
AcDbLine
10
1.6100787796
20
4.36
11
1.6029132284
21
4.36232283465
0
LINE
5
144
100
AcDbEntity
8
vector
6
ByLayer
62
256
370
-1
100
AcDbLine
10
1.6029132284
20
4.36232283465
11
1.5961020867
21
4.3655511811
0
LINE
5
145
100
AcDbEntity
8
vector
6
ByLayer
62
256
370
-1
100
AcDbLine
10
1.5961020867
20
4.3655511811
11
1.5897243307
21
4.36956688977
0
LINE
5
146
100
AcDbEntity
8
vector
6
ByLayer
62
256
370
-1
100
AcDbLine
10
1.5897243307
20
4.36956688977
11
1.5839365355
21
4.37437007874
0
LINE
5
147
100
AcDbEntity
8
vector
6
ByLayer
62
256
370
-1
100
AcDbLine
10
1.5839365355
20
4.37437007874
11
1.5787798819
21
4.37988188977
0
LINE
5
148
100
AcDbEntity
8
vector
6
ByLayer
62
256
370
-1
100
AcDbLine
10
1.5787798819
20
4.37988188977
11
1.5743309843
21
4.38594488189
0
LINE
5
149
100
AcDbEntity
8
vector
6
ByLayer
62
256
370
-1
100
AcDbLine
10
1.5743309843
20
4.38594488189
11
1.5707087796
21
4.39255905512
0
LINE
5
14A
100
AcDbEntity
8
vector
6
ByLayer
62
256
370
-1
100
AcDbLine
10
1.5707087796
20
4.39255905512
11
1.5679532284
21
4.39956688977
0
LINE
5
14B
100
AcDbEntity
8
vector
6
ByLayer
62
256
370
-1
100
AcDbLine
10
1.5679532284
20
4.39956688977
11
1.5660632284
21
4.40685035433
0
LINE
5
14C
100
AcDbEntity
8
vector
6
ByLayer
62
256
370
-1
100
AcDbLine
10
1.5660632284
20
4.40685035433
11
1.5651187796
21
4.41433070866
0
LINE
5
14D
100
AcDbEntity
8
vector
6
ByLayer
62
256
370
-1
100
AcDbLine
10
1.5651176378
20
4.41433070866
11
1.5651176378
21
4.42188972441
0
LINE
5
14E
100
AcDbEntity
8
vector
6
ByLayer
62
256
370
-1
100
AcDbLine
10
1.5651176378
20
4.42188972441
11
1.5660620867
21
4.42937007874
0
LINE
5
14F
100
AcDbEntity
8
vector
6
ByLayer
62
256
370
-1
100
AcDbLine
10
1.5660632284
20
4.42937007874
11
1.5679532284
21
4.43665354331
0
LINE
5
150
100
AcDbEntity
8
vector
6
ByLayer
62
256
370
-1
100
AcDbLine
10
1.5679532284
20
4.43665354331
11
1.5707087796
21
4.44366137795
0
LINE
5
151
100
AcDbEntity
8
vector
6
ByLayer
62
256
370
-1
100
AcDbLine
10
1.5707087796
20
4.44366137795
11
1.5743309843
21
4.45027559055
0
LINE
5
152
100
AcDbEntity
8
vector
6
ByLayer
62
256
370
-1
100
AcDbLine
10
1.5743309843
20
4.45027559055
11
1.5787798819
21
4.45633854331
0
LINE
5
153
100
AcDbEntity
8
vector
6
ByLayer
62
256
370
-1
100
AcDbLine
10
1.5787798819
20
4.45633854331
11
1.5839365355
21
4.46185035433
0
LINE
5
154
100
AcDbEntity
8
vector
6
ByLayer
62
256
370
-1
100
AcDbLine
10
1.5839365355
20
4.46185035433
11
1.5897243307
21
4.46665354331
0
LINE
5
155
100
AcDbEntity
8
vector
6
ByLayer
62
256
370
-1
100
AcDbLine
10
1.5897243307
20
4.46665354331
11
1.5961020867
21
4.47066929134
0
LINE
5
156
100
AcDbEntity
8
vector
6
ByLayer
62
256
370
-1
100
AcDbLine
10
1.5961020867
20
4.47066929134
11
1.6029132284
21
4.47389759843
0
LINE
5
157
100
AcDbEntity
8
vector
6
ByLayer
62
256
370
-1
100
AcDbLine
10
1.6029132284
20
4.47389759843
11
1.6100787796
21
4.47622043307
0
LINE
5
158
100
AcDbEntity
8
vector
6
ByLayer
62
256
370
-1
100
AcDbLine
10
1.6100787796
20
4.47622043307
11
1.6174798819
21
4.47763775591
0
LINE
5
159
100
AcDbEntity
8
vector
6
ByLayer
62
256
370
-1
100
AcDbLine
10
1.6174798819
20
4.47763775591
11
1.6249998819
21
4.47811023622
0
LINE
5
15A
100
AcDbEntity
8
vector
6
ByLayer
62
256
370
-1
100
AcDbLine
10
1.6249998819
20
4.47811023622
11
1.6325198819
21
4.47763775591
0
LINE
5
15B
100
AcDbEntity
8
vector
6
ByLayer
62
256
370
-1
100
AcDbLine
10
1.6325198819
20
4.47763775591
11
1.6399209843
21
4.47622043307
0
LINE
5
15C
100
AcDbEntity
8
vector
6
ByLayer
62
256
370
-1
100
AcDbLine
10
1.6399209843
20
4.47622043307
11
1.6470865355
21
4.47389759843
0
LINE
5
15D
100
AcDbEntity
8
vector
6
ByLayer
62
256
370
-1
100
AcDbLine
10
1.6470865355
20
4.47389759843
11
1.6538976378
21
4.47066929134
0
LINE
5
15E
100
AcDbEntity
8
vector
6
ByLayer
62
256
370
-1
100
AcDbLine
10
1.6538976378
20
4.47066929134
11
1.6602754331
21
4.46665354331
0
LINE
5
15F
100
AcDbEntity
8
vector
6
ByLayer
62
256
370
-1
100
AcDbLine
10
1.6602754331
20
4.46665354331
11
1.6660632284
21
4.46185035433
0
LINE
5
160
100
AcDbEntity
8
vector
6
ByLayer
62
256
370
-1
100
AcDbLine
10
1.6660632284
20
4.46185035433
11
1.6712198819
21
4.45633854331
0
LINE
5
161
100
AcDbEntity
8
vector
6
ByLayer
62
256
370
-1
100
AcDbLine
10
1.6712198819
20
4.45633854331
11
1.6756687796
21
4.45027559055
0
LINE
5
162
100
AcDbEntity
8
vector
6
ByLayer
62
256
370
-1
100
AcDbLine
10
1.6756687796
20
4.45027559055
11
1.6792909843
21
4.44366137795
0
LINE
5
163
100
AcDbEntity
8
vector
6
ByLayer
62
256
370
-1
100
AcDbLine
10
1.6792909843
20
4.44366137795
11
1.6820476378
21
4.43665354331
0
LINE
5
164
100
AcDbEntity
8
vector
6
ByLayer
62
256
370
-1
100
AcDbLine
10
1.6820476378
20
4.43665354331
11
1.6839365355
21
4.42937007874
0
LINE
5
165
100
AcDbEntity
8
vector
6
ByLayer
62
256
370
-1
100
AcDbLine
10
1.6839365355
20
4.42937007874
11
1.6848809843
21
4.42188972441
0
LINE
5
166
100
AcDbEntity
8
vector
6
ByLayer
62
256
370
-1
100
AcDbLine
10
1.6848820867
20
4.42188972441
11
1.6848820867
21
4.41433070866
0
LINE
5
167
100
AcDbEntity
8
vector
6
ByLayer
62
256
370
-1
100
AcDbLine
10
1.6848820867
20
4.41433070866
11
1.6839376378
21
4.40685035433
0
LINE
5
168
100
AcDbEntity
8
vector
6
ByLayer
62
256
370
-1
100
AcDbLine
10
1.6839365355
20
4.40685035433
11
1.6820476378
21
4.39956688977
0
LINE
5
169
100
AcDbEntity
8
vector
6
ByLayer
62
256
370
-1
100
AcDbLine
10
1.6820476378
20
4.39956688977
11
1.6792909843
21
4.39255905512
0
LINE
5
16A
100
AcDbEntity
8
vector
6
ByLayer
62
256
370
-1
100
AcDbLine
10
1.6792909843
20
4.39255905512
11
1.6756687796
21
4.38594488189
0
LINE
5
16B
100
AcDbEntity
8
vector
6
ByLayer
62
256
370
-1
100
AcDbLine
10
1.6756687796
20
4.38594488189
11
1.6712198819
21
4.37988188977
0
LINE
5
16C
100
AcDbEntity
8
vector
6
ByLayer
62
256
370
-1
100
AcDbLine
10
1.6712198819
20
4.37988188977
11
1.6660632284
21
4.37437007874
0
LINE
5
16D
100
AcDbEntity
8
vector
6
ByLayer
62
256
370
-1
100
AcDbLine
10
1.6660632284
20
4.37437007874
11
1.6602754331
21
4.36956688977
0
LINE
5
16E
100
AcDbEntity
8
vector
6
ByLayer
62
256
370
-1
100
AcDbLine
10
1.6602754331
20
4.36956688977
11
1.6538976378
21
4.3655511811
0
LINE
5
16F
100
AcDbEntity
8
vector
6
ByLayer
62
256
370
-1
100
AcDbLine
10
1.6538976378
20
4.3655511811
11
1.6470865355
21
4.36232283465
0
LINE
5
170
100
AcDbEntity
8
vector
6
ByLayer
62
256
370
-1
100
AcDbLine
10
1.6470865355
20
4.36232283465
11
1.6399209843
21
4.36
0
LINE
5
171
100
AcDbEntity
8
vector
6
ByLayer
62
256
370
-1
100
AcDbLine
10
1.6399209843
20
4.36
11
1.6325198819
21
4.35858267717
0
LINE
5
172
100
AcDbEntity
8
vector
6
ByLayer
62
256
370
-1
100
AcDbLine
10
1.6325198819
20
4.35858267717
11
1.6249998819
21
4.35811023622
0
LINE
5
173
100
AcDbEntity
8
vector
6
ByLayer
62
256
370
-1
100
AcDbLine
10
4.6249998819
20
2.75811023622
11
4.6174798819
21
2.75858267717
0
LINE
5
174
100
AcDbEntity
8
vector
6
ByLayer
62
256
370
-1
100
AcDbLine
10
4.6174798819
20
2.75858267717
11
4.6100787796
21
2.76
0
LINE
5
175
100
AcDbEntity
8
vector
6
ByLayer
62
256
370
-1
100
AcDbLine
10
4.6100787796
20
2.76
11
4.6029132284
21
2.76232283465
0
LINE
5
176
100
AcDbEntity
8
vector
6
ByLayer
62
256
370
-1
100
AcDbLine
10
4.6029132284
20
2.76232283465
11
4.5961020867
21
2.7655511811
0
LINE
5
177
100
AcDbEntity
8
vector
6
ByLayer
62
256
370
-1
100
AcDbLine
10
4.5961020867
20
2.7655511811
11
4.5897243307
21
2.76956688977
0
LINE
5
178
100
AcDbEntity
8
vector
6
ByLayer
62
256
370
-1
100
AcDbLine
10
4.5897243307
20
2.76956688977
11
4.5839365355
21
2.77437007874
0
LINE
5
179
100
AcDbEntity
8
vector
6
ByLayer
62
256
370
-1
100
AcDbLine
10
4.5839365355
20
2.77437007874
11
4.5787798819
21
2.77988188977
0
LINE
5
17A
100
AcDbEntity
8
vector
6
ByLayer
62
256
370
-1
100
AcDbLine
10
4.5787798819
20
2.77988188977
11
4.5743309843
21
2.78594488189
0
LINE
5
17B
100
AcDbEntity
8
vector
6
ByLayer
62
256
370
-1
100
AcDbLine
10
4.5743309843
20
2.78594488189
11
4.5707087796
21
2.79255905512
0
LINE
5
17C
100
AcDbEntity
8
vector
6
ByLayer
62
256
370
-1
100
AcDbLine
10
4.5707087796
20
2.79255905512
11
4.5679532284
21
2.79956688977
0
LINE
5
17D
100
AcDbEntity
8
vector
6
ByLayer
62
256
370
-1
100
AcDbLine
10
4.5679532284
20
2.79956688977
11
4.5660632284
21
2.80685035433
0
LINE
5
17E
100
AcDbEntity
8
vector
6
ByLayer
62
256
370
-1
100
AcDbLine
10
4.5660632284
20
2.80685035433
11
4.5651187796
21
2.81433070866
0
LINE
5
17F
100
AcDbEntity
8
vector
6
ByLayer
62
256
370
-1
100
AcDbLine
10
4.5651176378
20
2.81433070866
11
4.5651176378
21
2.82188972441
0
LINE
5
180
100
AcDbEntity
8
vector
6
ByLayer
62
256
370
-1
100
AcDbLine
10
4.5651176378
20
2.82188972441
11
4.5660620867
21
2.82937007874
0
LINE
5
181
100
AcDbEntity
8
vector
6
ByLayer
62
256
370
-1
100
AcDbLine
10
4.5660632284
20
2.82937007874
11
4.5679532284
21
2.83665354331
0
LINE
5
182
100
AcDbEntity
8
vector
6
ByLayer
62
256
370
-1
100
AcDbLine
10
4.5679532284
20
2.83665354331
11
4.5707087796
21
2.84366137795
0
LINE
5
183
100
AcDbEntity
8
vector
6
ByLayer
62
256
370
-1
100
AcDbLine
10
4.5707087796
20
2.84366137795
11
4.5743309843
21
2.85027559055
0
LINE
5
184
100
AcDbEntity
8
vector
6
ByLayer
62
256
370
-1
100
AcDbLine
10
4.5743309843
20
2.85027559055
11
4.5787798819
21
2.85633854331
0
LINE
5
185
100
AcDbEntity
8
vector
6
ByLayer
62
256
370
-1
100
AcDbLine
10
4.5787798819
20
2.85633854331
11
4.5839365355
21
2.86185035433
0
LINE
5
186
100
AcDbEntity
8
vector
6
ByLayer
62
256
370
-1
100
AcDbLine
10
4.5839365355
20
2.86185035433
11
4.5897243307
21
2.86665354331
0
LINE
5
187
100
AcDbEntity
8
vector
6
ByLayer
62
256
370
-1
100
AcDbLine
10
4.5897243307
20
2.86665354331
11
4.5961020867
21
2.87066929134
0
LINE
5
188
100
AcDbEntity
8
vector
6
ByLayer
62
256
370
-1
100
AcDbLine
10
4.5961020867
20
2.87066929134
11
4.6029132284
21
2.87389759843
0
LINE
5
189
100
AcDbEntity
8
vector
6
ByLayer
62
256
370
-1
100
AcDbLine
10
4.6029132284
20
2.87389759843
11
4.6100787796
21
2.87622043307
0
LINE
5
18A
100
AcDbEntity
8
vector
6
ByLayer
62
256
370
-1
100
AcDbLine
10
4.6100787796
20
2.87622043307
11
4.6174798819
21
2.87763775591
0
LINE
5
18B
100
AcDbEntity
8
vector
6
ByLayer
62
256
370
-1
100
AcDbLine
10
4.6174798819
20
2.87763775591
11
4.6249998819
21
2.87811023622
0
LINE
5
18C
100
AcDbEntity
8
vector
6
ByLayer
62
256
370
-1
100
AcDbLine
10
4.6249998819
20
2.87811023622
11
4.6325198819
21
2.87763775591
0
LINE
5
18D
100
AcDbEntity
8
vector
6
ByLayer
62
256
370
-1
100
AcDbLine
10
4.6325198819
20
2.87763775591
11
4.6399209843
21
2.87622043307
0
LINE
5
18E
100
AcDbEntity
8
vector
6
ByLayer
62
256
370
-1
100
AcDbLine
10
4.6399209843
20
2.87622043307
11
4.6470865355
21
2.87389759843
0
LINE
5
18F
100
AcDbEntity
8
vector
6
ByLayer
62
256
370
-1
100
AcDbLine
10
4.6470865355
20
2.87389759843
11
4.6538976378
21
2.87066929134
0
LINE
5
190
100
AcDbEntity
8
vector
6
ByLayer
62
256
370
-1
100
AcDbLine
10
4.6538976378
20
2.87066929134
11
4.6602754331
21
2.86665354331
0
LINE
5
191
100
AcDbEntity
8
vector
6
ByLayer
62
256
370
-1
100
AcDbLine
10
4.6602754331
20
2.86665354331
11
4.6660632284
21
2.86185035433
0
LINE
5
192
100
AcDbEntity
8
vector
6
ByLayer
62
256
370
-1
100
AcDbLine
10
4.6660632284
20
2.86185035433
11
4.6712198819
21
2.85633854331
0
LINE
5
193
100
AcDbEntity
8
vector
6
ByLayer
62
256
370
-1
100
AcDbLine
10
4.6712198819
20
2.85633854331
11
4.6756687796
21
2.85027559055
0
LINE
5
194
100
AcDbEntity
8
vector
6
ByLayer
62
256
370
-1
100
AcDbLine
10
4.6756687796
20
2.85027559055
11
4.6792909843
21
2.84366137795
0
LINE
5
195
100
AcDbEntity
8
vector
6
ByLayer
62
256
370
-1
100
AcDbLine
10
4.6792909843
20
2.84366137795
11
4.6820476378
21
2.83665354331
0
LINE
5
196
100
AcDbEntity
8
vector
6
ByLayer
62
256
370
-1
100
AcDbLine
10
4.6820476378
20
2.83665354331
11
4.6839365355
21
2.82937007874
0
LINE
5
197
100
AcDbEntity
8
vector
6
ByLayer
62
256
370
-1
100
AcDbLine
10
4.6839365355
20
2.82937007874
11
4.6848809843
21
2.82188972441
0
LINE
5
198
100
AcDbEntity
8
vector
6
ByLayer
62
256
370
-1
100
AcDbLine
10
4.6848820867
20
2.82188972441
11
4.6848820867
21
2.81433070866
0
LINE
5
199
100
AcDbEntity
8
vector
6
ByLayer
62
256
370
-1
100
AcDbLine
10
4.6848820867
20
2.81433070866
11
4.6839376378
21
2.80685035433
0
LINE
5
19A
100
AcDbEntity
8
vector
6
ByLayer
62
256
370
-1
100
AcDbLine
10
4.6839365355
20
2.80685035433
11
4.6820476378
21
2.79956688977
0
LINE
5
19B
100
AcDbEntity
8
vector
6
ByLayer
62
256
370
-1
100
AcDbLine
10
4.6820476378
20
2.79956688977
11
4.6792909843
21
2.79255905512
0
LINE
5
19C
100
AcDbEntity
8
vector
6
ByLayer
62
256
370
-1
100
AcDbLine
10
4.6792909843
20
2.79255905512
11
4.6756687796
21
2.78594488189
0
LINE
5
19D
100
AcDbEntity
8
vector
6
ByLayer
62
256
370
-1
100
AcDbLine
10
4.6756687796
20
2.78594488189
11
4.6712198819
21
2.77988188977
0
LINE
5
19E
100
AcDbEntity
8
vector
6
ByLayer
62
256
370
-1
100
AcDbLine
10
4.6712198819
20
2.77988188977
11
4.6660632284
21
2.77437007874
0
LINE
5
19F
100
AcDbEntity
8
vector
6
ByLayer
62
256
370
-1
100
AcDbLine
10
4.6660632284
20
2.77437007874
11
4.6602754331
21
2.76956688977
0
LINE
5
1A0
100
AcDbEntity
8
vector
6
ByLayer
62
256
370
-1
100
AcDbLine
10
4.6602754331
20
2.76956688977
11
4.6538976378
21
2.7655511811
0
LINE
5
1A1
100
AcDbEntity
8
vector
6
ByLayer
62
256
370
-1
100
AcDbLine
10
4.6538976378
20
2.7655511811
11
4.6470865355
21
2.76232283465
0
LINE
5
1A2
100
AcDbEntity
8
vector
6
ByLayer
62
256
370
-1
100
AcDbLine
10
4.6470865355
20
2.76232283465
11
4.6399209843
21
2.76
0
LINE
5
1A3
100
AcDbEntity
8
vector
6
ByLayer
62
256
370
-1
100
AcDbLine
10
4.6399209843
20
2.76
11
4.6325198819
21
2.75858267717
0
LINE
5
1A4
100
AcDbEntity
8
vector
6
ByLayer
62
256
370
-1
100
AcDbLine
10
4.6325198819
20
2.75858267717
11
4.6249998819
21
2.75811023622
0
LINE
5
1A5
100
AcDbEntity
8
vector
6
ByLayer
62
256
370
-1
100
AcDbLine
10
3.8249998819
20
2.75811023622
11
3.8174798819
21
2.75858267717
0
LINE
5
1A6
100
AcDbEntity
8
vector
6
ByLayer
62
256
370
-1
100
AcDbLine
10
3.8174798819
20
2.75858267717
11
3.8100787796
21
2.76
0
LINE
5
1A7
100
AcDbEntity
8
vector
6
ByLayer
62
256
370
-1
100
AcDbLine
10
3.8100787796
20
2.76
11
3.8029132284
21
2.76232283465
0
LINE
5
1A8
100
AcDbEntity
8
vector
6
ByLayer
62
256
370
-1
100
AcDbLine
10
3.8029132284
20
2.76232283465
11
3.7961020867
21
2.7655511811
0
LINE
5
1A9
100
AcDbEntity
8
vector
6
ByLayer
62
256
370
-1
100
AcDbLine
10
3.7961020867
20
2.7655511811
11
3.7897243307
21
2.76956688977
0
LINE
5
1AA
100
AcDbEntity
8
vector
6
ByLayer
62
256
370
-1
100
AcDbLine
10
3.7897243307
20
2.76956688977
11
3.7839365355
21
2.77437007874
0
LINE
5
1AB
100
AcDbEntity
8
vector
6
ByLayer
62
256
370
-1
100
AcDbLine
10
3.7839365355
20
2.77437007874
11
3.7787798819
21
2.77988188977
0
LINE
5
1AC
100
AcDbEntity
8
vector
6
ByLayer
62
256
370
-1
100
AcDbLine
10
3.7787798819
20
2.77988188977
11
3.7743309843
21
2.78594488189
0
LINE
5
1AD
100
AcDbEntity
8
vector
6
ByLayer
62
256
370
-1
100
AcDbLine
10
3.7743309843
20
2.78594488189
11
3.7707087796
21
2.79255905512
0
LINE
5
1AE
100
AcDbEntity
8
vector
6
ByLayer
62
256
370
-1
100
AcDbLine
10
3.7707087796
20
2.79255905512
11
3.7679532284
21
2.79956688977
0
LINE
5
1AF
100
AcDbEntity
8
vector
6
ByLayer
62
256
370
-1
100
AcDbLine
10
3.7679532284
20
2.79956688977
11
3.7660632284
21
2.80685035433
0
LINE
5
1B0
100
AcDbEntity
8
vector
6
ByLayer
62
256
370
-1
100
AcDbLine
10
3.7660632284
20
2.80685035433
11
3.7651187796
21
2.81433070866
0
LINE
5
1B1
100
AcDbEntity
8
vector
6
ByLayer
62
256
370
-1
100
AcDbLine
10
3.7651176378
20
2.81433070866
11
3.7651176378
21
2.82188972441
0
LINE
5
1B2
100
AcDbEntity
8
vector
6
ByLayer
62
256
370
-1
100
AcDbLine
10
3.7651176378
20
2.82188972441
11
3.7660620867
21
2.82937007874
0
LINE
5
1B3
100
AcDbEntity
8
vector
6
ByLayer
62
256
370
-1
100
AcDbLine
10
3.7660632284
20
2.82937007874
11
3.7679532284
21
2.83665354331
0
LINE
5
1B4
100
AcDbEntity
8
vector
6
ByLayer
62
256
370
-1
100
AcDbLine
10
3.7679532284
20
2.83665354331
11
3.7707087796
21
2.84366137795
0
LINE
5
1B5
100
AcDbEntity
8
vector
6
ByLayer
62
256
370
-1
100
AcDbLine
10
3.7707087796
20
2.84366137795
11
3.7743309843
21
2.85027559055
0
LINE
5
1B6
100
AcDbEntity
8
vector
6
ByLayer
62
256
370
-1
100
AcDbLine
10
3.7743309843
20
2.85027559055
11
3.7787798819
21
2.85633854331
0
LINE
5
1B7
100
AcDbEntity
8
vector
6
ByLayer
62
256
370
-1
100
AcDbLine
10
3.7787798819
20
2.85633854331
11
3.7839365355
21
2.86185035433
0
LINE
5
1B8
100
AcDbEntity
8
vector
6
ByLayer
62
256
370
-1
100
AcDbLine
10
3.7839365355
20
2.86185035433
11
3.7897243307
21
2.86665354331
0
LINE
5
1B9
100
AcDbEntity
8
vector
6
ByLayer
62
256
370
-1
100
AcDbLine
10
3.7897243307
20
2.86665354331
11
3.7961020867
21
2.87066929134
0
LINE
5
1BA
100
AcDbEntity
8
vector
6
ByLayer
62
256
370
-1
100
AcDbLine
10
3.7961020867
20
2.87066929134
11
3.8029132284
21
2.87389759843
0
LINE
5
1BB
100
AcDbEntity
8
vector
6
ByLayer
62
256
370
-1
100
AcDbLine
10
3.8029132284
20
2.87389759843
11
3.8100787796
21
2.87622043307
0
LINE
5
1BC
100
AcDbEntity
8
vector
6
ByLayer
62
256
370
-1
100
AcDbLine
10
3.8100787796
20
2.87622043307
11
3.8174798819
21
2.87763775591
0
LINE
5
1BD
100
AcDbEntity
8
vector
6
ByLayer
62
256
370
-1
100
AcDbLine
10
3.8174798819
20
2.87763775591
11
3.8249998819
21
2.87811023622
0
LINE
5
1BE
100
AcDbEntity
8
vector
6
ByLayer
62
256
370
-1
100
AcDbLine
10
3.8249998819
20
2.87811023622
11
3.8325198819
21
2.87763775591
0
LINE
5
1BF
100
AcDbEntity
8
vector
6
ByLayer
62
256
370
-1
100
AcDbLine
10
3.8325198819
20
2.87763775591
11
3.8399209843
21
2.87622043307
0
LINE
5
1C0
100
AcDbEntity
8
vector
6
ByLayer
62
256
370
-1
100
AcDbLine
10
3.8399209843
20
2.87622043307
11
3.8470865355
21
2.87389759843
0
LINE
5
1C1
100
AcDbEntity
8
vector
6
ByLayer
62
256
370
-1
100
AcDbLine
10
3.8470865355
20
2.87389759843
11
3.8538976378
21
2.87066929134
0
LINE
5
1C2
100
AcDbEntity
8
vector
6
ByLayer
62
256
370
-1
100
AcDbLine
10
3.8538976378
20
2.87066929134
11
3.8602754331
21
2.86665354331
0
LINE
5
1C3
100
AcDbEntity
8
vector
6
ByLayer
62
256
370
-1
100
AcDbLine
10
3.8602754331
20
2.86665354331
11
3.8660632284
21
2.86185035433
0
LINE
5
1C4
100
AcDbEntity
8
vector
6
ByLayer
62
256
370
-1
100
AcDbLine
10
3.8660632284
20
2.86185035433
11
3.8712198819
21
2.85633854331
0
LINE
5
1C5
100
AcDbEntity
8
vector
6
ByLayer
62
256
370
-1
100
AcDbLine
10
3.8712198819
20
2.85633854331
11
3.8756687796
21
2.85027559055
0
LINE
5
1C6
100
AcDbEntity
8
vector
6
ByLayer
62
256
370
-1
100
AcDbLine
10
3.8756687796
20
2.85027559055
11
3.8792909843
21
2.84366137795
0
LINE
5
1C7
100
AcDbEntity
8
vector
6
ByLayer
62
256
370
-1
100
AcDbLine
10
3.8792909843
20
2.84366137795
11
3.8820476378
21
2.83665354331
0
LINE
5
1C8
100
AcDbEntity
8
vector
6
ByLayer
62
256
370
-1
100
AcDbLine
10
3.8820476378
20
2.83665354331
11
3.8839365355
21
2.82937007874
0
LINE
5
1C9
100
AcDbEntity
8
vector
6
ByLayer
62
256
370
-1
100
AcDbLine
10
3.8839365355
20
2.82937007874
11
3.8848809843
21
2.82188972441
0
LINE
5
1CA
100
AcDbEntity
8
vector
6
ByLayer
62
256
370
-1
100
AcDbLine
10
3.8848820867
20
2.82188972441
11
3.8848820867
21
2.81433070866
0
LINE
5
1CB
100
AcDbEntity
8
vector
6
ByLayer
62
256
370
-1
100
AcDbLine
10
3.8848820867
20
2.81433070866
11
3.8839376378
21
2.80685035433
0
LINE
5
1CC
100
AcDbEntity
8
vector
6
ByLayer
62
256
370
-1
100
AcDbLine
10
3.8839365355
20
2.80685035433
11
3.8820476378
21
2.79956688977
0
LINE
5
1CD
100
AcDbEntity
8
vector
6
ByLayer
62
256
370
-1
100
AcDbLine
10
3.8820476378
20
2.79956688977
11
3.8792909843
21
2.79255905512
0
LINE
5
1CE
100
AcDbEntity
8
vector
6
ByLayer
62
256
370
-1
100
AcDbLine
10
3.8792909843
20
2.79255905512
11
3.8756687796
21
2.78594488189
0
LINE
5
1CF
100
AcDbEntity
8
vector
6
ByLayer
62
256
370
-1
100
AcDbLine
10
3.8756687796
20
2.78594488189
11
3.8712198819
21
2.77988188977
0
LINE
5
1D0
100
AcDbEntity
8
vector
6
ByLayer
62
256
370
-1
100
AcDbLine
10
3.8712198819
20
2.77988188977
11
3.8660632284
21
2.77437007874
0
LINE
5
1D1
100
AcDbEntity
8
vector
6
ByLayer
62
256
370
-1
100
AcDbLine
10
3.8660632284
20
2.77437007874
11
3.8602754331
21
2.76956688977
0
LINE
5
1D2
100
AcDbEntity
8
vector
6
ByLayer
62
256
370
-1
100
AcDbLine
10
3.8602754331
20
2.76956688977
11
3.8538976378
21
2.7655511811
0
LINE
5
1D3
100
AcDbEntity
8
vector
6
ByLayer
62
256
370
-1
100
AcDbLine
10
3.8538976378
20
2.7655511811
11
3.8470865355
21
2.76232283465
0
LINE
5
1D4
100
AcDbEntity
8
vector
6
ByLayer
62
256
370
-1
100
AcDbLine
10
3.8470865355
20
2.76232283465
11
3.8399209843
21
2.76
0
LINE
5
1D5
100
AcDbEntity
8
vector
6
ByLayer
62
256
370
-1
100
AcDbLine
10
3.8399209843
20
2.76
11
3.8325198819
21
2.75858267717
0
LINE
5
1D6
100
AcDbEntity
8
vector
6
ByLayer
62
256
370
-1
100
AcDbLine
10
3.8325198819
20
2.75858267717
11
3.8249998819
21
2.75811023622
0
LINE
5
1D7
100
AcDbEntity
8
vector
6
ByLayer
62
256
370
-1
100
AcDbLine
10
4.9499998819
20
2
11
4.3249998819
21
2
0
LINE
5
1D8
100
AcDbEntity
8
vector
6
ByLayer
62
256
370
-1
100
AcDbLine
10
4.3249998819
20
2
11
4.3249998819
21
2.10826767717
0
LINE
5
1D9
100
AcDbEntity
8
vector
6
ByLayer
62
256
370
-1
100
AcDbLine
10
4.3249998819
20
2.10826767717
11
3.8249998819
21
2.10826767717
0
LINE
5
1DA
100
AcDbEntity
8
vector
6
ByLayer
62
256
370
-1
100
AcDbLine
10
3.8249998819
20
2.10826767717
11
3.8249998819
21
2
0
LINE
5
1DB
100
AcDbEntity
8
vector
6
ByLayer
62
256
370
-1
100
AcDbLine
10
3.8249998819
20
2
11
3.2
21
2
0
LINE
5
1DC
100
AcDbEntity
8
vector
6
ByLayer
62
256
370
-1
100
AcDbLine
10
3.2
20
2
11
3.2
21
2.55905507874
0
LINE
5
1DD
100
AcDbEntity
8
vector
6
ByLayer
62
256
370
-1
100
AcDbLine
10
3.2
20
2.55905507874
11
3.0917322048
21
2.55905507874
0
LINE
5
1DE
100
AcDbEntity
8
vector
6
ByLayer
62
256
370
-1
100
AcDbLine
10
3.0917322048
20
2.55905507874
11
3.0917322048
21
3.05905507874
0
LINE
5
1DF
100
AcDbEntity
8
vector
6
ByLayer
62
256
370
-1
100
AcDbLine
10
3.0917322048
20
3.05905507874
11
3.2
21
3.05905507874
0
LINE
5
1E0
100
AcDbEntity
8
vector
6
ByLayer
62
256
370
-1
100
AcDbLine
10
3.2
20
3.05905507874
11
3.2
21
4.17716535433
0
LINE
5
1E1
100
AcDbEntity
8
vector
6
ByLayer
62
256
370
-1
100
AcDbLine
10
3.2
20
4.17716535433
11
3.0917322048
21
4.17716535433
0
LINE
5
1E2
100
AcDbEntity
8
vector
6
ByLayer
62
256
370
-1
100
AcDbLine
10
3.0917322048
20
4.17716535433
11
3.0917322048
21
4.67716535433
0
LINE
5
1E3
100
AcDbEntity
8
vector
6
ByLayer
62
256
370
-1
100
AcDbLine
10
3.0917322048
20
4.67716535433
11
3.2
21
4.67716535433
0
LINE
5
1E4
100
AcDbEntity
8
vector
6
ByLayer
62
256
370
-1
100
AcDbLine
10
3.2
20
4.67716535433
11
3.2
21
5.23622043307
0
LINE
5
1E5
100
AcDbEntity
8
vector
6
ByLayer
62
256
370
-1
100
AcDbLine
10
3.2
20
5.23622043307
11
3.8249998819
21
5.23622043307
0
LINE
5
1E6
100
AcDbEntity
8
vector
6
ByLayer
62
256
370
-1
100
AcDbLine
10
3.8249998819
20
5.23622043307
11
3.8249998819
21
5.12795275591
0
LINE
5
1E7
100
AcDbEntity
8
vector
6
ByLayer
62
256
370
-1
100
AcDbLine
10
3.8249998819
20
5.12795275591
11
4.3249998819
21
5.12795275591
0
LINE
5
1E8
100
AcDbEntity
8
vector
6
ByLayer
62
256
370
-1
100
AcDbLine
10
4.3249998819
20
5.12795275591
11
4.3249998819
21
5.23622043307
0
LINE
5
1E9
100
AcDbEntity
8
vector
6
ByLayer
62
256
370
-1
100
AcDbLine
10
4.3249998819
20
5.23622043307
11
4.9499998819
21
5.23622043307
0
LINE
5
1EA
100
AcDbEntity
8
vector
6
ByLayer
62
256
370
-1
100
AcDbLine
10
4.9499998819
20
5.23622043307
11
4.9499998819
21
4.67716535433
0
LINE
5
1EB
100
AcDbEntity
8
vector
6
ByLayer
62
256
370
-1
100
AcDbLine
10
4.9499998819
20
4.67716535433
11
5.0582676378
21
4.67716535433
0
LINE
5
1EC
100
AcDbEntity
8
vector
6
ByLayer
62
256
370
-1
100
AcDbLine
10
5.0582676378
20
4.67716535433
11
5.0582676378
21
4.17716535433
0
LINE
5
1ED
100
AcDbEntity
8
vector
6
ByLayer
62
256
370
-1
100
AcDbLine
10
5.0582676378
20
4.17716535433
11
4.9499998819
21
4.17716535433
0
LINE
5
1EE
100
AcDbEntity
8
vector
6
ByLayer
62
256
370
-1
100
AcDbLine
10
4.9499998819
20
4.17716535433
11
4.9499998819
21
3.05905507874
0
LINE
5
1EF
100
AcDbEntity
8
vector
6
ByLayer
62
256
370
-1
100
AcDbLine
10
4.9499998819
20
3.05905507874
11
5.0582676378
21
3.05905507874
0
LINE
5
1F0
100
AcDbEntity
8
vector
6
ByLayer
62
256
370
-1
100
AcDbLine
10
5.0582676378
20
3.05905507874
11
5.0582676378
21
2.55905507874
0
LINE
5
1F1
100
AcDbEntity
8
vector
6
ByLayer
62
256
370
-1
100
AcDbLine
10
5.0582676378
20
2.55905507874
11
4.9499998819
21
2.55905507874
0
LINE
5
1F2
100
AcDbEntity
8
vector
6
ByLayer
62
256
370
-1
100
AcDbLine
10
4.9499998819
20
2.55905507874
11
4.9499998819
21
2
0
LINE
5
1F3
100
AcDbEntity
8
vector
6
ByLayer
62
256
370
-1
100
AcDbLine
10
4.5641732284
20
3.90610232284
11
3.8358265355
21
3.90610232284
0
LINE
5
1F4
100
AcDbEntity
8
vector
6
ByLayer
62
256
370
-1
100
AcDbLine
10
3.8358265355
20
3.90610232284
11
3.8309054331
21
3.90641732284
0
LINE
5
1F5
100
AcDbEntity
8
vector
6
ByLayer
62
256
370
-1
100
AcDbLine
10
3.8309054331
20
3.90641732284
11
3.8260232284
21
3.90732287402
0
LINE
5
1F6
100
AcDbEntity
8
vector
6
ByLayer
62
256
370
-1
100
AcDbLine
10
3.8260232284
20
3.90732283465
11
3.8213387796
21
3.90885826772
0
LINE
5
1F7
100
AcDbEntity
8
vector
6
ByLayer
62
256
370
-1
100
AcDbLine
10
3.8213387796
20
3.90885826772
11
3.8168498819
21
3.9109842126
0
LINE
5
1F8
100
AcDbEntity
8
vector
6
ByLayer
62
256
370
-1
100
AcDbLine
10
3.8168498819
20
3.9109842126
11
3.8126776378
21
3.91362204725
0
LINE
5
1F9
100
AcDbEntity
8
vector
6
ByLayer
62
256
370
-1
100
AcDbLine
10
3.8126776378
20
3.91362204725
11
3.8088576378
21
3.91677165355
0
LINE
5
1FA
100
AcDbEntity
8
vector
6
ByLayer
62
256
370
-1
100
AcDbLine
10
3.8088576378
20
3.91677165355
11
3.8054720867
21
3.92039370079
0
LINE
5
1FB
100
AcDbEntity
8
vector
6
ByLayer
62
256
370
-1
100
AcDbLine
10
3.8054720867
20
3.92039370079
11
3.8025987796
21
3.92437007874
0
LINE
5
1FC
100
AcDbEntity
8
vector
6
ByLayer
62
256
370
-1
100
AcDbLine
10
3.8025987796
20
3.92437007874
11
3.8001965355
21
3.9287007874
0
LINE
5
1FD
100
AcDbEntity
8
vector
6
ByLayer
62
256
370
-1
100
AcDbLine
10
3.8001965355
20
3.9287007874
11
3.7983854331
21
3.93330708662
0
LINE
5
1FE
100
AcDbEntity
8
vector
6
ByLayer
62
256
370
-1
100
AcDbLine
10
3.7983854331
20
3.93330708662
11
3.7971654331
21
3.93811023622
0
LINE
5
1FF
100
AcDbEntity
8
vector
6
ByLayer
62
256
370
-1
100
AcDbLine
10
3.7971654331
20
3.93811023622
11
3.7965320867
21
3.94299212599
0
LINE
5
200
100
AcDbEntity
8
vector
6
ByLayer
62
256
370
-1
100
AcDbLine
10
3.7965354331
20
3.94299212599
11
3.7965354331
21
3.94547240158
0
LINE
5
201
100
AcDbEntity
8
vector
6
ByLayer
62
256
370
-1
100
AcDbLine
10
3.7965354331
20
3.94547240158
11
3.7964243307
21
3.94547240158
0
LINE
5
202
100
AcDbEntity
8
vector
6
ByLayer
62
256
370
-1
100
AcDbLine
10
3.7964565355
20
3.94547240158
11
3.7964565355
21
4.2407480315
0
LINE
5
203
100
AcDbEntity
8
vector
6
ByLayer
62
256
370
-1
100
AcDbLine
10
3.7964565355
20
4.2407480315
11
3.7965676378
21
4.2407480315
0
LINE
5
204
100
AcDbEntity
8
vector
6
ByLayer
62
256
370
-1
100
AcDbLine
10
3.7965354331
20
4.2407480315
11
3.7965354331
21
4.24322834646
0
LINE
5
205
100
AcDbEntity
8
vector
6
ByLayer
62
256
370
-1
100
AcDbLine
10
3.7965354331
20
4.24322834646
11
3.7971687796
21
4.24811023622
0
LINE
5
206
100
AcDbEntity
8
vector
6
ByLayer
62
256
370
-1
100
AcDbLine
10
3.7971654331
20
4.24811023622
11
3.7983854331
21
4.25291334646
0
LINE
5
207
100
AcDbEntity
8
vector
6
ByLayer
62
256
370
-1
100
AcDbLine
10
3.7983854331
20
4.25291334646
11
3.8001965355
21
4.25751964567
0
LINE
5
208
100
AcDbEntity
8
vector
6
ByLayer
62
256
370
-1
100
AcDbLine
10
3.8001965355
20
4.25751964567
11
3.8025987796
21
4.26185035433
0
LINE
5
209
100
AcDbEntity
8
vector
6
ByLayer
62
256
370
-1
100
AcDbLine
10
3.8025987796
20
4.26185035433
11
3.8054720867
21
4.26582673229
0
LINE
5
20A
100
AcDbEntity
8
vector
6
ByLayer
62
256
370
-1
100
AcDbLine
10
3.8054720867
20
4.26582673229
11
3.8088576378
21
4.26944877953
0
LINE
5
20B
100
AcDbEntity
8
vector
6
ByLayer
62
256
370
-1
100
AcDbLine
10
3.8088576378
20
4.26944877953
11
3.8126776378
21
4.2725984252
0
LINE
5
20C
100
AcDbEntity
8
vector
6
ByLayer
62
256
370
-1
100
AcDbLine
10
3.8126776378
20
4.2725984252
11
3.8168498819
21
4.27523622047
0
LINE
5
20D
100
AcDbEntity
8
vector
6
ByLayer
62
256
370
-1
100
AcDbLine
10
3.8168498819
20
4.27523622047
11
3.8213387796
21
4.27736216536
0
LINE
5
20E
100
AcDbEntity
8
vector
6
ByLayer
62
256
370
-1
100
AcDbLine
10
3.8213387796
20
4.27736216536
11
3.8260232284
21
4.27889759843
0
LINE
5
20F
100
AcDbEntity
8
vector
6
ByLayer
62
256
370
-1
100
AcDbLine
10
3.8260232284
20
4.27889759843
11
3.8309054331
21
4.27980318898
0
LINE
5
210
100
AcDbEntity
8
vector
6
ByLayer
62
256
370
-1
100
AcDbLine
10
3.8309054331
20
4.27980311024
11
3.8358265355
21
4.28011811024
0
LINE
5
211
100
AcDbEntity
8
vector
6
ByLayer
62
256
370
-1
100
AcDbLine
10
3.8358265355
20
4.28011811024
11
4.5641732284
21
4.28011811024
0
LINE
5
212
100
AcDbEntity
8
vector
6
ByLayer
62
256
370
-1
100
AcDbLine
10
4.5641732284
20
4.28011811024
11
4.5690943307
21
4.27980311024
0
LINE
5
213
100
AcDbEntity
8
vector
6
ByLayer
62
256
370
-1
100
AcDbLine
10
4.5690943307
20
4.27980311024
11
4.5739765355
21
4.27889755906
0
LINE
5
214
100
AcDbEntity
8
vector
6
ByLayer
62
256
370
-1
100
AcDbLine
10
4.5739765355
20
4.27889759843
11
4.5786609843
21
4.27736216536
0
LINE
5
215
100
AcDbEntity
8
vector
6
ByLayer
62
256
370
-1
100
AcDbLine
10
4.5786609843
20
4.27736216536
11
4.5831498819
21
4.27523622047
0
LINE
5
216
100
AcDbEntity
8
vector
6
ByLayer
62
256
370
-1
100
AcDbLine
10
4.5831498819
20
4.27523622047
11
4.5873232284
21
4.2725984252
0
LINE
5
217
100
AcDbEntity
8
vector
6
ByLayer
62
256
370
-1
100
AcDbLine
10
4.5873232284
20
4.2725984252
11
4.5911420867
21
4.26944877953
0
LINE
5
218
100
AcDbEntity
8
vector
6
ByLayer
62
256
370
-1
100
AcDbLine
10
4.5911420867
20
4.26944877953
11
4.5945276378
21
4.26582673229
0
LINE
5
219
100
AcDbEntity
8
vector
6
ByLayer
62
256
370
-1
100
AcDbLine
10
4.5945276378
20
4.26582673229
11
4.5974009843
21
4.26185035433
0
LINE
5
21A
100
AcDbEntity
8
vector
6
ByLayer
62
256
370
-1
100
AcDbLine
10
4.5974009843
20
4.26185035433
11
4.5998032284
21
4.25751964567
0
LINE
5
21B
100
AcDbEntity
8
vector
6
ByLayer
62
256
370
-1
100
AcDbLine
10
4.5998032284
20
4.25751964567
11
4.6016143307
21
4.25291334646
0
LINE
5
21C
100
AcDbEntity
8
vector
6
ByLayer
62
256
370
-1
100
AcDbLine
10
4.6016143307
20
4.25291334646
11
4.6028343307
21
4.24811023622
0
LINE
5
21D
100
AcDbEntity
8
vector
6
ByLayer
62
256
370
-1
100
AcDbLine
10
4.6028343307
20
4.24811023622
11
4.6034676378
21
4.24322834646
0
LINE
5
21E
100
AcDbEntity
8
vector
6
ByLayer
62
256
370
-1
100
AcDbLine
10
4.6034643307
20
4.24322834646
11
4.6034643307
21
4.2407480315
0
LINE
5
21F
100
AcDbEntity
8
vector
6
ByLayer
62
256
370
-1
100
AcDbLine
10
4.6034643307
20
4.2407480315
11
4.6035754331
21
4.2407480315
0
LINE
5
220
100
AcDbEntity
8
vector
6
ByLayer
62
256
370
-1
100
AcDbLine
10
4.6035432284
20
4.2407480315
11
4.6035432284
21
3.94547240158
0
LINE
5
221
100
AcDbEntity
8
vector
6
ByLayer
62
256
370
-1
100
AcDbLine
10
4.6035432284
20
3.94547240158
11
4.6034320867
21
3.94547240158
0
LINE
5
222
100
AcDbEntity
8
vector
6
ByLayer
62
256
370
-1
100
AcDbLine
10
4.6034643307
20
3.94547240158
11
4.6034643307
21
3.94299212599
0
LINE
5
223
100
AcDbEntity
8
vector
6
ByLayer
62
256
370
-1
100
AcDbLine
10
4.6034643307
20
3.94299212599
11
4.6028343307
21
3.93811023622
0
LINE
5
224
100
AcDbEntity
8
vector
6
ByLayer
62
256
370
-1
100
AcDbLine
10
4.6028343307
20
3.93811023622
11
4.6016143307
21
3.93330708662
0
LINE
5
225
100
AcDbEntity
8
vector
6
ByLayer
62
256
370
-1
100
AcDbLine
10
4.6016143307
20
3.93330708662
11
4.5998032284
21
3.9287007874
0
LINE
5
226
100
AcDbEntity
8
vector
6
ByLayer
62
256
370
-1
100
AcDbLine
10
4.5998032284
20
3.9287007874
11
4.5974009843
21
3.92437007874
0
LINE
5
227
100
AcDbEntity
8
vector
6
ByLayer
62
256
370
-1
100
AcDbLine
10
4.5974009843
20
3.92437007874
11
4.5945276378
21
3.92039370079
0
LINE
5
228
100
AcDbEntity
8
vector
6
ByLayer
62
256
370
-1
100
AcDbLine
10
4.5945276378
20
3.92039370079
11
4.5911420867
21
3.91677165355
0
LINE
5
229
100
AcDbEntity
8
vector
6
ByLayer
62
256
370
-1
100
AcDbLine
10
4.5911420867
20
3.91677165355
11
4.5873232284
21
3.91362204725
0
LINE
5
22A
100
AcDbEntity
8
vector
6
ByLayer
62
256
370
-1
100
AcDbLine
10
4.5873232284
20
3.91362204725
11
4.5831498819
21
3.9109842126
0
LINE
5
22B
100
AcDbEntity
8
vector
6
ByLayer
62
256
370
-1
100
AcDbLine
10
4.5831498819
20
3.9109842126
11
4.5786609843
21
3.90885826772
0
LINE
5
22C
100
AcDbEntity
8
vector
6
ByLayer
62
256
370
-1
100
AcDbLine
10
4.5786609843
20
3.90885826772
11
4.5739765355
21
3.90732283465
0
LINE
5
22D
100
AcDbEntity
8
vector
6
ByLayer
62
256
370
-1
100
AcDbLine
10
4.5739765355
20
3.90732283465
11
4.5690943307
21
3.9064172441
0
LINE
5
22E
100
AcDbEntity
8
vector
6
ByLayer
62
256
370
-1
100
AcDbLine
10
4.5690943307
20
3.90641732284
11
4.5641732284
21
3.90610232284
0
LINE
5
22F
100
AcDbEntity
8
vector
6
ByLayer
62
256
370
-1
100
AcDbLine
10
4.6249998819
20
4.35811023622
11
4.6174798819
21
4.35858267717
0
LINE
5
230
100
AcDbEntity
8
vector
6
ByLayer
62
256
370
-1
100
AcDbLine
10
4.6174798819
20
4.35858267717
11
4.6100787796
21
4.36
0
LINE
5
231
100
AcDbEntity
8
vector
6
ByLayer
62
256
370
-1
100
AcDbLine
10
4.6100787796
20
4.36
11
4.6029132284
21
4.36232283465
0
LINE
5
232
100
AcDbEntity
8
vector
6
ByLayer
62
256
370
-1
100
AcDbLine
10
4.6029132284
20
4.36232283465
11
4.5961020867
21
4.3655511811
0
LINE
5
233
100
AcDbEntity
8
vector
6
ByLayer
62
256
370
-1
100
AcDbLine
10
4.5961020867
20
4.3655511811
11
4.5897243307
21
4.36956688977
0
LINE
5
234
100
AcDbEntity
8
vector
6
ByLayer
62
256
370
-1
100
AcDbLine
10
4.5897243307
20
4.36956688977
11
4.5839365355
21
4.37437007874
0
LINE
5
235
100
AcDbEntity
8
vector
6
ByLayer
62
256
370
-1
100
AcDbLine
10
4.5839365355
20
4.37437007874
11
4.5787798819
21
4.37988188977
0
LINE
5
236
100
AcDbEntity
8
vector
6
ByLayer
62
256
370
-1
100
AcDbLine
10
4.5787798819
20
4.37988188977
11
4.5743309843
21
4.38594488189
0
LINE
5
237
100
AcDbEntity
8
vector
6
ByLayer
62
256
370
-1
100
AcDbLine
10
4.5743309843
20
4.38594488189
11
4.5707087796
21
4.39255905512
0
LINE
5
238
100
AcDbEntity
8
vector
6
ByLayer
62
256
370
-1
100
AcDbLine
10
4.5707087796
20
4.39255905512
11
4.5679532284
21
4.39956688977
0
LINE
5
239
100
AcDbEntity
8
vector
6
ByLayer
62
256
370
-1
100
AcDbLine
10
4.5679532284
20
4.39956688977
11
4.5660632284
21
4.40685035433
0
LINE
5
23A
100
AcDbEntity
8
vector
6
ByLayer
62
256
370
-1
100
AcDbLine
10
4.5660632284
20
4.40685035433
11
4.5651187796
21
4.41433070866
0
LINE
5
23B
100
AcDbEntity
8
vector
6
ByLayer
62
256
370
-1
100
AcDbLine
10
4.5651176378
20
4.41433070866
11
4.5651176378
21
4.42188972441
0
LINE
5
23C
100
AcDbEntity
8
vector
6
ByLayer
62
256
370
-1
100
AcDbLine
10
4.5651176378
20
4.42188972441
11
4.5660620867
21
4.42937007874
0
LINE
5
23D
100
AcDbEntity
8
vector
6
ByLayer
62
256
370
-1
100
AcDbLine
10
4.5660632284
20
4.42937007874
11
4.5679532284
21
4.43665354331
0
LINE
5
23E
100
AcDbEntity
8
vector
6
ByLayer
62
256
370
-1
100
AcDbLine
10
4.5679532284
20
4.43665354331
11
4.5707087796
21
4.44366137795
0
LINE
5
23F
100
AcDbEntity
8
vector
6
ByLayer
62
256
370
-1
100
AcDbLine
10
4.5707087796
20
4.44366137795
11
4.5743309843
21
4.45027559055
0
LINE
5
240
100
AcDbEntity
8
vector
6
ByLayer
62
256
370
-1
100
AcDbLine
10
4.5743309843
20
4.45027559055
11
4.5787798819
21
4.45633854331
0
LINE
5
241
100
AcDbEntity
8
vector
6
ByLayer
62
256
370
-1
100
AcDbLine
10
4.5787798819
20
4.45633854331
11
4.5839365355
21
4.46185035433
0
LINE
5
242
100
AcDbEntity
8
vector
6
ByLayer
62
256
370
-1
100
AcDbLine
10
4.5839365355
20
4.46185035433
11
4.5897243307
21
4.46665354331
0
LINE
5
243
100
AcDbEntity
8
vector
6
ByLayer
62
256
370
-1
100
AcDbLine
10
4.5897243307
20
4.46665354331
11
4.5961020867
21
4.47066929134
0
LINE
5
244
100
AcDbEntity
8
vector
6
ByLayer
62
256
370
-1
100
AcDbLine
10
4.5961020867
20
4.47066929134
11
4.6029132284
21
4.47389759843
0
LINE
5
245
100
AcDbEntity
8
vector
6
ByLayer
62
256
370
-1
100
AcDbLine
10
4.6029132284
20
4.47389759843
11
4.6100787796
21
4.47622043307
0
LINE
5
246
100
AcDbEntity
8
vector
6
ByLayer
62
256
370
-1
100
AcDbLine
10
4.6100787796
20
4.47622043307
11
4.6174798819
21
4.47763775591
0
LINE
5
247
100
AcDbEntity
8
vector
6
ByLayer
62
256
370
-1
100
AcDbLine
10
4.6174798819
20
4.47763775591
11
4.6249998819
21
4.47811023622
0
LINE
5
248
100
AcDbEntity
8
vector
6
ByLayer
62
256
370
-1
100
AcDbLine
10
4.6249998819
20
4.47811023622
11
4.6325198819
21
4.47763775591
0
LINE
5
249
100
AcDbEntity
8
vector
6
ByLayer
62
256
370
-1
100
AcDbLine
10
4.6325198819
20
4.47763775591
11
4.6399209843
21
4.47622043307
0
LINE
5
24A
100
AcDbEntity
8
vector
6
ByLayer
62
256
370
-1
100
AcDbLine
10
4.6399209843
20
4.47622043307
11
4.6470865355
21
4.47389759843
0
LINE
5
24B
100
AcDbEntity
8
vector
6
ByLayer
62
256
370
-1
100
AcDbLine
10
4.6470865355
20
4.47389759843
11
4.6538976378
21
4.47066929134
0
LINE
5
24C
100
AcDbEntity
8
vector
6
ByLayer
62
256
370
-1
100
AcDbLine
10
4.6538976378
20
4.47066929134
11
4.6602754331
21
4.46665354331
0
LINE
5
24D
100
AcDbEntity
8
vector
6
ByLayer
62
256
370
-1
100
AcDbLine
10
4.6602754331
20
4.46665354331
11
4.6660632284
21
4.46185035433
0
LINE
5
24E
100
AcDbEntity
8
vector
6
ByLayer
62
256
370
-1
100
AcDbLine
10
4.6660632284
20
4.46185035433
11
4.6712198819
21
4.45633854331
0
LINE
5
24F
100
AcDbEntity
8
vector
6
ByLayer
62
256
370
-1
100
AcDbLine
10
4.6712198819
20
4.45633854331
11
4.6756687796
21
4.45027559055
0
LINE
5
250
100
AcDbEntity
8
vector
6
ByLayer
62
256
370
-1
100
AcDbLine
10
4.6756687796
20
4.45027559055
11
4.6792909843
21
4.44366137795
0
LINE
5
251
100
AcDbEntity
8
vector
6
ByLayer
62
256
370
-1
100
AcDbLine
10
4.6792909843
20
4.44366137795
11
4.6820476378
21
4.43665354331
0
LINE
5
252
100
AcDbEntity
8
vector
6
ByLayer
62
256
370
-1
100
AcDbLine
10
4.6820476378
20
4.43665354331
11
4.6839365355
21
4.42937007874
0
LINE
5
253
100
AcDbEntity
8
vector
6
ByLayer
62
256
370
-1
100
AcDbLine
10
4.6839365355
20
4.42937007874
11
4.6848809843
21
4.42188972441
0
LINE
5
254
100
AcDbEntity
8
vector
6
ByLayer
62
256
370
-1
100
AcDbLine
10
4.6848820867
20
4.42188972441
11
4.6848820867
21
4.41433070866
0
LINE
5
255
100
AcDbEntity
8
vector
6
ByLayer
62
256
370
-1
100
AcDbLine
10
4.6848820867
20
4.41433070866
11
4.6839376378
21
4.40685035433
0
LINE
5
256
100
AcDbEntity
8
vector
6
ByLayer
62
256
370
-1
100
AcDbLine
10
4.6839365355
20
4.40685035433
11
4.6820476378
21
4.39956688977
0
LINE
5
257
100
AcDbEntity
8
vector
6
ByLayer
62
256
370
-1
100
AcDbLine
10
4.6820476378
20
4.39956688977
11
4.6792909843
21
4.39255905512
0
LINE
5
258
100
AcDbEntity
8
vector
6
ByLayer
62
256
370
-1
100
AcDbLine
10
4.6792909843
20
4.39255905512
11
4.6756687796
21
4.38594488189
0
LINE
5
259
100
AcDbEntity
8
vector
6
ByLayer
62
256
370
-1
100
AcDbLine
10
4.6756687796
20
4.38594488189
11
4.6712198819
21
4.37988188977
0
LINE
5
25A
100
AcDbEntity
8
vector
6
ByLayer
62
256
370
-1
100
AcDbLine
10
4.6712198819
20
4.37988188977
11
4.6660632284
21
4.37437007874
0
LINE
5
25B
100
AcDbEntity
8
vector
6
ByLayer
62
256
370
-1
100
AcDbLine
10
4.6660632284
20
4.37437007874
11
4.6602754331
21
4.36956688977
0
LINE
5
25C
100
AcDbEntity
8
vector
6
ByLayer
62
256
370
-1
100
AcDbLine
10
4.6602754331
20
4.36956688977
11
4.6538976378
21
4.3655511811
0
LINE
5
25D
100
AcDbEntity
8
vector
6
ByLayer
62
256
370
-1
100
AcDbLine
10
4.6538976378
20
4.3655511811
11
4.6470865355
21
4.36232283465
0
LINE
5
25E
100
AcDbEntity
8
vector
6
ByLayer
62
256
370
-1
100
AcDbLine
10
4.6470865355
20
4.36232283465
11
4.6399209843
21
4.36
0
LINE
5
25F
100
AcDbEntity
8
vector
6
ByLayer
62
256
370
-1
100
AcDbLine
10
4.6399209843
20
4.36
11
4.6325198819
21
4.35858267717
0
LINE
5
260
100
AcDbEntity
8
vector
6
ByLayer
62
256
370
-1
100
AcDbLine
10
4.6325198819
20
4.35858267717
11
4.6249998819
21
4.35811023622
0
LINE
5
261
100
AcDbEntity
8
vector
6
ByLayer
62
256
370
-1
100
AcDbLine
10
3.8249998819
20
4.35811023622
11
3.8174798819
21
4.35858267717
0
LINE
5
262
100
AcDbEntity
8
vector
6
ByLayer
62
256
370
-1
100
AcDbLine
10
3.8174798819
20
4.35858267717
11
3.8100787796
21
4.36
0
LINE
5
263
100
AcDbEntity
8
vector
6
ByLayer
62
256
370
-1
100
AcDbLine
10
3.8100787796
20
4.36
11
3.8029132284
21
4.36232283465
0
LINE
5
264
100
AcDbEntity
8
vector
6
ByLayer
62
256
370
-1
100
AcDbLine
10
3.8029132284
20
4.36232283465
11
3.7961020867
21
4.3655511811
0
LINE
5
265
100
AcDbEntity
8
vector
6
ByLayer
62
256
370
-1
100
AcDbLine
10
3.7961020867
20
4.3655511811
11
3.7897243307
21
4.36956688977
0
LINE
5
266
100
AcDbEntity
8
vector
6
ByLayer
62
256
370
-1
100
AcDbLine
10
3.7897243307
20
4.36956688977
11
3.7839365355
21
4.37437007874
0
LINE
5
267
100
AcDbEntity
8
vector
6
ByLayer
62
256
370
-1
100
AcDbLine
10
3.7839365355
20
4.37437007874
11
3.7787798819
21
4.37988188977
0
LINE
5
268
100
AcDbEntity
8
vector
6
ByLayer
62
256
370
-1
100
AcDbLine
10
3.7787798819
20
4.37988188977
11
3.7743309843
21
4.38594488189
0
LINE
5
269
100
AcDbEntity
8
vector
6
ByLayer
62
256
370
-1
100
AcDbLine
10
3.7743309843
20
4.38594488189
11
3.7707087796
21
4.39255905512
0
LINE
5
26A
100
AcDbEntity
8
vector
6
ByLayer
62
256
370
-1
100
AcDbLine
10
3.7707087796
20
4.39255905512
11
3.7679532284
21
4.39956688977
0
LINE
5
26B
100
AcDbEntity
8
vector
6
ByLayer
62
256
370
-1
100
AcDbLine
10
3.7679532284
20
4.39956688977
11
3.7660632284
21
4.40685035433
0
LINE
5
26C
100
AcDbEntity
8
vector
6
ByLayer
62
256
370
-1
100
AcDbLine
10
3.7660632284
20
4.40685035433
11
3.7651187796
21
4.41433070866
0
LINE
5
26D
100
AcDbEntity
8
vector
6
ByLayer
62
256
370
-1
100
AcDbLine
10
3.7651176378
20
4.41433070866
11
3.7651176378
21
4.42188972441
0
LINE
5
26E
100
AcDbEntity
8
vector
6
ByLayer
62
256
370
-1
100
AcDbLine
10
3.7651176378
20
4.42188972441
11
3.7660620867
21
4.42937007874
0
LINE
5
26F
100
AcDbEntity
8
vector
6
ByLayer
62
256
370
-1
100
AcDbLine
10
3.7660632284
20
4.42937007874
11
3.7679532284
21
4.43665354331
0
LINE
5
270
100
AcDbEntity
8
vector
6
ByLayer
62
256
370
-1
100
AcDbLine
10
3.7679532284
20
4.43665354331
11
3.7707087796
21
4.44366137795
0
LINE
5
271
100
AcDbEntity
8
vector
6
ByLayer
62
256
370
-1
100
AcDbLine
10
3.7707087796
20
4.44366137795
11
3.7743309843
21
4.45027559055
0
LINE
5
272
100
AcDbEntity
8
vector
6
ByLayer
62
256
370
-1
100
AcDbLine
10
3.7743309843
20
4.45027559055
11
3.7787798819
21
4.45633854331
0
LINE
5
273
100
AcDbEntity
8
vector
6
ByLayer
62
256
370
-1
100
AcDbLine
10
3.7787798819
20
4.45633854331
11
3.7839365355
21
4.46185035433
0
LINE
5
274
100
AcDbEntity
8
vector
6
ByLayer
62
256
370
-1
100
AcDbLine
10
3.7839365355
20
4.46185035433
11
3.7897243307
21
4.46665354331
0
LINE
5
275
100
AcDbEntity
8
vector
6
ByLayer
62
256
370
-1
100
AcDbLine
10
3.7897243307
20
4.46665354331
11
3.7961020867
21
4.47066929134
0
LINE
5
276
100
AcDbEntity
8
vector
6
ByLayer
62
256
370
-1
100
AcDbLine
10
3.7961020867
20
4.47066929134
11
3.8029132284
21
4.47389759843
0
LINE
5
277
100
AcDbEntity
8
vector
6
ByLayer
62
256
370
-1
100
AcDbLine
10
3.8029132284
20
4.47389759843
11
3.8100787796
21
4.47622043307
0
LINE
5
278
100
AcDbEntity
8
vector
6
ByLayer
62
256
370
-1
100
AcDbLine
10
3.8100787796
20
4.47622043307
11
3.8174798819
21
4.47763775591
0
LINE
5
279
100
AcDbEntity
8
vector
6
ByLayer
62
256
370
-1
100
AcDbLine
10
3.8174798819
20
4.47763775591
11
3.8249998819
21
4.47811023622
0
LINE
5
27A
100
AcDbEntity
8
vector
6
ByLayer
62
256
370
-1
100
AcDbLine
10
3.8249998819
20
4.47811023622
11
3.8325198819
21
4.47763775591
0
LINE
5
27B
100
AcDbEntity
8
vector
6
ByLayer
62
256
370
-1
100
AcDbLine
10
3.8325198819
20
4.47763775591
11
3.8399209843
21
4.47622043307
0
LINE
5
27C
100
AcDbEntity
8
vector
6
ByLayer
62
256
370
-1
100
AcDbLine
10
3.8399209843
20
4.47622043307
11
3.8470865355
21
4.47389759843
0
LINE
5
27D
100
AcDbEntity
8
vector
6
ByLayer
62
256
370
-1
100
AcDbLine
10
3.8470865355
20
4.47389759843
11
3.8538976378
21
4.47066929134
0
LINE
5
27E
100
AcDbEntity
8
vector
6
ByLayer
62
256
370
-1
100
AcDbLine
10
3.8538976378
20
4.47066929134
11
3.8602754331
21
4.46665354331
0
LINE
5
27F
100
AcDbEntity
8
vector
6
ByLayer
62
256
370
-1
100
AcDbLine
10
3.8602754331
20
4.46665354331
11
3.8660632284
21
4.46185035433
0
LINE
5
280
100
AcDbEntity
8
vector
6
ByLayer
62
256
370
-1
100
AcDbLine
10
3.8660632284
20
4.46185035433
11
3.8712198819
21
4.45633854331
0
LINE
5
281
100
AcDbEntity
8
vector
6
ByLayer
62
256
370
-1
100
AcDbLine
10
3.8712198819
20
4.45633854331
11
3.8756687796
21
4.45027559055
0
LINE
5
282
100
AcDbEntity
8
vector
6
ByLayer
62
256
370
-1
100
AcDbLine
10
3.8756687796
20
4.45027559055
11
3.8792909843
21
4.44366137795
0
LINE
5
283
100
AcDbEntity
8
vector
6
ByLayer
62
256
370
-1
100
AcDbLine
10
3.8792909843
20
4.44366137795
11
3.8820476378
21
4.43665354331
0
LINE
5
284
100
AcDbEntity
8
vector
6
ByLayer
62
256
370
-1
100
AcDbLine
10
3.8820476378
20
4.43665354331
11
3.8839365355
21
4.42937007874
0
LINE
5
285
100
AcDbEntity
8
vector
6
ByLayer
62
256
370
-1
100
AcDbLine
10
3.8839365355
20
4.42937007874
11
3.8848809843
21
4.42188972441
0
LINE
5
286
100
AcDbEntity
8
vector
6
ByLayer
62
256
370
-1
100
AcDbLine
10
3.8848820867
20
4.42188972441
11
3.8848820867
21
4.41433070866
0
LINE
5
287
100
AcDbEntity
8
vector
6
ByLayer
62
256
370
-1
100
AcDbLine
10
3.8848820867
20
4.41433070866
11
3.8839376378
21
4.40685035433
0
LINE
5
288
100
AcDbEntity
8
vector
6
ByLayer
62
256
370
-1
100
AcDbLine
10
3.8839365355
20
4.40685035433
11
3.8820476378
21
4.39956688977
0
LINE
5
289
100
AcDbEntity
8
vector
6
ByLayer
62
256
370
-1
100
AcDbLine
10
3.8820476378
20
4.39956688977
11
3.8792909843
21
4.39255905512
0
LINE
5
28A
100
AcDbEntity
8
vector
6
ByLayer
62
256
370
-1
100
AcDbLine
10
3.8792909843
20
4.39255905512
11
3.8756687796
21
4.38594488189
0
LINE
5
28B
100
AcDbEntity
8
vector
6
ByLayer
62
256
370
-1
100
AcDbLine
10
3.8756687796
20
4.38594488189
11
3.8712198819
21
4.37988188977
0
LINE
5
28C
100
AcDbEntity
8
vector
6
ByLayer
62
256
370
-1
100
AcDbLine
10
3.8712198819
20
4.37988188977
11
3.8660632284
21
4.37437007874
0
LINE
5
28D
100
AcDbEntity
8
vector
6
ByLayer
62
256
370
-1
100
AcDbLine
10
3.8660632284
20
4.37437007874
11
3.8602754331
21
4.36956688977
0
LINE
5
28E
100
AcDbEntity
8
vector
6
ByLayer
62
256
370
-1
100
AcDbLine
10
3.8602754331
20
4.36956688977
11
3.8538976378
21
4.3655511811
0
LINE
5
28F
100
AcDbEntity
8
vector
6
ByLayer
62
256
370
-1
100
AcDbLine
10
3.8538976378
20
4.3655511811
11
3.8470865355
21
4.36232283465
0
LINE
5
290
100
AcDbEntity
8
vector
6
ByLayer
62
256
370
-1
100
AcDbLine
10
3.8470865355
20
4.36232283465
11
3.8399209843
21
4.36
0
LINE
5
291
100
AcDbEntity
8
vector
6
ByLayer
62
256
370
-1
100
AcDbLine
10
3.8399209843
20
4.36
11
3.8325198819
21
4.35858267717
0
LINE
5
292
100
AcDbEntity
8
vector
6
ByLayer
62
256
370
-1
100
AcDbLine
10
3.8325198819
20
4.35858267717
11
3.8249998819
21
4.35811023622
0
ENDSEC
0
SECTION
2
OBJECTS
0
DICTIONARY
5
C
330
0
100
AcDbDictionary
281
1
3
ACAD_GROUP
350
D
0
DICTIONARY
5
D
330
C
100
AcDbDictionary
281
1
0
ENDSEC
0
EOF
